<?xml version="1.0" encoding="utf-8"?>
<!-- Generator: Adobe Illustrator 15.0.2, SVG Export Plug-In  -->
<!DOCTYPE svg PUBLIC "-//W3C//DTD SVG 1.1//EN" "http://www.w3.org/Graphics/SVG/1.1/DTD/svg11.dtd" [
	<!ENTITY ns_flows "http://ns.adobe.com/Flows/1.0/">
]>
<svg version="1.1"
	 xmlns="http://www.w3.org/2000/svg" xmlns:xlink="http://www.w3.org/1999/xlink" xmlns:a="http://ns.adobe.com/AdobeSVGViewerExtensions/3.0/"
	 x="0px" y="0px" width="498px" height="501px" viewBox="-0.857 -2.104 498 501"
	 overflow="visible" enable-background="new -0.857 -2.104 498 501" xml:space="preserve">
<defs>
</defs>
<g id="XMLID_1_">
	<g>
		<path fill="#FFFFFF" d="M184.887,340.259l-87.348,94.406l-1.603,2.004c-0.833-0.647-1.634-1.325-2.435-1.973l0.031-0.031
			l7.983-125.043l82.724,29.219L184.887,340.259z"/>
		<path fill="#00A6E1" d="M396.259,309.623l95.269-61.304c0,44.722-12.113,86.64-33.226,122.608l-0.031-0.031L396.259,309.623z"/>
		<path fill="#4B68B0" d="M6.277,248.319l95.238,61.304l-61.982,61.273l-0.031,0.031C18.39,334.958,6.277,293.041,6.277,248.319z"/>
		<polygon fill="#FFFFFF" points="193.825,104.228 168.983,176.258 168.952,176.258 94.395,61.232 		"/>
		<polygon fill="#FFFFFF" points="144.11,248.319 6.277,248.319 101.515,184.611 		"/>
		<polygon fill="#0090D5" points="184.887,394.721 208.033,344.975 248.902,354.746 		"/>
		<polygon fill="#90D6ED" points="328.822,176.227 325.709,174.625 327.404,172.128 		"/>
		<path fill="#4B68B0" d="M403.41,61.232l-99.43,42.996l32.301-82.263l0.031-0.031C360.845,31.397,383.468,44.743,403.41,61.232z"/>
		<path fill="#00A6E1" d="M161.524,21.965l32.301,82.263l-99.43-42.996c19.941-16.489,42.564-29.835,67.098-39.297L161.524,21.965z"
			/>
		<path fill="#00A6E1" d="M185.657,395.892l63.245,95.054c-30.821,0-60.287-5.732-87.409-16.242l0.031-0.031l22.87-78.226
			L185.657,395.892z"/>
		<path fill="#FFFFFF" d="M312.918,340.259l91.354,94.406l0.031,0.031c-0.802,0.647-1.603,1.325-2.435,1.973l-1.604-2.004
			l-86.854-38.219l-0.493-1.726V340.259z"/>
		<path fill="#2E3191" d="M459.103,495.138H248.902v-4.192c30.821,0,60.286-5.732,87.409-16.242
			c23.917-9.216,45.985-22.13,65.557-38.034c0.832-0.647,1.633-1.325,2.435-1.973c21.451-17.938,39.79-39.514,53.999-63.77
			c21.112-35.969,33.226-77.887,33.226-122.608h3.575v210.819C495.103,479.018,478.983,495.138,459.103,495.138z"/>
		<path fill="#4B68B0" d="M248.902,5.691l-55.078,98.537l-32.301-82.263l-0.031-0.031C188.616,11.424,218.081,5.691,248.902,5.691z"
			/>
		<path fill="#00A6E1" d="M101.515,184.611L6.277,248.319c0-36.154,7.921-70.489,22.099-101.311l0.062,0.031L101.515,184.611z"/>
		<polygon fill="#90D6ED" points="313.565,338.841 336.835,286.322 396.259,309.623 		"/>
		<path fill="#00A6E1" d="M401.869,436.669c-19.572,15.904-41.64,28.818-65.557,38.034l-0.031-0.031l-22.87-78.226l86.854,38.219
			L401.869,436.669z"/>
		<polygon fill="#3853A3" points="184.887,340.259 184.887,394.721 184.394,396.447 97.539,434.666 		"/>
		<path fill="#2E3191" d="M28.376,147.008C14.198,177.83,6.277,212.165,6.277,248.319H1.5V37.53C1.5,17.62,17.62,1.5,37.499,1.5
			h211.403v4.191c-30.821,0-60.287,5.733-87.409,16.243c-24.534,9.462-47.157,22.808-67.098,39.297
			C66.44,84.348,43.725,113.628,28.376,147.008z"/>
		<polygon fill="#4757A6" points="248.902,5.691 248.902,134.557 193.825,104.228 		"/>
		<polygon fill="#2E3191" points="313.411,396.447 312.147,395.892 312.918,394.721 		"/>
		<polygon fill="#FFFFFF" points="248.902,5.691 303.98,104.228 248.902,134.557 		"/>
		<polygon fill="#90D6ED" points="303.98,104.228 327.404,172.128 325.709,174.625 281.881,151.755 		"/>
		<polygon fill="#90D6ED" points="168.983,176.258 157.425,209.761 156.438,209.422 101.515,184.611 168.952,176.258 		"/>
		<polygon fill="#0090D5" points="101.515,184.611 156.438,209.422 157.425,209.761 144.11,248.319 		"/>
		<polygon fill="#3853A3" points="403.41,61.232 327.404,172.128 303.98,104.228 		"/>
		<polygon fill="#4757A6" points="312.147,395.892 248.902,490.946 248.902,354.746 312.918,394.721 		"/>
		<path fill="#00A6E1" d="M469.428,147.008l-0.062,0.031l-73.107,37.572l7.15-123.379
			C431.364,84.348,454.08,113.628,469.428,147.008z"/>
		<polygon fill="#3853A3" points="404.272,434.666 312.918,340.259 313.565,338.841 396.259,309.623 		"/>
		<polygon fill="#3B8CCB" points="184.239,338.841 101.515,309.623 144.11,248.319 		"/>
		<polygon fill="#3B8CCB" points="328.853,176.258 396.259,184.611 353.695,248.319 328.822,176.258 		"/>
		<polygon fill="#3B8CCB" points="248.902,354.746 309.497,340.259 313.565,338.841 312.918,340.259 312.918,394.721 		"/>
		<polygon fill="#FFFFFF" points="403.41,61.232 396.259,184.611 328.853,176.258 328.822,176.258 328.822,176.227 327.404,172.128 
					"/>
		<path fill="#4B68B0" d="M94.395,61.232l7.12,123.379l-73.078-37.572l-0.062-0.031C43.725,113.628,66.44,84.348,94.395,61.232z"/>
		<path fill="#2E3191" d="M495.103,37.53v210.789h-3.575c0-36.154-7.922-70.489-22.1-101.311
			c-15.349-33.38-38.064-62.66-66.019-85.776c-19.941-16.489-42.564-29.835-67.098-39.297
			c-27.123-10.51-56.588-16.243-87.409-16.243V1.5h210.201C478.983,1.5,495.103,17.62,495.103,37.53z"/>
		<polygon fill="#3853A3" points="94.395,61.232 168.952,176.258 101.515,184.611 		"/>
		<polygon fill="#4757A6" points="6.277,248.319 144.11,248.319 101.515,309.623 		"/>
		<path fill="#00A6E1" d="M248.902,5.691c30.821,0,60.286,5.733,87.409,16.243l-0.031,0.031l-32.301,82.263L248.902,5.691z"/>
		<path fill="#4B68B0" d="M396.259,309.623l62.012,61.273l0.031,0.031c-14.209,24.256-32.548,45.831-53.999,63.77l-0.031-0.031
			L396.259,309.623z"/>
		<path fill="#00A6E1" d="M39.533,370.896l61.982-61.273l-7.983,125.043l-0.031,0.031c-21.452-17.938-39.791-39.514-53.999-63.77
			L39.533,370.896z"/>
		<polygon fill="#90D6ED" points="184.239,338.841 188.308,340.259 208.033,344.975 184.887,394.721 184.887,340.259 		"/>
		<path fill="#4B68B0" d="M469.428,147.008c14.178,30.822,22.1,65.157,22.1,101.311l-95.269-63.708l73.107-37.572L469.428,147.008z"
			/>
		<polygon fill="#FFFFFF" points="185.657,395.892 184.887,394.721 248.902,354.746 248.902,490.946 		"/>
		<polygon fill="#00ADEE" points="309.497,340.259 248.902,354.746 208.033,344.975 188.308,340.259 184.239,338.841 
			144.11,248.319 157.425,209.761 168.983,176.258 248.902,134.557 281.881,151.755 325.709,174.625 328.822,176.227 
			328.822,176.258 353.695,248.319 336.835,286.322 313.565,338.841 		"/>
		<polygon fill="#0090D5" points="353.695,248.319 396.259,309.623 336.835,286.322 		"/>
		<polygon fill="#3B8CCB" points="248.902,134.557 168.983,176.258 193.825,104.228 		"/>
		<path fill="#2E3191" d="M95.937,436.669c19.571,15.904,41.639,28.818,65.557,38.034c27.123,10.51,56.588,16.242,87.409,16.242
			v4.192H37.499c-19.879,0-35.999-16.12-35.999-36V248.319h4.777c0,44.722,12.113,86.64,33.225,122.608
			c14.208,24.256,32.547,45.831,53.999,63.77C94.303,435.344,95.104,436.022,95.937,436.669z"/>
		<polygon fill="#0090D5" points="303.98,104.228 281.881,151.755 248.902,134.557 		"/>
		<polygon fill="#2E3191" points="184.887,394.721 185.657,395.892 184.394,396.447 		"/>
		<polygon fill="#4757A6" points="396.259,184.611 491.528,248.319 353.695,248.319 		"/>
		<path fill="#4B68B0" d="M97.539,434.666l86.854-38.219l-22.87,78.226l-0.031,0.031c-23.917-9.216-45.985-22.13-65.557-38.034
			L97.539,434.666z"/>
		<path fill="#4B68B0" d="M336.281,474.672l0.031,0.031c-27.123,10.51-56.588,16.242-87.409,16.242l63.245-95.054l1.264,0.555
			L336.281,474.672z"/>
		<polygon fill="#FFFFFF" points="491.528,248.319 396.259,309.623 353.695,248.319 		"/>
	</g>
	<g>
		<path fill="none" stroke="#231F20" stroke-width="3" stroke-miterlimit="10" d="M495.103,248.319v210.819c0,19.88-16.12,36-36,36
			H248.902H37.499c-19.879,0-35.999-16.12-35.999-36V248.319V37.53C1.5,17.62,17.62,1.5,37.499,1.5h211.403h210.201
			c19.88,0,36,16.12,36,36.03V248.319z"/>
		<path fill="none" stroke="#231F20" stroke-width="3" stroke-linecap="round" stroke-linejoin="round" d="M491.528,248.319
			c0,44.722-12.113,86.64-33.226,122.608c-14.209,24.256-32.548,45.831-53.999,63.77c-0.802,0.647-1.603,1.325-2.435,1.973
			c-19.572,15.904-41.64,28.818-65.557,38.034c-27.123,10.51-56.588,16.242-87.409,16.242s-60.287-5.732-87.409-16.242
			c-23.917-9.216-45.985-22.13-65.557-38.034c-0.833-0.647-1.634-1.325-2.435-1.973c-21.452-17.938-39.791-39.514-53.999-63.77
			C18.39,334.958,6.277,293.041,6.277,248.319c0-36.154,7.921-70.489,22.099-101.311c15.349-33.38,38.064-62.66,66.019-85.776
			c19.941-16.489,42.564-29.835,67.098-39.297c27.123-10.51,56.588-16.243,87.409-16.243s60.286,5.733,87.409,16.243
			c24.534,9.462,47.157,22.808,67.098,39.297c27.954,23.116,50.67,52.396,66.019,85.776
			C483.606,177.83,491.528,212.165,491.528,248.319z"/>
		
			<line fill="none" stroke="#231F20" stroke-width="3" stroke-linecap="round" stroke-linejoin="round" x1="6.277" y1="248.319" x2="101.515" y2="184.611"/>
		
			<line fill="none" stroke="#231F20" stroke-width="3" stroke-linecap="round" stroke-linejoin="round" x1="101.515" y1="309.623" x2="6.277" y2="248.319"/>
		
			<line fill="none" stroke="#231F20" stroke-width="3" stroke-linecap="round" stroke-linejoin="round" x1="101.515" y1="309.623" x2="39.533" y2="370.896"/>
		
			<line fill="none" stroke="#231F20" stroke-width="3" stroke-linecap="round" stroke-linejoin="round" x1="94.395" y1="61.232" x2="101.515" y2="184.611"/>
		
			<line fill="none" stroke="#231F20" stroke-width="3" stroke-linecap="round" stroke-linejoin="round" x1="94.395" y1="61.232" x2="193.825" y2="104.228"/>
		
			<line fill="none" stroke="#231F20" stroke-width="3" stroke-linecap="round" stroke-linejoin="round" x1="193.825" y1="104.228" x2="248.902" y2="5.691"/>
		
			<line fill="none" stroke="#231F20" stroke-width="3" stroke-linecap="round" stroke-linejoin="round" x1="193.825" y1="104.228" x2="161.524" y2="21.965"/>
		
			<line fill="none" stroke="#231F20" stroke-width="3" stroke-linecap="round" stroke-linejoin="round" x1="101.515" y1="184.611" x2="28.438" y2="147.039"/>
		
			<line fill="none" stroke="#231F20" stroke-width="3" stroke-linecap="round" stroke-linejoin="round" x1="101.515" y1="184.611" x2="144.11" y2="248.319"/>
		
			<line fill="none" stroke="#231F20" stroke-width="3" stroke-linecap="round" stroke-linejoin="round" x1="144.11" y1="248.319" x2="101.515" y2="309.623"/>
		<polyline fill="none" stroke="#231F20" stroke-width="3" stroke-linecap="round" stroke-linejoin="round" points="
			101.515,309.623 184.239,338.841 188.308,340.259 		"/>
		
			<line fill="none" stroke="#231F20" stroke-width="3" stroke-linecap="round" stroke-linejoin="round" x1="184.887" y1="340.259" x2="184.887" y2="394.721"/>
		
			<line fill="none" stroke="#231F20" stroke-width="3" stroke-linecap="round" stroke-linejoin="round" x1="93.532" y1="434.666" x2="101.515" y2="309.623"/>
		<polyline fill="none" stroke="#231F20" stroke-width="3" stroke-linecap="round" stroke-linejoin="round" points="
			188.308,394.721 185.657,395.892 184.394,396.447 97.539,434.666 		"/>
		<polyline fill="none" stroke="#231F20" stroke-width="3" stroke-linecap="round" stroke-linejoin="round" points="
			184.887,394.721 185.657,395.892 248.902,490.946 		"/>
		<polyline fill="none" stroke="#231F20" stroke-width="3" stroke-linecap="round" stroke-linejoin="round" points="
			184.887,394.721 184.394,396.447 161.524,474.672 		"/>
		<polyline fill="none" stroke="#231F20" stroke-width="3" stroke-linecap="round" stroke-linejoin="round" points="
			193.825,104.228 168.983,176.258 157.425,209.761 144.11,248.319 		"/>
		
			<line fill="none" stroke="#231F20" stroke-width="3" stroke-linecap="round" stroke-linejoin="round" x1="101.515" y1="184.611" x2="168.952" y2="176.258"/>
		<polyline fill="none" stroke="#231F20" stroke-width="3" stroke-linecap="round" stroke-linejoin="round" points="
			168.952,176.258 168.983,176.258 248.902,134.557 		"/>
		<polyline fill="none" stroke="#231F20" stroke-width="3" stroke-linecap="round" stroke-linejoin="round" points="144.11,248.319 
			184.239,338.841 184.887,340.259 		"/>
		
			<line fill="none" stroke="#231F20" stroke-width="3" stroke-linecap="round" stroke-linejoin="round" x1="193.825" y1="104.228" x2="248.902" y2="134.557"/>
		<polyline fill="none" stroke="#231F20" stroke-width="3" stroke-linecap="round" stroke-linejoin="round" points="
			188.308,340.259 208.033,344.975 248.902,354.746 		"/>
		
			<line fill="none" stroke="#231F20" stroke-width="3" stroke-linecap="round" stroke-linejoin="round" x1="248.902" y1="354.746" x2="184.887" y2="394.721"/>
		
			<line fill="none" stroke="#231F20" stroke-width="3" stroke-linecap="round" stroke-linejoin="round" x1="491.528" y1="248.319" x2="396.259" y2="184.611"/>
		
			<line fill="none" stroke="#231F20" stroke-width="3" stroke-linecap="round" stroke-linejoin="round" x1="491.528" y1="248.319" x2="396.259" y2="309.623"/>
		
			<line fill="none" stroke="#231F20" stroke-width="3" stroke-linecap="round" stroke-linejoin="round" x1="396.259" y1="309.623" x2="458.271" y2="370.896"/>
		
			<line fill="none" stroke="#231F20" stroke-width="3" stroke-linecap="round" stroke-linejoin="round" x1="403.41" y1="61.232" x2="396.259" y2="184.611"/>
		
			<line fill="none" stroke="#231F20" stroke-width="3" stroke-linecap="round" stroke-linejoin="round" x1="403.41" y1="61.232" x2="303.98" y2="104.228"/>
		
			<line fill="none" stroke="#231F20" stroke-width="3" stroke-linecap="round" stroke-linejoin="round" x1="303.98" y1="104.228" x2="248.902" y2="5.691"/>
		
			<line fill="none" stroke="#231F20" stroke-width="3" stroke-linecap="round" stroke-linejoin="round" x1="303.98" y1="104.228" x2="336.281" y2="21.965"/>
		
			<line fill="none" stroke="#231F20" stroke-width="3" stroke-linecap="round" stroke-linejoin="round" x1="396.259" y1="184.611" x2="469.367" y2="147.039"/>
		
			<line fill="none" stroke="#231F20" stroke-width="3" stroke-linecap="round" stroke-linejoin="round" x1="396.259" y1="184.611" x2="353.695" y2="248.319"/>
		
			<line fill="none" stroke="#231F20" stroke-width="3" stroke-linecap="round" stroke-linejoin="round" x1="353.695" y1="248.319" x2="396.259" y2="309.623"/>
		<polyline fill="none" stroke="#231F20" stroke-width="3" stroke-linecap="round" stroke-linejoin="round" points="
			396.259,309.623 313.565,338.841 309.497,340.259 		"/>
		
			<line fill="none" stroke="#231F20" stroke-width="3" stroke-linecap="round" stroke-linejoin="round" x1="312.918" y1="340.259" x2="312.918" y2="394.721"/>
		
			<line fill="none" stroke="#231F20" stroke-width="3" stroke-linecap="round" stroke-linejoin="round" x1="396.259" y1="309.623" x2="404.272" y2="434.666"/>
		<polyline fill="none" stroke="#231F20" stroke-width="3" stroke-linecap="round" stroke-linejoin="round" points="
			309.497,394.721 312.147,395.892 313.411,396.447 400.265,434.666 		"/>
		<polyline fill="none" stroke="#231F20" stroke-width="3" stroke-linecap="round" stroke-linejoin="round" points="
			312.918,394.721 312.147,395.892 248.902,490.946 		"/>
		<polyline fill="none" stroke="#231F20" stroke-width="3" stroke-linecap="round" stroke-linejoin="round" points="
			312.918,394.721 313.411,396.447 336.281,474.672 		"/>
		
			<line fill="none" stroke="#231F20" stroke-width="3" stroke-linecap="round" stroke-linejoin="round" x1="328.822" y1="176.258" x2="353.695" y2="248.319"/>
		<polyline fill="none" stroke="#231F20" stroke-width="3" stroke-linecap="round" stroke-linejoin="round" points="303.98,104.228 
			327.404,172.128 328.822,176.227 		"/>
		
			<line fill="none" stroke="#231F20" stroke-width="3" stroke-linecap="round" stroke-linejoin="round" x1="396.259" y1="184.611" x2="328.853" y2="176.258"/>
		<polyline fill="none" stroke="#231F20" stroke-width="3" stroke-linecap="round" stroke-linejoin="round" points="
			328.853,176.258 328.822,176.258 328.822,176.227 325.709,174.625 281.881,151.755 248.902,134.557 		"/>
		<polyline fill="none" stroke="#231F20" stroke-width="3" stroke-linecap="round" stroke-linejoin="round" points="
			353.695,248.319 336.835,286.322 313.565,338.841 312.918,340.259 		"/>
		
			<line fill="none" stroke="#231F20" stroke-width="3" stroke-linecap="round" stroke-linejoin="round" x1="303.98" y1="104.228" x2="248.902" y2="134.557"/>
		
			<line fill="none" stroke="#231F20" stroke-width="3" stroke-linecap="round" stroke-linejoin="round" x1="309.497" y1="340.259" x2="248.902" y2="354.746"/>
		
			<line fill="none" stroke="#231F20" stroke-width="3" stroke-linecap="round" stroke-linejoin="round" x1="248.902" y1="354.746" x2="312.918" y2="394.721"/>
		
			<line fill="none" stroke="#231F20" stroke-width="3" stroke-miterlimit="10" x1="312.918" y1="340.259" x2="404.272" y2="434.666"/>
		
			<line fill="none" stroke="#231F20" stroke-width="3" stroke-miterlimit="10" x1="248.902" y1="354.746" x2="248.902" y2="490.946"/>
		
			<line fill="none" stroke="#231F20" stroke-width="3" stroke-miterlimit="10" x1="184.887" y1="340.259" x2="97.539" y2="434.666"/>
		<line fill="none" stroke="#231F20" stroke-width="3" stroke-miterlimit="10" x1="144.11" y1="248.319" x2="6.277" y2="248.319"/>
		<line fill="none" stroke="#231F20" stroke-width="3" stroke-miterlimit="10" x1="94.395" y1="61.232" x2="168.952" y2="176.258"/>
		<line fill="none" stroke="#231F20" stroke-width="3" stroke-miterlimit="10" x1="248.902" y1="5.691" x2="248.902" y2="134.557"/>
		<polyline fill="none" stroke="#231F20" stroke-width="3" stroke-miterlimit="10" points="403.41,61.232 327.404,172.128 
			325.709,174.625 324.568,176.258 		"/>
		
			<line fill="none" stroke="#231F20" stroke-width="3" stroke-miterlimit="10" x1="353.695" y1="248.319" x2="491.528" y2="248.319"/>
		
			<line fill="none" stroke="#231F20" stroke-width="3" stroke-miterlimit="10" x1="303.98" y1="104.228" x2="281.881" y2="151.755"/>
		
			<line fill="none" stroke="#231F20" stroke-width="3" stroke-miterlimit="10" x1="101.515" y1="184.611" x2="156.438" y2="209.422"/>
		
			<line fill="none" stroke="#231F20" stroke-width="3" stroke-miterlimit="10" x1="184.887" y1="394.721" x2="208.033" y2="344.975"/>
		<polyline fill="none" stroke="#231F20" stroke-width="3" stroke-miterlimit="10" points="396.259,309.623 336.835,286.322 
			336.805,286.322 		"/>
	</g>
</g>
</svg>
