<?xml version="1.0" encoding="utf-8"?>
<!-- Generator: Adobe Illustrator 15.0.2, SVG Export Plug-In  -->
<!DOCTYPE svg PUBLIC "-//W3C//DTD SVG 1.1//EN" "http://www.w3.org/Graphics/SVG/1.1/DTD/svg11.dtd" [
	<!ENTITY ns_flows "http://ns.adobe.com/Flows/1.0/">
]>
<svg version="1.1"
	 xmlns="http://www.w3.org/2000/svg" xmlns:xlink="http://www.w3.org/1999/xlink" xmlns:a="http://ns.adobe.com/AdobeSVGViewerExtensions/3.0/"
	 x="0px" y="0px" width="498px" height="501px" viewBox="-2.239 -2.805 498 501"
	 overflow="visible" enable-background="new -2.239 -2.805 498 501" xml:space="preserve">
<defs>
</defs>
<g id="XMLID_1_">
	<g>
		<path fill="#666666" d="M490.17,38.25v418.74c0,9.21-3.359,17.64-8.939,24.06l-79.05-192.479l40.949-40.95l-40.949-40.98
			l78.93-192.6C486.75,20.49,490.17,28.98,490.17,38.25z"/>
		<path fill="#F9EC31" d="M402.181,288.57l79.05,192.479c-0.15,0.18-0.3,0.36-0.48,0.54l-95.37-93.12v-83.1L402.181,288.57z"/>
		<path fill="#E21E30" d="M481.11,14.04l-78.93,192.6l-16.801-16.77v-81.3v-0.03l95.16-95.13
			C480.75,13.59,480.931,13.8,481.11,14.04z"/>
		<path fill="#E21E30" d="M480.75,481.59c0,0,0,0,0,0.03c-0.479,0.51-0.96,1.02-1.47,1.5l-193.32-78.33l15.87-15.84h83.55v-0.48
			L480.75,481.59z"/>
		<path fill="#F9EC31" d="M479.28,12.06c0.45,0.45,0.87,0.9,1.26,1.35l-95.16,95.13v-1.5h-82.8L286.2,90.66L479.28,12.06z"/>
		<path fill="#666666" d="M244.95,51.21l-40.17,40.17L11.67,12.81C18.3,5.85,27.63,1.5,37.98,1.5h415.71
			c9.99,0,19.02,4.02,25.59,10.56L286.2,90.66l-40.35-40.35L244.95,51.21z"/>
		<path fill="#666666" d="M244.95,443.97l0.93,0.931l40.08-40.11l193.32,78.33c-6.57,6.569-15.6,10.59-25.59,10.59H37.98
			c-10.26,0-19.56-4.29-26.19-11.16l0.48-1.17l193.26-76.8L244.95,443.97z"/>
		<polygon fill="#007E77" points="402.181,206.64 443.13,247.62 385.38,247.62 		"/>
		<polygon fill="#00A99D" points="443.13,247.62 402.181,288.57 385.38,247.62 		"/>
		<path fill="#0071BC" d="M385.38,247.62l16.801,40.95l-16.801,16.8v-57.66C385.38,247.68,385.38,247.65,385.38,247.62z"/>
		<polygon fill="#BD8BFF" points="402.181,206.64 385.38,247.62 385.38,189.87 		"/>
		<path fill="#6812C2" d="M385.38,388.47v0.48h-83.55l40.32-40.351c0.42-0.42,0.81-0.81,1.2-1.199L385.38,388.47z"/>
		<path fill="#006837" d="M385.38,305.37v83.1L343.351,347.4c0.569-0.57,1.17-1.141,1.77-1.74L385.38,305.37z"/>
		<path fill="#FFFFFF" d="M385.38,247.71v57.66l-40.26,40.29C369.96,320.49,385.351,285.9,385.38,247.71z"/>
		<path fill="#8CC63F" d="M385.38,247.62c0,0.03,0,0.06,0,0.09c-0.029,38.19-15.42,72.78-40.26,97.95c-0.6,0.6-1.2,1.17-1.77,1.74
			c-0.391,0.39-0.78,0.779-1.2,1.199c-25.05,23.851-58.98,38.521-96.3,38.521c-0.3,0-0.6,0-0.9,0v-27.66l0.03-1.44
			c0.66,0.03,1.29,0.03,1.95,0.03c60.99,0,110.43-49.439,110.43-110.43h0.75H385.38z"/>
		<path d="M385.38,189.87v57.75c0-37.35-14.67-71.22-38.52-96.27L385.38,189.87z"/>
		<path fill="#6812C2" d="M385.38,108.57v81.3l-38.52-38.52c-0.21-0.21-0.39-0.39-0.601-0.6c-0.479-0.54-1.02-1.08-1.529-1.59
			l0.899-0.87L385.38,108.57z"/>
		<path fill="#006837" d="M385.38,108.54v0.03l-39.75,39.72l-0.899,0.87c-0.66-0.66-1.32-1.29-1.98-1.95
			c-0.21-0.18-0.42-0.39-0.63-0.6l-39.54-39.57h82.8V108.54z"/>
		<path fill="#F15A24" d="M385.38,247.62h-27.27h-0.75c0-60.99-49.44-110.46-110.43-110.46c-0.66,0-1.32,0-1.98,0.03v-29.07
			c0.3-0.03,0.6-0.03,0.9-0.03c37.32,0,71.22,14.64,96.27,38.52c0.21,0.21,0.42,0.42,0.63,0.6l3.51,3.54
			c0.211,0.21,0.391,0.39,0.601,0.6C370.71,176.4,385.38,210.27,385.38,247.62z"/>
		<path fill="#22B573" d="M344.73,149.16c0.51,0.51,1.05,1.05,1.529,1.59l-3.51-3.54C343.41,147.87,344.07,148.5,344.73,149.16z"/>
		<path d="M342.15,348.6l-40.32,40.351h-54.96l-1.92-0.78v-1.05c0.3,0,0.6,0,0.9,0C283.17,387.12,317.101,372.45,342.15,348.6z"/>
		<path fill="#FFFFFF" d="M245.91,107.04h0.03h56.64l39.54,39.57c-25.05-23.88-58.95-38.52-96.27-38.52l-0.9-0.36v-0.69H245.91z"/>
		<path d="M244.95,137.19c0.66-0.03,1.32-0.03,1.98-0.03c60.99,0,110.43,49.47,110.43,110.46s-49.44,110.43-110.43,110.43
			c-0.66,0-1.29,0-1.95-0.03C184.89,357,136.5,307.95,136.5,247.62S184.86,138.24,244.95,137.19z M334.38,247.59
			c0-48.27-39.149-87.42-87.45-87.42c-48.27,0-87.42,39.15-87.42,87.42c0,48.3,39.15,87.45,87.42,87.45
			C295.23,335.04,334.38,295.89,334.38,247.59z"/>
		<path fill="#FFFFFF" d="M246.93,160.17c48.3,0,87.45,39.15,87.45,87.42c0,48.3-39.149,87.45-87.45,87.45
			c-48.27,0-87.42-39.15-87.42-87.45C159.51,199.32,198.66,160.17,246.93,160.17z M316.681,247.59
			c0-38.55-31.261-69.78-69.811-69.78s-69.81,31.23-69.81,69.78c0,38.58,31.26,69.811,69.81,69.811S316.681,286.17,316.681,247.59z"
			/>
		<polygon fill="#0071BC" points="302.58,107.04 245.94,107.04 286.2,90.66 		"/>
		<polygon fill="#BD8BFF" points="301.83,388.95 285.96,404.79 246.87,388.95 		"/>
		<path d="M246.87,177.81c38.55,0,69.811,31.23,69.811,69.78c0,38.58-31.261,69.811-69.811,69.811s-69.81-31.23-69.81-69.811
			C177.06,209.04,208.32,177.81,246.87,177.81z"/>
		<polygon fill="#00A99D" points="286.2,90.66 245.94,107.04 245.91,107.04 244.95,107.04 244.95,51.21 245.85,50.31 		"/>
		<polygon fill="#007E77" points="285.96,404.79 245.88,444.9 244.95,443.97 244.95,388.95 246.87,388.95 		"/>
		<path fill="#FFFFFF" d="M245.85,108.09c-0.3,0-0.6,0-0.9,0.03v-0.39L245.85,108.09z"/>
		<path fill="#29B6E2" d="M244.98,358.02l-0.03,1.44v27.66c-36.99-0.24-70.53-14.851-95.37-38.521c-0.15-0.149-0.3-0.27-0.42-0.39
			c-1.08-1.05-2.13-2.07-3.15-3.15c-24.54-25.08-39.69-59.46-39.72-97.32c0-0.03,0-0.09,0-0.12h30.21
			C136.5,307.95,184.89,357,244.98,358.02z"/>
		<polygon fill="#00A99D" points="244.95,388.95 244.95,443.97 205.53,404.58 244.86,388.95 		"/>
		<path fill="#FFFFFF" d="M244.95,388.17v0.78h-0.09H189.9L149.58,348.6c24.84,23.67,58.38,38.28,95.37,38.521V388.17z"/>
		<path fill="#93278F" d="M244.95,108.12v29.07c-60.09,1.05-108.45,50.1-108.45,110.43h-30.21c0-37.35,14.67-71.22,38.55-96.27
			c0.66-0.72,1.35-1.44,2.1-2.13l1.44-1.44c0.39-0.39,0.78-0.78,1.2-1.17C174.42,122.91,207.96,108.33,244.95,108.12z"/>
		<path d="M244.95,107.73v0.39c-36.99,0.21-70.53,14.79-95.37,38.49l39.54-39.57h54.15L244.95,107.73z"/>
		<polygon fill="#FFFFFF" points="244.95,107.04 244.95,107.73 243.27,107.04 		"/>
		<polygon fill="#007E77" points="244.95,51.21 244.95,107.04 243.27,107.04 204.78,91.38 		"/>
		<polygon fill="#0071BC" points="244.86,388.95 205.53,404.58 189.9,388.95 		"/>
		<polygon fill="#BD8BFF" points="243.27,107.04 189.12,107.04 204.78,91.38 		"/>
		<polygon fill="#F9EC31" points="189.9,388.95 205.53,404.58 12.27,481.38 12.96,479.64 106.95,388.95 		"/>
		<path fill="#E21E30" d="M204.78,91.38l-15.66,15.66h-82.83v1.53L11.1,13.41c0.18-0.21,0.39-0.42,0.57-0.6L204.78,91.38z"/>
		<path fill="#006837" d="M149.58,348.6l40.32,40.351h-82.95l42.21-40.74C149.28,348.33,149.43,348.45,149.58,348.6z"/>
		<path fill="#6812C2" d="M189.12,107.04l-39.54,39.57c-0.42,0.39-0.81,0.78-1.2,1.17c-0.42,0.39-0.81,0.78-1.2,1.17l-1.65-1.17
			l-39.24-39.21v-1.53H189.12z"/>
		<path fill="#6812C2" d="M146.01,345.06c1.02,1.08,2.07,2.101,3.15,3.15l-42.21,40.74h-0.66v-83.58L146.01,345.06z"/>
		<path fill="#22B573" d="M148.38,147.78l-1.44,1.44c0.06-0.09,0.15-0.18,0.24-0.27C147.57,148.56,147.96,148.17,148.38,147.78z"/>
		<path fill="#006837" d="M147.18,148.95c-0.09,0.09-0.18,0.18-0.24,0.27c-0.75,0.69-1.44,1.41-2.1,2.13l-38.55,38.52v-81.3
			l39.24,39.21L147.18,148.95z"/>
		<path d="M146.01,345.06l-39.72-39.689v-0.03v-57.6C106.32,285.6,121.47,319.979,146.01,345.06z"/>
		<path fill="#FFFFFF" d="M106.29,189.87l38.55-38.52c-23.88,25.05-38.55,58.92-38.55,96.27V189.9V189.87z"/>
		<polygon fill="#E21E30" points="106.95,388.95 12.96,479.64 89.1,288.15 106.29,305.34 106.29,305.37 106.29,388.95 		"/>
		<path fill="#BD8BFF" d="M106.29,247.74v57.6L89.1,288.15l16.11-40.53h1.08C106.29,247.65,106.29,247.71,106.29,247.74z"/>
		<polygon fill="#0071BC" points="106.29,189.9 106.29,247.62 89.49,206.67 		"/>
		<path fill="#F9EC31" d="M106.29,189.87v0.03l-16.8,16.77L10.53,14.07c0.18-0.24,0.39-0.45,0.57-0.66l95.19,95.16V189.87z"/>
		<polygon fill="#00A99D" points="89.49,206.67 106.29,247.62 105.21,247.62 48.54,247.62 		"/>
		<polygon fill="#007E77" points="105.21,247.62 89.1,288.15 48.54,247.62 		"/>
		<path fill="#666666" d="M10.53,14.07l78.96,192.6l-40.95,40.95l40.56,40.53L12.96,479.64l-2.04,1.98
			c-5.85-6.51-9.42-15.15-9.42-24.63V38.25C1.5,28.98,4.89,20.52,10.53,14.07z"/>
		<path fill="#F9EC31" d="M12.96,479.64l-0.69,1.74l-1.14,0.45c-0.09-0.09-0.15-0.15-0.21-0.21L12.96,479.64z"/>
		<path d="M12.27,481.38l-0.48,1.17c-0.21-0.24-0.45-0.479-0.66-0.72L12.27,481.38z"/>
		<path fill="#F9EC31" d="M11.13,481.83l-0.75,0.3l0.54-0.51C10.98,481.68,11.04,481.74,11.13,481.83z"/>
	</g>
	<g>
		<path fill="none" stroke="#231F20" stroke-width="3" stroke-miterlimit="10" d="M480.75,481.62c-0.479,0.51-0.96,1.02-1.47,1.5
			c-6.57,6.569-15.6,10.59-25.59,10.59H37.98c-10.26,0-19.56-4.29-26.19-11.16c-0.21-0.24-0.45-0.479-0.66-0.72
			c-0.09-0.09-0.15-0.15-0.21-0.21c-5.85-6.51-9.42-15.15-9.42-24.63V38.25c0-9.27,3.39-17.73,9.03-24.18
			c0.18-0.24,0.39-0.45,0.57-0.66c0.18-0.21,0.39-0.42,0.57-0.6C18.3,5.85,27.63,1.5,37.98,1.5h415.71
			c9.99,0,19.02,4.02,25.59,10.56c0.45,0.45,0.87,0.9,1.26,1.35c0.21,0.18,0.391,0.39,0.57,0.63c5.64,6.45,9.06,14.94,9.06,24.21
			v418.74c0,9.21-3.359,17.64-8.939,24.06c-0.15,0.18-0.3,0.36-0.48,0.54"/>
		<polyline fill="none" stroke="#231F20" stroke-width="3" stroke-miterlimit="10" points="385.38,247.71 385.38,305.37 
			385.38,388.47 385.38,388.95 301.83,388.95 246.87,388.95 244.95,388.95 244.86,388.95 189.9,388.95 106.95,388.95 106.29,388.95 
			106.29,305.37 		"/>
		<polyline fill="none" stroke="#231F20" stroke-width="3" stroke-miterlimit="10" points="385.38,108.57 385.38,189.87 
			385.38,247.62 		"/>
		<polyline fill="none" stroke="#231F20" stroke-width="3" stroke-miterlimit="10" points="245.94,107.04 302.58,107.04 
			385.38,107.04 385.38,108.54 		"/>
		<polyline fill="none" stroke="#231F20" stroke-width="3" stroke-miterlimit="10" points="106.29,189.87 106.29,108.57 
			106.29,107.04 189.12,107.04 243.27,107.04 244.95,107.04 245.91,107.04 		"/>
		<line fill="none" stroke="#231F20" stroke-width="3" stroke-miterlimit="10" x1="106.29" y1="247.62" x2="106.29" y2="189.9"/>
		<line fill="none" stroke="#231F20" stroke-width="3" stroke-miterlimit="10" x1="106.29" y1="305.34" x2="106.29" y2="247.74"/>
		<path fill="none" stroke="#231F20" stroke-width="3" stroke-miterlimit="10" d="M346.86,151.35
			c23.85,25.05,38.52,58.92,38.52,96.27c0,0.03,0,0.06,0,0.09c-0.029,38.19-15.42,72.78-40.26,97.95"/>
		<path fill="none" stroke="#231F20" stroke-width="3" stroke-miterlimit="10" d="M342.75,147.21c0.66,0.66,1.32,1.29,1.98,1.95
			c0.51,0.51,1.05,1.05,1.529,1.59"/>
		<path fill="none" stroke="#231F20" stroke-width="3" stroke-miterlimit="10" d="M149.58,146.61
			c24.84-23.7,58.38-38.28,95.37-38.49c0.3-0.03,0.6-0.03,0.9-0.03c37.32,0,71.22,14.64,96.27,38.52"/>
		<path fill="none" stroke="#231F20" stroke-width="3" stroke-miterlimit="10" d="M146.94,149.22c0.06-0.09,0.15-0.18,0.24-0.27
			c0.39-0.39,0.78-0.78,1.2-1.17"/>
		<path fill="none" stroke="#231F20" stroke-width="3" stroke-miterlimit="10" d="M146.01,345.06
			c-24.54-25.08-39.69-59.46-39.72-97.32c0-0.03,0-0.09,0-0.12c0-37.35,14.67-71.22,38.55-96.27"/>
		<path fill="none" stroke="#231F20" stroke-width="3" stroke-miterlimit="10" d="M342.15,348.6
			c-25.05,23.851-58.98,38.521-96.3,38.521c-0.3,0-0.6,0-0.9,0c-36.99-0.24-70.53-14.851-95.37-38.521"/>
		<path fill="none" stroke="#231F20" stroke-width="3" stroke-miterlimit="10" d="M443.13,247.62l-40.949,40.95l-16.801,16.8
			l-40.26,40.29c-0.6,0.6-1.2,1.17-1.77,1.74c-0.391,0.39-0.78,0.779-1.2,1.199l-40.32,40.351l-15.87,15.84l-40.08,40.11
			l-0.93-0.931l-39.42-39.39l-15.63-15.63L149.58,348.6c-0.15-0.149-0.3-0.27-0.42-0.39c-1.08-1.05-2.13-2.07-3.15-3.15
			l-39.72-39.689v-0.03L89.1,288.15l-40.56-40.53l40.95-40.95l16.8-16.77v-0.03l38.55-38.52c0.66-0.72,1.35-1.44,2.1-2.13l1.44-1.44
			c0.39-0.39,0.78-0.78,1.2-1.17l39.54-39.57l15.66-15.66l40.17-40.17l0.9-0.9l40.35,40.35l16.38,16.38l39.54,39.57
			c0.21,0.21,0.42,0.42,0.63,0.6l3.51,3.54c0.211,0.21,0.391,0.39,0.601,0.6l38.52,38.52l16.801,16.77L443.13,247.62z"/>
		<polyline fill="none" stroke="#231F20" stroke-width="3" stroke-miterlimit="10" points="145.53,147.78 106.29,108.57 11.1,13.41 
			9.69,12 		"/>
		<path fill="none" stroke="#231F20" stroke-width="3" stroke-miterlimit="10" d="M481.95,482.79l-1.2-1.17c0-0.03,0-0.03,0-0.03
			l-95.37-93.12L343.351,347.4"/>
		<polyline fill="none" stroke="#231F20" stroke-width="3" stroke-miterlimit="10" points="9.69,482.79 10.38,482.13 10.92,481.62 
			12.96,479.64 106.95,388.95 149.16,348.21 		"/>
		<polyline fill="none" stroke="#231F20" stroke-width="3" stroke-miterlimit="10" points="345.63,148.29 385.38,108.57 
			385.38,108.54 480.54,13.41 481.95,12 		"/>
		<polyline fill="none" stroke="#231F20" stroke-width="3" stroke-miterlimit="10" points="244.95,359.46 244.95,387.12 
			244.95,388.17 244.95,388.95 244.95,443.97 244.95,444.9 		"/>
		<polyline fill="none" stroke="#231F20" stroke-width="3" stroke-miterlimit="10" points="244.95,50.31 244.95,51.21 
			244.95,107.04 244.95,107.73 244.95,108.12 244.95,137.19 244.95,140.13 		"/>
		<path fill="none" stroke="#231F20" stroke-width="3" stroke-miterlimit="10" d="M357.36,247.62
			c0,60.99-49.44,110.43-110.43,110.43c-0.66,0-1.29,0-1.95-0.03C184.89,357,136.5,307.95,136.5,247.62s48.36-109.38,108.45-110.43
			c0.66-0.03,1.32-0.03,1.98-0.03C307.92,137.16,357.36,186.63,357.36,247.62z"/>
		<polyline fill="none" stroke="#231F20" stroke-width="3" stroke-miterlimit="10" points="358.11,247.62 385.38,247.62 
			443.13,247.62 		"/>
		<polyline fill="none" stroke="#231F20" stroke-width="3" stroke-miterlimit="10" points="48.54,247.62 105.21,247.62 
			106.29,247.62 136.5,247.62 		"/>
		<polyline fill="none" stroke="#231F20" stroke-width="3" stroke-miterlimit="10" points="9.69,12 10.53,14.07 89.49,206.67 
			106.29,247.62 		"/>
		<polyline fill="none" stroke="#231F20" stroke-width="3" stroke-miterlimit="10" points="9.69,12 11.67,12.81 204.78,91.38 
			243.27,107.04 244.95,107.73 245.85,108.09 		"/>
		<polyline fill="none" stroke="#231F20" stroke-width="3" stroke-miterlimit="10" points="245.85,107.07 245.91,107.04 
			245.94,107.04 286.2,90.66 479.28,12.06 481.95,10.98 		"/>
		<polyline fill="none" stroke="#231F20" stroke-width="3" stroke-miterlimit="10" points="481.95,12 481.11,14.04 402.181,206.64 
			385.38,247.62 		"/>
		<polyline fill="none" stroke="#231F20" stroke-width="3" stroke-miterlimit="10" points="385.38,247.62 402.181,288.57 
			481.23,481.05 481.95,482.79 		"/>
		<polyline fill="none" stroke="#231F20" stroke-width="3" stroke-miterlimit="10" points="105.21,247.62 89.1,288.15 12.96,479.64 
			12.27,481.38 11.79,482.55 11.7,482.79 		"/>
		<polyline fill="none" stroke="#231F20" stroke-width="3" stroke-miterlimit="10" points="8.7,482.79 10.38,482.13 11.13,481.83 
			12.27,481.38 205.53,404.58 244.86,388.95 		"/>
		<polyline fill="none" stroke="#231F20" stroke-width="3" stroke-miterlimit="10" points="244.86,388.14 244.95,388.17 
			246.87,388.95 285.96,404.79 479.28,483.12 480.96,483.81 		"/>
		<path fill="none" stroke="#FFFFFF" stroke-width="3" stroke-miterlimit="10" d="M334.38,247.59c0,48.3-39.149,87.45-87.45,87.45
			c-48.27,0-87.42-39.15-87.42-87.45c0-48.27,39.15-87.42,87.42-87.42C295.23,160.17,334.38,199.32,334.38,247.59z"/>
		<path fill="none" stroke="#000000" stroke-width="3" stroke-linecap="round" stroke-linejoin="round" d="M316.681,247.59
			c0,38.58-31.261,69.811-69.811,69.811s-69.81-31.23-69.81-69.811c0-38.55,31.26-69.78,69.81-69.78S316.681,209.04,316.681,247.59z
			"/>
	</g>
</g>
</svg>
