<?xml version="1.0" encoding="utf-8"?>
<!-- Generator: Adobe Illustrator 15.0.2, SVG Export Plug-In  -->
<!DOCTYPE svg PUBLIC "-//W3C//DTD SVG 1.1//EN" "http://www.w3.org/Graphics/SVG/1.1/DTD/svg11.dtd" [
	<!ENTITY ns_flows "http://ns.adobe.com/Flows/1.0/">
]>
<svg version="1.1"
	 xmlns="http://www.w3.org/2000/svg" xmlns:xlink="http://www.w3.org/1999/xlink" xmlns:a="http://ns.adobe.com/AdobeSVGViewerExtensions/3.0/"
	 x="0px" y="0px" width="497px" height="503px" viewBox="-3.047 -4.635 497 503"
	 overflow="visible" enable-background="new -3.047 -4.635 497 503" xml:space="preserve">
<defs>
</defs>
<g id="XMLID_1_">
	<g>
		<path fill="#2E3191" d="M483.3,16.8c4.319,6.03,6.87,13.44,6.87,21.45v418.71c0,9.81-3.811,18.72-10.051,25.32
			c0-0.301-0.029-0.63-0.029-1.051c-0.48-11.79-4.2-68.13-33.84-122.31c18.359-32.94,28.8-70.92,28.8-111.33
			c0-39.21-9.84-76.11-27.21-108.39c31.89-60.06,32.43-121.77,32.43-121.77l-0.3-0.3l0.27-0.27h0.03c0.99-0.03,2.01-0.03,3-0.03
			L483.3,16.8z"/>
		<path fill="#EBB4D2" d="M480.27,17.43c0,0-0.54,61.71-32.43,121.77c-10.23-19.02-23.04-36.42-38.04-51.72l70.17-70.35
			L480.27,17.43z"/>
		<path fill="#EC228F" d="M480.24,16.86l-0.27,0.27L409.8,87.48c-15.181-15.57-32.58-28.98-51.69-39.72
			C389.1,29.34,428.97,17.31,480.24,16.86z"/>
		<path fill="#2E3191" d="M480.09,481.229c0,0.421,0.029,0.75,0.029,1.051c-6.659,7.02-16.02,11.399-26.43,11.399H37.98
			c-6.45,0-12.48-1.68-17.73-4.649c15.12-0.78,70.74-5.7,123.03-36.42c30.84,15.479,65.7,24.18,102.57,24.18
			c40.11,0,77.85-10.32,110.64-28.44c59.34,32.49,120.75,33.03,120.75,33.03l1.5-1.5L480.09,481.229z"/>
		<path fill="#EC228F" d="M480.09,481.229l-1.351-1.35l-70.529-70.5c14.88-14.94,27.689-31.89,38.04-50.46
			C475.89,413.1,479.61,469.439,480.09,481.229z"/>
		<path fill="#EBB4D2" d="M478.74,479.88l-1.5,1.5c0,0-61.41-0.54-120.75-33.03c19.08-10.529,36.48-23.67,51.721-38.97
			L478.74,479.88z"/>
		<path fill="#00AC4D" d="M447.84,139.2c17.37,32.28,27.21,69.18,27.21,108.39c0,40.41-10.44,78.39-28.8,111.33
			c-18.33-33.51-46.62-66.21-90.181-87.03c1.71-7.83,2.61-15.96,2.61-24.3c0-6.48-0.54-12.87-1.62-19.05
			C401.31,207.15,429.66,173.43,447.84,139.2z"/>
		<path fill="#EC0D6B" d="M409.8,87.48c15,15.3,27.81,32.7,38.04,51.72c-18.181,34.23-46.53,67.95-90.78,89.34
			c-3.81-22.56-14.34-42.81-29.46-58.68L409.8,87.48z"/>
		<path fill="#F497AC" d="M446.25,358.92c-10.351,18.57-23.16,35.52-38.04,50.46l-82.29-82.29c14.79-14.91,25.47-33.93,30.149-55.2
			C399.63,292.71,427.92,325.41,446.25,358.92z"/>
		<path fill="#F497AC" d="M358.11,47.76c19.11,10.74,36.51,24.15,51.69,39.72l-82.2,82.38c-13.59-14.34-30.96-25.08-50.46-30.69
			C293.041,105.6,318.24,71.43,358.11,47.76z"/>
		<path fill="#EC0D6B" d="M325.92,327.09l82.29,82.29c-15.24,15.3-32.641,28.44-51.721,38.97
			c-33.3-18.239-65.97-46.529-86.729-90.42C291.45,353.22,310.83,342.3,325.92,327.09z"/>
		<path fill="#EBE60E" d="M357.06,228.54c1.08,6.18,1.62,12.57,1.62,19.05c0,8.34-0.9,16.47-2.61,24.3
			c-23.16-11.04-50.64-18.75-83.25-21.45C305.91,247.74,333.69,239.85,357.06,228.54z"/>
		<path fill="#E590BD" d="M327.6,169.86c15.12,15.87,25.65,36.12,29.46,58.68c-23.37,11.31-51.15,19.2-84.24,21.899
			c-0.029,0-0.06,0-0.09,0c-7.38-0.6-15.03-0.96-22.95-1.02c0.03-0.45,0.03-0.99,0.09-1.62L327.6,169.86z"/>
		<path fill="#E03191" d="M327.6,169.86l-77.73,77.94c0.54-12.39,4.141-59.91,27.271-108.63
			C296.64,144.78,314.01,155.52,327.6,169.86z"/>
		<path fill="#E03191" d="M356.07,271.89c-4.68,21.271-15.359,40.29-30.149,55.2l-75.63-75.63c7.739-0.06,15.21-0.42,22.439-1.021
			c0.03,0,0.061,0,0.09,0C305.43,253.14,332.91,260.85,356.07,271.89z"/>
		<path fill="#E590BD" d="M250.291,251.46l75.63,75.63c-15.091,15.21-34.471,26.13-56.16,30.84
			c-13.021-27.51-21.391-61.14-22.32-102.27c-0.03-1.38-0.06-2.76-0.06-4.17C248.37,251.49,249.33,251.49,250.291,251.46z"/>
		<path fill="#6FBD44" d="M358.11,47.76c-39.87,23.67-65.069,57.84-80.97,91.41c-9.93-2.88-20.43-4.41-31.29-4.41
			c-9.6,0-18.93,1.2-27.81,3.45c-16.5-33.78-42.57-67.86-83.61-90.96c32.97-18.39,70.98-28.86,111.42-28.86
			C286.62,18.39,324.93,29.04,358.11,47.76z"/>
		<path fill="#6FBD44" d="M269.76,357.93c20.76,43.891,53.43,72.181,86.729,90.42c-32.79,18.12-70.529,28.44-110.64,28.44
			c-36.87,0-71.73-8.7-102.57-24.18c32.79-19.29,64.26-48.75,83.58-93.75c6.18,1.05,12.51,1.59,18.99,1.59
			C254.07,360.45,262.05,359.58,269.76,357.93z"/>
		<path fill="#EBE60E" d="M247.35,248.61l-0.78-0.78c-0.84-14.97-5.22-62.01-28.53-109.62c8.88-2.25,18.21-3.45,27.81-3.45
			c10.86,0,21.36,1.53,31.29,4.41c-23.13,48.72-26.73,96.24-27.271,108.63l-1.59,1.59c-0.029,0-0.06,0-0.09,0L247.35,248.61z"/>
		<path fill="#EBE60E" d="M269.76,357.93c-7.71,1.65-15.69,2.521-23.91,2.521c-6.48,0-12.81-0.54-18.99-1.59
			c12-27.96,19.29-61.921,19.29-103.171l1.29-0.029C248.37,296.79,256.74,330.42,269.76,357.93z"/>
		<path fill="#E03191" d="M246.57,247.83c0.03,0.81,0.06,1.5,0.09,2.1c-6.15,0.03-12.12,0.271-17.94,0.63h-0.03
			c-37.41-1.71-68.4-9.81-94.08-22.02c3.9-23.07,14.82-43.74,30.48-59.73L246.57,247.83z"/>
		<path fill="#E590BD" d="M246.57,247.83l-81.48-79.02c14.28-14.64,32.49-25.41,52.95-30.6
			C241.35,185.82,245.73,232.86,246.57,247.83z"/>
		<path fill="#E590BD" d="M247.35,250.32c0,0.39,0,0.779,0.03,1.17c0,1.41,0.029,2.79,0.06,4.17l-1.29,0.029l-75.18,76.351
			c-16.89-15-29.25-34.95-34.77-57.601c25.17-12.75,55.65-21.449,92.49-23.88h0.03c5.82-0.359,11.79-0.6,17.94-0.63
			c0.24-0.029,0.45-0.029,0.69-0.029C247.35,250.05,247.35,250.17,247.35,250.32z"/>
		<path fill="#E03191" d="M170.97,332.04l75.18-76.351c0,41.25-7.29,75.211-19.29,103.171
			C205.62,355.26,186.39,345.72,170.97,332.04z"/>
		<path fill="#EC0D6B" d="M134.43,47.25c41.04,23.1,67.11,57.18,83.61,90.96c-20.46,5.19-38.67,15.96-52.95,30.6L81.57,87.78
			C97.05,71.85,114.84,58.14,134.43,47.25z"/>
		<path fill="#F497AC" d="M170.97,332.04c15.42,13.68,34.65,23.22,55.89,26.82c-19.32,45-50.79,74.46-83.58,93.75
			c-19.83-9.9-37.98-22.62-54-37.591L170.97,332.04z"/>
		<path fill="#EC0D6B" d="M170.97,332.04L89.28,415.02c-16.11-15.09-30.03-32.43-41.25-51.569c17.7-33.84,45.24-67.261,88.17-89.011
			C141.72,297.09,154.08,317.04,170.97,332.04z"/>
		<path fill="#F497AC" d="M81.57,87.78l83.52,81.03c-15.66,15.99-26.58,36.66-30.48,59.73c-44.31-21.09-72.84-54.48-91.2-88.53
			C53.61,120.81,66.51,103.23,81.57,87.78z"/>
		<path fill="#EBE60E" d="M228.69,250.56c-36.84,2.431-67.32,11.13-92.49,23.88c-2.1-8.609-3.21-17.609-3.21-26.85
			c0-6.48,0.54-12.87,1.62-19.05C160.29,240.75,191.28,248.85,228.69,250.56z"/>
		<path fill="#EC228F" d="M143.28,452.61c-52.29,30.72-107.91,35.64-123.03,36.42h-0.03c-0.81-0.42-1.59-0.931-2.37-1.44
			l71.43-72.57C105.3,429.99,123.45,442.71,143.28,452.61z"/>
		<path fill="#00AC4D" d="M134.61,228.54c-1.08,6.18-1.62,12.57-1.62,19.05c0,9.24,1.11,18.24,3.21,26.85
			c-42.93,21.75-70.47,55.171-88.17,89.011c-19.98-33.99-31.41-73.59-31.41-115.86c0-38.88,9.69-75.51,26.79-107.58
			C61.77,174.06,90.3,207.45,134.61,228.54z"/>
		<path fill="#EBB4D2" d="M134.43,47.25c-19.59,10.89-37.38,24.6-52.86,40.53L11.82,20.13l1.44-1.5
			C63.81,18.63,103.41,29.79,134.43,47.25z"/>
		<path fill="#EBB4D2" d="M89.28,415.02l-71.43,72.57c-1.56-1.02-3.03-2.189-4.41-3.45l2.82-0.149c0,0,0.54-60.9,31.77-120.54
			C59.25,382.59,73.17,399.93,89.28,415.02z"/>
		<path fill="#2E3191" d="M8.73,16.26C15.39,7.32,26.01,1.5,37.98,1.5h415.71c12.21,0,23.01,6.03,29.61,15.3l-0.03,0.03
			c-0.99,0-2.01,0-3,0.03h-0.03c-51.27,0.45-91.14,12.48-122.13,30.9c-33.18-18.72-71.49-29.37-112.26-29.37
			c-40.44,0-78.45,10.47-111.42,28.86C103.41,29.79,63.81,18.63,13.26,18.63l-1.44,1.5l-1.5-1.44c-0.06-1.23-0.06-1.86-0.06-1.86
			L8.73,16.26z"/>
		<path fill="#EC228F" d="M10.32,18.69l1.5,1.44l69.75,67.65c-15.06,15.45-27.96,33.03-38.16,52.23
			C14.1,85.65,10.71,29.49,10.32,18.69z"/>
		<path fill="#2E3191" d="M48.03,363.45C16.8,423.09,16.26,483.99,16.26,483.99l-2.82,0.149c-7.32-6.72-11.94-16.41-11.94-27.18
			V38.25c0-8.25,2.7-15.84,7.23-21.99l1.53,0.57c0,0,0,0.63,0.06,1.86c0.39,10.8,3.78,66.96,33.09,121.32
			c-17.1,32.07-26.79,68.7-26.79,107.58C16.62,289.86,28.05,329.46,48.03,363.45z"/>
	</g>
	<g>
		<path fill="none" stroke="#231F20" stroke-width="3" stroke-miterlimit="10" d="M20.22,489.03c-0.81-0.42-1.59-0.931-2.37-1.44
			c-1.56-1.02-3.03-2.189-4.41-3.45c-7.32-6.72-11.94-16.41-11.94-27.18V38.25c0-8.25,2.7-15.84,7.23-21.99
			C15.39,7.32,26.01,1.5,37.98,1.5h415.71c12.21,0,23.01,6.03,29.61,15.3c4.319,6.03,6.87,13.44,6.87,21.45v418.71
			c0,9.81-3.811,18.72-10.051,25.32c-6.659,7.02-16.02,11.399-26.43,11.399H37.98c-6.45,0-12.48-1.68-17.73-4.649"/>
		<path fill="none" stroke="#231F20" stroke-width="3" stroke-miterlimit="10" d="M357.06,228.54c1.08,6.18,1.62,12.57,1.62,19.05
			c0,8.34-0.9,16.47-2.61,24.3c-4.68,21.271-15.359,40.29-30.149,55.2c-15.091,15.21-34.471,26.13-56.16,30.84
			c-7.71,1.65-15.69,2.521-23.91,2.521c-6.48,0-12.81-0.54-18.99-1.59c-21.24-3.601-40.47-13.141-55.89-26.82
			c-16.89-15-29.25-34.95-34.77-57.601c-2.1-8.609-3.21-17.609-3.21-26.85c0-6.48,0.54-12.87,1.62-19.05
			c3.9-23.07,14.82-43.74,30.48-59.73c14.28-14.64,32.49-25.41,52.95-30.6c8.88-2.25,18.21-3.45,27.81-3.45
			c10.86,0,21.36,1.53,31.29,4.41c19.5,5.61,36.87,16.35,50.46,30.69C342.72,185.73,353.25,205.98,357.06,228.54z"/>
		<path fill="none" stroke="#231F20" stroke-width="3" stroke-miterlimit="10" d="M447.84,139.2
			c17.37,32.28,27.21,69.18,27.21,108.39c0,40.41-10.44,78.39-28.8,111.33c-10.351,18.57-23.16,35.52-38.04,50.46
			c-15.24,15.3-32.641,28.44-51.721,38.97c-32.79,18.12-70.529,28.44-110.64,28.44c-36.87,0-71.73-8.7-102.57-24.18
			c-19.83-9.9-37.98-22.62-54-37.591c-16.11-15.09-30.03-32.43-41.25-51.569c-19.98-33.99-31.41-73.59-31.41-115.86
			c0-38.88,9.69-75.51,26.79-107.58c10.2-19.2,23.1-36.78,38.16-52.23c15.48-15.93,33.27-29.64,52.86-40.53
			c32.97-18.39,70.98-28.86,111.42-28.86c40.77,0,79.08,10.65,112.26,29.37c19.11,10.74,36.51,24.15,51.69,39.72
			C424.8,102.78,437.61,120.18,447.84,139.2z"/>
		<path fill="none" stroke="#231F20" stroke-width="3" stroke-miterlimit="10" d="M480.24,16.86
			c-51.27,0.45-91.14,12.48-122.13,30.9c-39.87,23.67-65.069,57.84-80.97,91.41c-23.13,48.72-26.73,96.24-27.271,108.63
			c-0.06,0.63-0.06,1.17-0.09,1.62c-0.029,0.99-0.029,1.5-0.029,1.5"/>
		<path fill="none" stroke="#231F20" stroke-width="3" stroke-miterlimit="10" d="M483.27,16.83c-0.99,0-2.01,0-3,0.03"/>
		<path fill="none" stroke="#231F20" stroke-width="3" stroke-miterlimit="10" d="M477.24,481.38c0,0-61.41-0.54-120.75-33.03
			c-33.3-18.239-65.97-46.529-86.729-90.42c-13.021-27.51-21.391-61.14-22.32-102.27c-0.03-1.38-0.06-2.76-0.06-4.17
			c-0.03-0.391-0.03-0.78-0.03-1.17c0-0.15,0-0.271,0-0.42c0-0.15,0-0.33,0-0.511c0-0.239,0-0.51,0-0.779c0-0.24,0-0.48,0-0.72"/>
		<path fill="none" stroke="#231F20" stroke-width="3" stroke-miterlimit="10" d="M246.75,252.72c0,0,0-0.96-0.09-2.79
			c-0.03-0.6-0.06-1.29-0.09-2.1c-0.84-14.97-5.22-62.01-28.53-109.62c-16.5-33.78-42.57-67.86-83.61-90.96
			C103.41,29.79,63.81,18.63,13.26,18.63"/>
		<path fill="none" stroke="#231F20" stroke-width="3" stroke-miterlimit="10" d="M16.26,489.18c0,0,1.38,0,3.96-0.149h0.03
			c15.12-0.78,70.74-5.7,123.03-36.42c32.79-19.29,64.26-48.75,83.58-93.75c12-27.96,19.29-61.921,19.29-103.171"/>
		<polyline fill="none" stroke="#231F20" stroke-width="3" stroke-miterlimit="10" points="246.75,250.92 247.35,250.32 
			247.77,249.9 248.22,249.45 248.28,249.39 249.87,247.8 327.6,169.86 409.8,87.48 479.97,17.13 480.24,16.86 480.27,16.86 
			480.27,16.83 		"/>
		<polyline fill="none" stroke="#231F20" stroke-width="3" stroke-miterlimit="10" points="249.75,250.92 248.7,249.9 
			248.22,249.45 248.19,249.39 247.35,248.61 246.57,247.83 165.09,168.81 81.57,87.78 11.82,20.13 10.32,18.69 10.26,18.63 		"/>
		<polyline fill="none" stroke="#231F20" stroke-width="3" stroke-miterlimit="10" points="246.15,255.689 170.97,332.04 
			89.28,415.02 17.85,487.59 16.26,489.18 		"/>
		<polyline fill="none" stroke="#231F20" stroke-width="3" stroke-miterlimit="10" points="249.75,250.92 250.291,251.46 
			325.92,327.09 408.21,409.38 478.74,479.88 480.09,481.229 480.24,481.38 		"/>
		<path fill="none" stroke="#231F20" stroke-width="3" stroke-miterlimit="10" d="M272.73,250.439
			c-7.229,0.601-14.7,0.961-22.439,1.021c-0.961,0.03-1.921,0.03-2.91,0.03c-0.21,0-0.42,0-0.63,0"/>
		<path fill="none" stroke="#231F20" stroke-width="3" stroke-miterlimit="10" d="M480.27,17.43c0,0-0.54,61.71-32.43,121.77
			c-18.181,34.23-46.53,67.95-90.78,89.34c-23.37,11.31-51.15,19.2-84.24,21.899"/>
		<path fill="none" stroke="#231F20" stroke-width="3" stroke-miterlimit="10" d="M228.72,250.56c4.89,0.24,9.9,0.36,15.03,0.36"/>
		<path fill="none" stroke="#231F20" stroke-width="3" stroke-miterlimit="10" d="M10.26,16.83c0,0,0,0.63,0.06,1.86
			c0.39,10.8,3.78,66.96,33.09,121.32c18.36,34.05,46.89,67.44,91.2,88.53c25.68,12.21,56.67,20.31,94.08,22.02"/>
		<path fill="none" stroke="#231F20" stroke-width="3" stroke-miterlimit="10" d="M16.26,483.99c0,0,0.54-60.9,31.77-120.54
			c17.7-33.84,45.24-67.261,88.17-89.011c25.17-12.75,55.65-21.449,92.49-23.88h0.03c5.82-0.359,11.79-0.6,17.94-0.63
			c0.24-0.029,0.45-0.029,0.69-0.029c0.15,0,0.27,0,0.42,0c0.3,0,0.6,0,0.93,0s0.69,0,1.051,0"/>
		<path fill="none" stroke="#231F20" stroke-width="3" stroke-miterlimit="10" d="M480.15,483.479c0,0,0-0.42-0.03-1.199
			c0-0.301-0.029-0.63-0.029-1.051c-0.48-11.79-4.2-68.13-33.84-122.31c-18.33-33.51-46.62-66.21-90.181-87.03
			c-23.16-11.04-50.64-18.75-83.25-21.45c-0.029,0-0.06,0-0.09,0c-7.38-0.6-15.03-0.96-22.95-1.02c-0.479-0.03-0.989-0.03-1.5-0.03
			c-0.029,0-0.06,0-0.09,0c-0.27,0-0.54,0-0.84,0c-0.24,0-0.45,0-0.69,0"/>
	</g>
</g>
</svg>
