<?xml version="1.0" encoding="utf-8"?>
<!-- Generator: Adobe Illustrator 15.0.2, SVG Export Plug-In  -->
<!DOCTYPE svg PUBLIC "-//W3C//DTD SVG 1.1//EN" "http://www.w3.org/Graphics/SVG/1.1/DTD/svg11.dtd" [
	<!ENTITY ns_flows "http://ns.adobe.com/Flows/1.0/">
]>
<svg version="1.1"
	 xmlns="http://www.w3.org/2000/svg" xmlns:xlink="http://www.w3.org/1999/xlink" xmlns:a="http://ns.adobe.com/AdobeSVGViewerExtensions/3.0/"
	 x="0px" y="0px" width="350px" height="127px" viewBox="-9.589 -1.75 350 127"
	 overflow="visible" enable-background="new -9.589 -1.75 350 127" xml:space="preserve">
<defs>
</defs>
<circle fill="#ED2924" cx="35.18" cy="77.54" r="35.179"/>
<ellipse fill="#9C1C20" cx="37.125" cy="77.573" rx="24.24" ry="25.365"/>
<ellipse fill="#630C0D" cx="32.268" cy="75.133" rx="19.381" ry="20.196"/>
<circle fill="#F7E3E3" cx="19.521" cy="62.502" r="9.821"/>
<path fill="#00B5BC" d="M202.748,21.771c19.324-8.644,46.428,3.749,56.713,26.743c10.283,22.995,26.795,50.545,7.469,59.19
	c-19.326,8.643-44.318-0.402-54.604-23.395C202.043,61.315,183.422,30.415,202.748,21.771z"/>
<path fill="#3D54A4" d="M208.24,52.16c6.223-2.783,41.789,32.587,46.746,43.667c4.955,11.078-3.039,6.607-16.594,4.93
	c-6.766-0.836-15.283-3.941-20.238-15.021C213.197,74.655,202.02,54.942,208.24,52.16z"/>
<path fill="#F3FAFC" d="M210.867,55.072c3.525-1.577,2.193-10.954,0.426-14.903c-1.766-3.95-5.078-6.312-8.605-4.734
	c-3.525,1.577-2.984,7.833-1.217,11.783C203.236,51.167,207.34,56.65,210.867,55.072z"/>
<path fill="#1C3664" d="M260.168,78.284c-6.223,2.783-41.789-32.587-46.746-43.667c-4.955-11.08,3.039-6.608,16.594-4.931
	c6.764,0.836,15.285,3.943,20.24,15.022S266.389,75.5,260.168,78.284z"/>
<path fill="#4169B1" d="M218.543,25.207c0,0,19.648,4.29,26.449,11.875c6.803,7.583,10.59,15.289,14.398,23.804
	c3.809,8.514,14.52,28.652,11.275,36.643c-3.246,7.992-6.758,5.475-13.639,6.102c-6.879,0.623,17.912-1.881,1.402-29.645
	c-16.508-27.765-11.473-21.843-18.568-23.983c-7.094-2.14-14.084-28.439-12.941-6.063c1.145,22.375-8.576-26.073-20.273-13.41
	C193.99,44.23,200.496,16.114,218.543,25.207z"/>
<g id="XMLID_3_">
	<g>
		<path fill="#007647" d="M169.548,40.908c-5.881-7.669-9.582-12.389-1.47-12.389c16.542,0,29.95,19.641,29.95,43.879
			c0,24.229-28.628,57.448-35.011,40.52c-6.391-16.937-4.706-23.222-0.222-25.95c2.719,3.99,6.257,6.392,10.121,6.392
			c8.592,0,15.559-11.882,15.559-26.541s-6.966-26.541-15.559-26.541C171.757,40.277,170.634,40.49,169.548,40.908z"/>
		<path fill="#00A551" d="M135.616,72.398c0-27.343,14.635-49.508,32.691-49.508s32.691,22.165,32.691,49.508
			c0,27.344-14.635,49.509-32.691,49.509S135.616,99.742,135.616,72.398z M168.078,28.519c-8.112,0-4.411,4.72,1.47,12.389
			c-2.889,1.082-5.475,3.532-7.513,6.94c0.207-0.77,0.317-1.582,0.317-2.425c0-4.753-3.479-8.604-7.772-8.604
			c-4.285,0-7.765,3.851-7.765,8.604c0,4.752,3.48,8.604,7.765,8.604c2.283,0,4.329-1.09,5.755-2.819
			c-1.869,4.376-2.978,9.767-2.978,15.61c0,8.063,2.105,15.282,5.438,20.149c-4.484,2.729-6.169,9.014,0.222,25.95
			c6.383,16.929,35.011-16.29,35.011-40.52C198.028,48.16,184.62,28.519,168.078,28.519z"/>
		<path fill="#FFFFFF" d="M146.816,45.423c0-4.753,3.48-8.604,7.765-8.604c4.292,0,7.772,3.851,7.772,8.604
			c0,0.844-0.111,1.655-0.317,2.425c-0.613,1.024-1.182,2.147-1.692,3.343c0,0-0.007,0.008-0.007,0.016
			c-1.426,1.729-3.473,2.819-5.755,2.819C150.296,54.027,146.816,50.176,146.816,45.423z"/>
		<path fill="#27503E" d="M169.548,40.908c1.086-0.418,2.209-0.631,3.369-0.631c8.592,0,15.559,11.881,15.559,26.541
			s-6.966,26.541-15.559,26.541c-3.864,0-7.402-2.401-10.121-6.392c7.129-4.352,21.336,0.312,21.336-14.569
			C184.132,60.042,175.658,48.881,169.548,40.908z"/>
		<path fill="#004923" d="M162.035,47.849c2.039-3.409,4.625-5.859,7.513-6.94c6.11,7.973,14.583,19.133,14.583,31.49
			c0,14.881-14.207,10.218-21.336,14.569c-3.332-4.867-5.438-12.086-5.438-20.149c0-5.843,1.108-11.234,2.978-15.61
			c0-0.008,0.007-0.016,0.007-0.016C161.119,50.241,161.703,49.11,162.035,47.849z"/>
	</g>
	<g>
	</g>
</g>
<g id="XMLID_2_">
	<g>
		<path fill="#AF6FAD" d="M260.526,4.398l14.187-4.148c6.037,0,42.999,34.06,42.999,38.488l3.942,16.452l-1.803,0.234
			c-4.607-18.516-26.234-40.706-36.352-40.706c-4.98,0-4.734,3.981-2.886,10.086c-2.286-3.019-5.664-4.81-9.789-4.81
			c-7.959,0-6.912,13.473,2.695,24.154c7.394,8.216,5.991,7.481,13.95,7.481c0.127,0,0.246,0,0.364-0.007
			c0.091,1.055,0.137,2.118,0.137,3.173c0,8.904,5.582,20.113,12.721,29.618c8.368,11.142,18.858,19.932,24.987,19.932
			c4.252,0,4.626-3.219,3.433-8.256l2.276-0.294l2.04,8.49c0,4.429-4.89,8.016-10.928,8.016l-23.538-6.573
			c-6.028,0-27.082-36.471-27.082-40.899l-18.712-39.457C253.168,20.943,254.489,4.398,260.526,4.398z"/>
		<path fill="#652D90" d="M280.614,24.804c-1.849-6.105-2.095-10.086,2.886-10.086c10.117,0,31.744,22.19,36.352,40.706
			c0.564,2.271,0.874,4.489,0.874,6.606c0,12.104,6.393,25.63,8.387,34.06c1.193,5.037,0.819,8.256-3.433,8.256
			c-6.129,0-16.619-8.79-24.987-19.932l0.574-0.233c3.533,4.595,6.966,6.252,7.385,6.252c6.119,0-1.539-12.505-1.539-31.281
			c0-18.783-16.928-37.032-23.047-37.032c-2.141,0-1.676,1.763-0.164,4.856l-1.712,0.461
			C281.743,26.481,281.215,25.599,280.614,24.804z"/>
		<path fill="#352063" d="M283.901,26.975c-1.512-3.093-1.977-4.856,0.164-4.856c6.119,0,23.047,18.249,23.047,37.032
			c0,18.776,7.658,31.281,1.539,31.281c-0.419,0-3.852-1.657-7.385-6.252c-4.007-5.217-8.142-14.215-8.142-28.883
			c0-1.81-0.136-3.58-0.4-5.297C291.305,40.114,286.287,31.871,283.901,26.975z"/>
		<path fill="#FFFFFF" d="M270.825,19.995c4.125,0,7.503,1.791,9.789,4.81c0.855,2.852,2.066,6.179,3.26,9.772
			c0.036,0.427,0.045,0.862,0.045,1.302c0,3.093,1.293,5.885,2.705,8.223c0.573,2.479,1.001,5.003,1.211,7.521
			c-0.118,0.007-0.237,0.007-0.364,0.007c-7.959,0-6.557,0.735-13.95-7.481C263.913,33.468,262.866,19.995,270.825,19.995z"/>
		<path fill="#FFFFFF" d="M280.614,24.804c0.601,0.795,1.129,1.677,1.575,2.632c0.965,2.064,1.548,4.482,1.685,7.141
			C282.681,30.983,281.47,27.656,280.614,24.804z"/>
		<path fill="#652D90" d="M282.189,27.436l1.712-0.461c2.386,4.896,7.403,13.139,8.823,23.025l-2.468,0.18
			c-0.2-1.289-1.994-3.387-3.633-6.079c-0.756-3.293-1.739-6.506-2.75-9.525C283.737,31.918,283.154,29.5,282.189,27.436z"/>
		<path fill="#AF6FAD" d="M283.919,35.879c0-0.44-0.009-0.875-0.045-1.302c1.011,3.019,1.994,6.232,2.75,9.525
			C285.212,41.764,283.919,38.972,283.919,35.879z"/>
		<path fill="#FFFFFF" d="M286.624,44.102c1.639,2.692,3.433,4.79,3.633,6.079c0.137,0.882-0.482,1.39-2.422,1.443
			C287.625,49.105,287.197,46.58,286.624,44.102z"/>
		<path fill="#652D90" d="M290.257,50.18l2.468-0.18c0.265,1.717,0.4,3.487,0.4,5.297c0,14.668,4.135,23.667,8.142,28.883
			l-0.574,0.233c-7.139-9.505-12.721-20.714-12.721-29.618c0-1.055-0.046-2.118-0.137-3.173
			C289.774,51.57,290.394,51.062,290.257,50.18z"/>
		<path fill="#AF6FAD" d="M319.852,55.424l1.803-0.234l9.734,40.605l-2.276,0.294c-1.994-8.43-8.387-21.956-8.387-34.06
			C320.726,59.913,320.416,57.695,319.852,55.424z"/>
	</g>
	<g>
	</g>
</g>
<g id="XMLID_1_">
	<g>
		<path fill="#FAAF40" d="M105.153,31.634c-4.684-8.786-7.652-14.208,0.748-12.669c17.127,3.137,27.414,25.322,22.974,49.562
			c-4.438,24.231-40.166,52.021-43.674,33.881c-3.515-18.149-0.619-24.115,4.524-25.993c2.085,4.498,5.309,7.578,9.31,8.312
			c8.896,1.629,18.287-8.932,20.972-23.592c2.685-14.659-2.352-27.863-11.249-29.492C107.556,31.422,106.354,31.422,105.153,31.634z
			"/>
		<path fill="#F9EC31" d="M64.25,56.689c5.009-27.345,24.223-46.735,42.918-43.311c18.696,3.425,29.79,28.366,24.781,55.711
			c-5.009,27.345-24.223,46.735-42.918,43.311S59.242,84.035,64.25,56.689z M105.901,18.965c-8.399-1.539-5.432,3.883-0.748,12.669
			c-3.189,0.534-6.316,2.501-9.043,5.517c0.347-0.733,0.611-1.523,0.765-2.367c0.871-4.753-2.027-9.264-6.471-10.079
			c-4.437-0.812-8.745,2.379-9.616,7.132c-0.871,4.752,2.027,9.264,6.464,10.077c2.363,0.433,4.682-0.269,6.474-1.719
			c-2.745,4.02-4.874,9.211-5.94,15.038c-1.477,8.063-0.619,15.682,1.939,21.182c-5.143,1.878-8.039,7.844-4.524,25.993
			c3.508,18.141,39.236-9.649,43.674-33.881C133.314,44.288,123.028,22.103,105.901,18.965z"/>
		<path fill="#FFFFFF" d="M80.789,31.838c0.871-4.753,5.179-7.944,9.616-7.132c4.444,0.814,7.342,5.326,6.471,10.079
			c-0.154,0.844-0.418,1.634-0.765,2.367c-0.839,0.913-1.634,1.928-2.383,3.036c0,0,0,0-0.001,0.008
			c-1.792,1.451-4.11,2.152-6.474,1.719C82.815,41.102,79.918,36.59,80.789,31.838z"/>
		<path fill="#F6923D" d="M105.153,31.634c1.201-0.212,2.403-0.212,3.604,0.008c8.896,1.629,13.934,14.833,11.249,29.492
			c-2.685,14.66-12.075,25.221-20.972,23.592c-4.001-0.733-7.224-3.813-9.31-8.312c8.179-2.999,22.035,4.357,24.761-10.523
			C116.749,53.534,110.02,40.766,105.153,31.634z"/>
		<path fill="#F2703A" d="M96.11,37.151c2.727-3.016,5.854-4.983,9.043-5.517c4.866,9.132,11.596,21.9,9.333,34.257
			c-2.726,14.881-16.582,7.524-24.761,10.523c-2.558-5.5-3.416-13.118-1.939-21.182c1.067-5.826,3.196-11.018,5.94-15.038
			c0.001-0.008,0.001-0.008,0.001-0.008C94.712,39.385,95.527,38.349,96.11,37.151z"/>
	</g>
	<g>
	</g>
</g>
</svg>
