<?xml version="1.0" encoding="utf-8"?>
<!-- Generator: Adobe Illustrator 15.0.2, SVG Export Plug-In  -->
<!DOCTYPE svg PUBLIC "-//W3C//DTD SVG 1.1//EN" "http://www.w3.org/Graphics/SVG/1.1/DTD/svg11.dtd" [
	<!ENTITY ns_flows "http://ns.adobe.com/Flows/1.0/">
]>
<svg version="1.1"
	 xmlns="http://www.w3.org/2000/svg" xmlns:xlink="http://www.w3.org/1999/xlink" xmlns:a="http://ns.adobe.com/AdobeSVGViewerExtensions/3.0/"
	 x="0px" y="0px" width="350px" height="127px" viewBox="-9.339 -1.75 350 127"
	 overflow="visible" enable-background="new -9.339 -1.75 350 127" xml:space="preserve">
<defs>
</defs>
<circle fill="#ED2924" cx="298.499" cy="77.54" r="35.179"/>
<ellipse fill="#9C1C20" cx="296.554" cy="77.573" rx="24.24" ry="25.365"/>
<ellipse fill="#630C0D" cx="301.411" cy="75.133" rx="19.381" ry="20.196"/>
<circle fill="#F7E3E3" cx="314.157" cy="62.502" r="9.821"/>
<path fill="#00B5BC" d="M130.931,21.771c-19.324-8.644-46.428,3.749-56.713,26.743c-10.283,22.995-26.795,50.545-7.469,59.19
	c19.326,8.643,44.318-0.402,54.604-23.395C131.636,61.315,150.257,30.415,130.931,21.771z"/>
<path fill="#3D54A4" d="M125.438,52.16c-6.223-2.783-41.789,32.587-46.746,43.667c-4.955,11.078,3.039,6.607,16.594,4.93
	c6.766-0.836,15.283-3.941,20.238-15.021C120.481,74.655,131.659,54.942,125.438,52.16z"/>
<path fill="#F3FAFC" d="M122.812,55.072c-3.525-1.577-2.193-10.954-0.426-14.903c1.766-3.95,5.078-6.312,8.605-4.734
	c3.525,1.577,2.984,7.833,1.217,11.783C130.442,51.167,126.339,56.65,122.812,55.072z"/>
<path fill="#1C3664" d="M73.511,78.284c6.223,2.783,41.789-32.587,46.746-43.667c4.955-11.08-3.039-6.608-16.594-4.931
	c-6.764,0.836-15.285,3.943-20.24,15.022S67.29,75.5,73.511,78.284z"/>
<path fill="#4169B1" d="M115.136,25.207c0,0-19.648,4.29-26.449,11.875c-6.803,7.583-10.59,15.289-14.398,23.804
	c-3.809,8.514-14.52,28.652-11.275,36.643c3.246,7.992,6.758,5.475,13.639,6.102c6.879,0.623-17.912-1.881-1.402-29.645
	C91.757,46.22,86.722,52.142,93.817,50.002c7.094-2.14,14.084-28.439,12.941-6.063c-1.145,22.375,8.576-26.073,20.273-13.41
	C139.688,44.23,133.183,16.114,115.136,25.207z"/>
<g id="XMLID_3_">
	<g>
		<path fill="#007647" d="M164.13,40.908c5.881-7.669,9.582-12.389,1.47-12.389c-16.542,0-29.95,19.641-29.95,43.879
			c0,24.229,28.628,57.448,35.011,40.52c6.391-16.937,4.706-23.222,0.222-25.95c-2.719,3.99-6.257,6.392-10.121,6.392
			c-8.592,0-15.559-11.882-15.559-26.541s6.966-26.541,15.559-26.541C161.921,40.277,163.044,40.49,164.13,40.908z"/>
		<path fill="#00A551" d="M198.062,72.398c0-27.343-14.635-49.508-32.691-49.508s-32.691,22.165-32.691,49.508
			c0,27.344,14.635,49.509,32.691,49.509S198.062,99.742,198.062,72.398z M165.601,28.519c8.112,0,4.411,4.72-1.47,12.389
			c2.889,1.082,5.475,3.532,7.513,6.94c-0.207-0.77-0.317-1.582-0.317-2.425c0-4.753,3.479-8.604,7.772-8.604
			c4.285,0,7.765,3.851,7.765,8.604c0,4.752-3.48,8.604-7.765,8.604c-2.283,0-4.329-1.09-5.755-2.819
			c1.869,4.376,2.978,9.767,2.978,15.61c0,8.063-2.105,15.282-5.438,20.149c4.484,2.729,6.169,9.014-0.222,25.95
			c-6.383,16.929-35.011-16.29-35.011-40.52C135.65,48.16,149.059,28.519,165.601,28.519z"/>
		<path fill="#FFFFFF" d="M186.863,45.423c0-4.753-3.48-8.604-7.765-8.604c-4.292,0-7.772,3.851-7.772,8.604
			c0,0.844,0.111,1.655,0.317,2.425c0.613,1.024,1.182,2.147,1.692,3.343c0,0,0.007,0.008,0.007,0.016
			c1.426,1.729,3.473,2.819,5.755,2.819C183.383,54.027,186.863,50.176,186.863,45.423z"/>
		<path fill="#27503E" d="M164.13,40.908c-1.086-0.418-2.209-0.631-3.369-0.631c-8.592,0-15.559,11.881-15.559,26.541
			s6.966,26.541,15.559,26.541c3.864,0,7.402-2.401,10.121-6.392c-7.129-4.352-21.336,0.312-21.336-14.569
			C149.547,60.042,158.021,48.881,164.13,40.908z"/>
		<path fill="#004923" d="M171.644,47.849c-2.039-3.409-4.625-5.859-7.513-6.94c-6.11,7.973-14.583,19.133-14.583,31.49
			c0,14.881,14.207,10.218,21.336,14.569c3.332-4.867,5.438-12.086,5.438-20.149c0-5.843-1.108-11.234-2.978-15.61
			c0-0.008-0.007-0.016-0.007-0.016C172.56,50.241,171.976,49.11,171.644,47.849z"/>
	</g>
	<g>
	</g>
</g>
<g id="XMLID_2_">
	<g>
		<path fill="#352063" d="M49.778,26.975c1.511-3.093,1.976-4.856-0.164-4.856c-6.119,0-23.047,18.249-23.047,37.032
			c0,18.776-7.658,31.281-1.539,31.281c0.419,0,3.852-1.65,7.385-6.252c4.006-5.217,8.141-14.215,8.141-28.883
			c0-1.81,0.137-3.58,0.401-5.297C42.375,40.114,47.392,31.871,49.778,26.975z"/>
		<path fill="#FFFFFF" d="M62.854,19.995c-4.125,0-7.503,1.791-9.789,4.81c-0.856,2.852-2.076,6.179-3.26,9.772
			c-0.037,0.427-0.046,0.862-0.046,1.302c0,3.093-1.293,5.885-2.704,8.223c-0.574,2.479-1.002,5.003-1.211,7.521
			c0.119,0.007,0.237,0.007,0.364,0.007c7.958,0,6.556,0.735,13.951-7.481C69.765,33.468,70.812,19.995,62.854,19.995z"/>
		<path fill="#652D90" d="M7.999,104.345c6.128,0,16.619-8.79,24.987-19.932l-0.574-0.233c-3.533,4.602-6.966,6.252-7.385,6.252
			c-6.119,0,1.539-12.505,1.539-31.281c0-18.783,16.928-37.032,23.047-37.032c2.14,0,1.675,1.763,0.164,4.856l1.712,0.461
			c0.446-0.955,0.974-1.837,1.575-2.632c1.849-6.105,2.094-10.086-2.887-10.086c-10.117,0-31.744,22.19-36.351,40.706
			c-0.564,2.271-0.874,4.489-0.874,6.606c0,12.104-6.393,25.63-8.387,34.06C3.374,101.126,3.747,104.345,7.999,104.345z"/>
		<path fill="#FFFFFF" d="M49.805,34.577c1.184-3.594,2.404-6.92,3.26-9.772c-0.601,0.795-1.129,1.677-1.575,2.632
			C50.524,29.5,49.941,31.918,49.805,34.577z"/>
		<path fill="#652D90" d="M51.49,27.436l-1.712-0.461C47.392,31.871,42.375,40.114,40.954,50l2.468,0.18
			c0.2-1.289,1.994-3.387,3.633-6.079c0.755-3.293,1.739-6.506,2.75-9.525C49.941,31.918,50.524,29.5,51.49,27.436z"/>
		<path fill="#AF6FAD" d="M49.759,35.879c0-0.44,0.009-0.875,0.046-1.302c-1.011,3.019-1.995,6.232-2.75,9.525
			C48.466,41.764,49.759,38.972,49.759,35.879z"/>
		<path fill="#FFFFFF" d="M47.055,44.102c-1.639,2.692-3.433,4.79-3.633,6.079c-0.137,0.882,0.482,1.39,2.422,1.443
			C46.053,49.105,46.481,46.58,47.055,44.102z"/>
		<path fill="#AF6FAD" d="M13.827,55.424l-1.803-0.234L2.29,95.795l2.277,0.294c1.994-8.43,8.387-21.956,8.387-34.06
			C12.953,59.913,13.263,57.695,13.827,55.424z"/>
		<path fill="#652D90" d="M40.954,50c-0.264,1.717-0.401,3.487-0.401,5.297c0,14.668-4.134,23.667-8.141,28.883l0.574,0.233
			c7.13-9.505,12.721-20.714,12.721-29.618c0-1.055,0.046-2.118,0.137-3.173c-1.939-0.053-2.559-0.561-2.422-1.443L40.954,50z"/>
		<path fill="#AF6FAD" d="M7.999,104.345c-4.252,0-4.625-3.219-3.433-8.256L2.29,95.795l-2.04,8.49c0,4.429,4.89,8.016,10.927,8.016
			l23.539-6.573c6.028,0,27.081-36.471,27.081-40.899L80.51,25.372c0-4.429-1.32-20.974-7.357-20.974L58.966,0.25
			c-6.038,0-42.999,34.06-42.999,38.488L12.024,55.19l1.803,0.234c4.607-18.516,26.234-40.706,36.351-40.706
			c4.981,0,4.735,3.981,2.887,10.086c2.286-3.019,5.664-4.81,9.789-4.81c7.958,0,6.911,13.473-2.695,24.154
			c-7.395,8.216-5.992,7.481-13.951,7.481c-0.127,0-0.246,0-0.364-0.007c-0.091,1.055-0.137,2.118-0.137,3.173
			c0,8.904-5.591,20.113-12.721,29.618C24.618,95.555,14.127,104.345,7.999,104.345z"/>
	</g>
	<g>
	</g>
</g>
<g id="XMLID_1_">
	<g>
		<path fill="#FAAF40" d="M228.525,31.634c4.684-8.786,7.652-14.208-0.748-12.669c-17.127,3.137-27.414,25.322-22.974,49.562
			c4.438,24.231,40.166,52.021,43.674,33.881c3.515-18.149,0.619-24.115-4.524-25.993c-2.085,4.498-5.309,7.578-9.31,8.312
			c-8.896,1.629-18.287-8.932-20.972-23.592c-2.685-14.659,2.352-27.863,11.249-29.492
			C226.123,31.422,227.324,31.422,228.525,31.634z"/>
		<path fill="#F9EC31" d="M269.429,56.689c-5.009-27.345-24.223-46.735-42.919-43.311c-18.696,3.425-29.79,28.366-24.781,55.711
			c5.009,27.345,24.223,46.735,42.918,43.311C263.344,108.976,274.438,84.035,269.429,56.689z M227.778,18.965
			c8.399-1.539,5.432,3.883,0.748,12.669c3.189,0.534,6.316,2.501,9.043,5.517c-0.347-0.733-0.611-1.523-0.765-2.367
			c-0.871-4.753,2.027-9.264,6.471-10.079c4.437-0.812,8.745,2.379,9.616,7.132c0.871,4.752-2.027,9.264-6.464,10.077
			c-2.363,0.433-4.682-0.269-6.474-1.719c2.745,4.02,4.874,9.211,5.94,15.038c1.477,8.063,0.619,15.682-1.939,21.182
			c5.143,1.878,8.039,7.844,4.524,25.993c-3.508,18.141-39.236-9.649-43.674-33.881C200.364,44.288,210.65,22.103,227.778,18.965z"
			/>
		<path fill="#FFFFFF" d="M252.89,31.838c-0.871-4.753-5.179-7.944-9.616-7.132c-4.444,0.814-7.342,5.326-6.471,10.079
			c0.154,0.844,0.418,1.634,0.765,2.367c0.839,0.913,1.634,1.928,2.383,3.036c0,0,0,0,0.001,0.008
			c1.792,1.451,4.11,2.152,6.474,1.719C250.863,41.102,253.761,36.59,252.89,31.838z"/>
		<path fill="#F6923D" d="M228.525,31.634c-1.201-0.212-2.403-0.212-3.604,0.008c-8.896,1.629-13.934,14.833-11.249,29.492
			c2.685,14.66,12.075,25.221,20.972,23.592c4.001-0.733,7.224-3.813,9.31-8.312c-8.179-2.999-22.035,4.357-24.761-10.523
			C216.93,53.534,223.659,40.766,228.525,31.634z"/>
		<path fill="#F2703A" d="M237.568,37.151c-2.727-3.016-5.854-4.983-9.043-5.517c-4.866,9.132-11.596,21.9-9.333,34.257
			c2.726,14.881,16.582,7.524,24.761,10.523c2.558-5.5,3.416-13.118,1.939-21.182c-1.067-5.826-3.196-11.018-5.94-15.038
			c-0.001-0.008-0.001-0.008-0.001-0.008C238.966,39.385,238.152,38.349,237.568,37.151z"/>
	</g>
	<g>
	</g>
</g>
</svg>
