<?xml version="1.0" encoding="utf-8"?>
<!-- Generator: Adobe Illustrator 15.0.2, SVG Export Plug-In  -->
<!DOCTYPE svg PUBLIC "-//W3C//DTD SVG 1.1//EN" "http://www.w3.org/Graphics/SVG/1.1/DTD/svg11.dtd" [
	<!ENTITY ns_flows "http://ns.adobe.com/Flows/1.0/">
]>
<svg version="1.1"
	 xmlns="http://www.w3.org/2000/svg" xmlns:xlink="http://www.w3.org/1999/xlink" xmlns:a="http://ns.adobe.com/AdobeSVGViewerExtensions/3.0/"
	 x="0px" y="0px" width="498px" height="501px" viewBox="-4.716 -5.942 498 501"
	 overflow="visible" enable-background="new -4.716 -5.942 498 501" xml:space="preserve">
<defs>
</defs>
<g id="XMLID_1_">
	<g>
		<path fill="#652D90" d="M1.5,451.44V245.28l95.34,143.85l1.59,1.051l-86.55,86.55C5.46,470.221,1.5,461.28,1.5,451.44z"/>
		<polygon fill="#00ADEE" points="207.48,353.641 170.52,318.09 170.52,318.061 207.12,281.46 244.47,318.24 		"/>
		<polygon fill="#9D5188" points="207.48,135.42 170.64,98.04 244.47,98.04 		"/>
		<polygon fill="#9D5188" points="392.129,172.74 392.129,245.28 390.18,245.28 354.27,209.01 		"/>
		<polygon fill="#EC2224" points="392.129,247.26 356.07,281.851 319.86,245.28 390.18,245.28 		"/>
		<polygon fill="#EA4545" points="392.129,245.28 392.129,172.74 392.129,98.04 487.44,245.28 		"/>
		<polygon fill="#EC2224" points="318.3,318.24 318.3,389.13 281.28,353.61 318.209,318.181 		"/>
		<polygon fill="#9D5188" points="392.129,247.26 392.129,318.24 356.07,281.851 		"/>
		<polygon fill="#EC2224" points="171.54,171.75 169.83,170.04 170.64,170.04 170.64,98.04 207.48,135.42 		"/>
		<polygon fill="#D41E3E" points="170.4,245.28 133.2,282.181 96.99,247.32 96.87,247.23 98.79,245.28 		"/>
		<polygon fill="#9E1F62" points="318.3,318.24 389.31,389.13 318.3,389.13 		"/>
		<path fill="#652D90" d="M487.44,37.5v207.78L392.129,98.04l-0.96-0.63l85.561-85.56C483.33,18.39,487.44,27.48,487.44,37.5z"/>
		<polygon fill="#FCB623" points="244.59,173.04 207.48,135.42 244.47,98.04 244.59,98.16 		"/>
		<polygon fill="#B71E70" points="244.26,244.35 208.26,208.41 244.59,173.04 244.59,243.99 		"/>
		<polygon fill="#B71E70" points="245.22,245.28 281.1,281.13 244.59,318.12 244.59,245.28 		"/>
		<path fill="#652D90" d="M97.38,97.71L11.79,12.27C18.33,5.61,27.45,1.5,37.5,1.5h207.09v0.69L97.38,97.71z"/>
		<polygon fill="#EC2224" points="171.54,171.75 134.82,208.89 96.84,170.04 169.83,170.04 		"/>
		<polygon fill="#EC2224" points="207.48,353.641 170.4,389.13 170.4,318.24 170.4,318.21 170.52,318.09 		"/>
		<polygon fill="#B71E70" points="316.5,245.28 245.22,245.28 244.59,244.68 244.59,243.99 280.83,207.78 318.18,243.57 		"/>
		<polygon fill="#FFF100" points="244.59,173.04 280.83,207.78 244.59,243.99 		"/>
		<polygon fill="#9D5188" points="318.39,98.04 281.52,135.51 244.59,98.16 244.59,98.04 		"/>
		<polygon fill="#EC2224" points="96.84,318.24 133.2,282.181 170.52,318.061 170.52,318.09 170.4,318.21 170.37,318.24 		"/>
		<polygon fill="#FFF100" points="243.33,245.28 170.4,245.28 208.26,208.41 244.26,244.35 		"/>
		<polygon fill="#9E1F62" points="170.64,98.04 170.64,170.04 169.83,170.04 97.71,98.04 		"/>
		<path fill="#8D4A9C" d="M244.59,487.44H37.5c-10.02,0-19.11-4.11-25.62-10.71l86.55-86.55L244.59,487.44z"/>
		<polygon fill="#9D5188" points="244.26,389.13 170.4,389.13 207.48,353.641 244.32,389.07 		"/>
		<polygon fill="#EA4545" points="97.38,97.71 244.59,2.19 244.59,98.04 244.47,98.04 170.64,98.04 97.71,98.04 		"/>
		<polygon fill="#B04498" points="390.54,98.04 318.39,170.19 318.39,98.04 		"/>
		<path fill="#8D4A9C" d="M487.44,245.28v206.16c0,9.84-3.96,18.78-10.38,25.29l-86.61-86.46l1.68-1.141L487.44,245.28z"/>
		<polygon fill="#EC2224" points="356.07,281.851 392.129,318.24 318.3,318.24 318.209,318.181 		"/>
		<polygon fill="#B71E70" points="207.12,281.46 170.4,245.28 243.33,245.28 		"/>
		<polygon fill="#EA2E90" points="170.4,389.13 244.26,389.13 244.38,389.13 244.59,389.13 244.59,487.44 98.43,390.181 
			99.48,389.13 		"/>
		<polygon fill="#FCB623" points="354.27,209.01 390.18,245.28 319.86,245.28 318.18,243.57 		"/>
		<polygon fill="#B04498" points="99.48,389.13 170.37,318.24 170.4,318.24 170.4,389.13 		"/>
		<polygon fill="#00B7B5" points="133.2,282.181 170.4,245.28 207.12,281.46 170.52,318.061 		"/>
		<polygon fill="#EC2224" points="318.39,98.04 318.39,170.19 317.129,171.45 281.52,135.51 		"/>
		<polygon fill="#FFF100" points="316.5,245.28 281.1,281.13 245.22,245.28 		"/>
		<polygon fill="#00B7B5" points="281.1,281.13 316.5,245.28 319.86,245.28 356.07,281.851 318.209,318.181 		"/>
		<polygon fill="#EA2E90" points="392.129,245.28 487.44,245.28 392.129,389.13 392.129,318.24 392.129,247.26 		"/>
		<polygon fill="#00B7B5" points="318.18,243.57 280.83,207.78 317.129,171.48 318.39,172.74 354.27,209.01 		"/>
		<polygon fill="#D41E3E" points="244.59,98.16 281.52,135.51 244.59,173.04 		"/>
		<path fill="#8D4A9C" d="M96.84,98.04L1.5,245.28V37.5c0-9.81,3.93-18.72,10.29-25.23l85.59,85.44L96.84,98.04z"/>
		<polygon fill="#9D5188" points="96.84,245.28 96.84,170.04 134.82,208.89 98.79,245.28 		"/>
		<polygon fill="#00B7B5" points="170.4,245.28 134.82,208.89 171.54,171.75 208.26,208.41 		"/>
		<path fill="#8D4A9C" d="M476.73,11.85l-85.561,85.56L244.59,2.19V1.5h206.85C461.31,1.5,470.25,5.46,476.73,11.85z"/>
		<polygon fill="#9D5188" points="244.59,388.8 281.28,353.61 318.3,389.13 244.59,389.13 		"/>
		<polygon fill="#D41E3E" points="244.32,389.07 207.48,353.641 244.47,318.24 244.59,318.36 244.59,388.8 		"/>
		<polygon fill="#9D5188" points="96.84,247.26 96.87,247.23 96.99,247.32 133.2,282.181 96.84,318.24 		"/>
		<polygon fill="#EC2224" points="392.129,172.74 354.27,209.01 318.39,172.74 		"/>
		<polygon fill="#B04498" points="392.129,318.24 392.129,389.13 389.31,389.13 318.3,318.24 		"/>
		<polygon fill="#EA4545" points="390.45,390.271 244.59,487.44 244.59,389.13 318.3,389.13 389.31,389.13 		"/>
		<polygon fill="#9E1F62" points="392.129,98.04 392.129,172.74 318.39,172.74 318.39,170.19 390.54,98.04 		"/>
		<polygon fill="#FCB623" points="170.4,245.28 98.79,245.28 134.82,208.89 		"/>
		<polygon fill="#9E1F62" points="96.84,318.24 170.37,318.24 99.48,389.13 96.84,389.13 		"/>
		<polygon fill="#EA4545" points="96.84,389.13 1.5,245.28 96.84,245.28 96.84,247.26 96.84,318.24 		"/>
		<polygon fill="#FFF100" points="244.47,318.24 207.12,281.46 243.33,245.28 244.59,245.28 244.59,318.12 		"/>
		<polygon fill="#EA2E90" points="1.5,245.28 96.84,98.04 96.84,170.04 96.84,245.28 		"/>
		<polygon fill="#00ADEE" points="244.59,173.04 281.52,135.51 317.129,171.45 317.129,171.48 280.83,207.78 		"/>
		<polygon fill="#00ADEE" points="244.59,318.12 281.1,281.13 318.209,318.181 281.28,353.61 244.59,318.36 		"/>
		<polygon fill="#00ADEE" points="208.26,208.41 171.54,171.75 207.48,135.42 244.59,173.04 		"/>
		<polygon fill="#B04498" points="96.84,170.04 96.84,98.04 97.71,98.04 169.83,170.04 		"/>
		<path fill="#652D90" d="M451.44,487.44H244.59l145.86-97.17l86.61,86.46C470.55,483.33,461.459,487.44,451.44,487.44z"/>
		<polygon fill="#FCB623" points="244.59,318.36 281.28,353.61 244.59,388.8 		"/>
		<polygon fill="#EA2E90" points="244.59,2.19 391.169,97.41 390.54,98.04 318.39,98.04 244.59,98.04 		"/>
	</g>
	<g>
		<path fill="none" stroke="#231F20" stroke-width="3" stroke-miterlimit="10" d="M487.44,245.28v206.16
			c0,9.84-3.96,18.78-10.38,25.29c-6.51,6.6-15.601,10.71-25.62,10.71H244.59H37.5c-10.02,0-19.11-4.11-25.62-10.71
			c-6.42-6.51-10.38-15.45-10.38-25.29V245.28V37.5c0-9.81,3.93-18.72,10.29-25.23C18.33,5.61,27.45,1.5,37.5,1.5h207.09h206.85
			c9.87,0,18.81,3.96,25.29,10.35c6.6,6.54,10.71,15.63,10.71,25.65V245.28z"/>
		<polyline fill="none" stroke="#231F20" stroke-width="3" stroke-miterlimit="10" points="10.62,11.1 11.79,12.27 97.38,97.71 
			97.71,98.04 169.83,170.04 171.54,171.75 208.26,208.41 244.26,244.35 244.59,244.68 245.22,245.28 281.1,281.13 318.209,318.181 
			318.3,318.24 389.31,389.13 390.45,390.271 477.06,476.73 478.56,478.23 		"/>
		<polyline fill="none" stroke="#231F20" stroke-width="3" stroke-miterlimit="10" points="317.129,171.45 318.39,170.19 
			390.54,98.04 391.169,97.41 476.73,11.85 477.54,11.04 		"/>
		<polyline fill="none" stroke="#231F20" stroke-width="3" stroke-miterlimit="10" points="170.52,318.061 207.12,281.46 
			243.33,245.28 244.26,244.35 244.59,243.99 280.83,207.78 317.129,171.48 		"/>
		<polyline fill="none" stroke="#231F20" stroke-width="3" stroke-miterlimit="10" points="10.98,477.63 11.88,476.73 
			98.43,390.181 99.48,389.13 170.37,318.24 170.4,318.21 170.52,318.09 		"/>
		<polygon fill="none" stroke="#231F20" stroke-width="3" stroke-miterlimit="10" points="392.129,389.13 389.31,389.13 
			318.3,389.13 244.59,389.13 244.38,389.13 244.26,389.13 170.4,389.13 99.48,389.13 96.84,389.13 96.84,318.24 96.84,247.26 
			96.84,245.28 96.84,170.04 96.84,98.04 97.71,98.04 170.64,98.04 244.47,98.04 244.59,98.04 318.39,98.04 390.54,98.04 
			392.129,98.04 392.129,172.74 392.129,245.28 392.129,247.26 392.129,318.24 		"/>
		<polyline fill="none" stroke="#231F20" stroke-width="3" stroke-miterlimit="10" points="1.5,245.28 96.84,245.28 98.79,245.28 
			170.4,245.28 243.33,245.28 244.59,245.28 245.22,245.28 316.5,245.28 319.86,245.28 390.18,245.28 392.129,245.28 487.44,245.28 
					"/>
		<polyline fill="none" stroke="#231F20" stroke-width="3" stroke-miterlimit="10" points="244.59,2.19 244.59,98.04 244.59,98.16 
			244.59,173.04 244.59,243.99 244.59,244.68 244.59,245.28 244.59,318.12 244.59,318.36 244.59,388.8 244.59,389.13 244.59,487.44 
					"/>
		<polyline fill="none" stroke="#231F20" stroke-width="3" stroke-miterlimit="10" points="96.99,247.32 133.2,282.181 
			170.52,318.061 170.52,318.09 207.48,353.641 244.32,389.07 244.38,389.13 244.44,389.19 		"/>
		<polyline fill="none" stroke="#231F20" stroke-width="3" stroke-miterlimit="10" points="244.26,389.13 244.32,389.07 
			244.59,388.8 281.28,353.61 318.209,318.181 356.07,281.851 392.129,247.26 		"/>
		<polyline fill="none" stroke="#231F20" stroke-width="3" stroke-miterlimit="10" points="392.129,247.26 390.18,245.28 
			354.27,209.01 318.39,172.74 317.129,171.48 317.129,171.45 281.52,135.51 244.59,98.16 244.47,98.04 		"/>
		<polyline fill="none" stroke="#231F20" stroke-width="3" stroke-miterlimit="10" points="244.47,98.04 207.48,135.42 
			171.54,171.75 134.82,208.89 98.79,245.28 96.87,247.23 96.84,247.26 		"/>
		<polyline fill="none" stroke="#231F20" stroke-width="3" stroke-miterlimit="10" points="170.4,318.21 170.4,318.24 170.4,389.13 
					"/>
		<line fill="none" stroke="#231F20" stroke-width="3" stroke-miterlimit="10" x1="318.3" y1="318.24" x2="318.3" y2="389.13"/>
		<line fill="none" stroke="#231F20" stroke-width="3" stroke-miterlimit="10" x1="318.3" y1="318.24" x2="392.129" y2="318.24"/>
		<line fill="none" stroke="#231F20" stroke-width="3" stroke-miterlimit="10" x1="318.39" y1="172.74" x2="392.129" y2="172.74"/>
		<polyline fill="none" stroke="#231F20" stroke-width="3" stroke-miterlimit="10" points="318.39,172.74 318.39,170.19 
			318.39,98.04 		"/>
		<polyline fill="none" stroke="#231F20" stroke-width="3" stroke-miterlimit="10" points="170.64,98.04 170.64,170.04 
			170.64,170.61 		"/>
		<polyline fill="none" stroke="#231F20" stroke-width="3" stroke-miterlimit="10" points="96.84,170.04 169.83,170.04 
			170.64,170.04 		"/>
		<line fill="none" stroke="#231F20" stroke-width="3" stroke-miterlimit="10" x1="96.84" y1="98.04" x2="1.5" y2="245.28"/>
		<line fill="none" stroke="#231F20" stroke-width="3" stroke-miterlimit="10" x1="1.5" y1="245.28" x2="96.84" y2="389.13"/>
		<polyline fill="none" stroke="#231F20" stroke-width="3" stroke-miterlimit="10" points="96.84,98.04 97.38,97.71 244.59,2.19 		
			"/>
		<polyline fill="none" stroke="#231F20" stroke-width="3" stroke-miterlimit="10" points="244.59,2.19 391.169,97.41 
			392.129,98.04 		"/>
		<line fill="none" stroke="#231F20" stroke-width="3" stroke-miterlimit="10" x1="392.129" y1="98.04" x2="487.44" y2="245.28"/>
		<line fill="none" stroke="#231F20" stroke-width="3" stroke-miterlimit="10" x1="487.44" y1="245.28" x2="392.129" y2="389.13"/>
		<polyline fill="none" stroke="#231F20" stroke-width="3" stroke-miterlimit="10" points="392.129,389.13 390.45,390.271 
			244.59,487.44 		"/>
		<polyline fill="none" stroke="#231F20" stroke-width="3" stroke-miterlimit="10" points="96.84,389.13 98.43,390.181 
			244.59,487.44 		"/>
		<polyline fill="none" stroke="#231F20" stroke-width="3" stroke-miterlimit="10" points="96.84,318.24 170.37,318.24 
			170.4,318.24 		"/>
		<polyline fill="none" stroke="#231F20" stroke-width="3" stroke-miterlimit="10" points="170.4,245.28 208.26,208.41 
			244.59,173.04 		"/>
		<polyline fill="none" stroke="#231F20" stroke-width="3" stroke-miterlimit="10" points="244.59,173.04 280.83,207.78 
			318.18,243.57 		"/>
		<polyline fill="none" stroke="#231F20" stroke-width="3" stroke-miterlimit="10" points="318.18,243.57 316.5,245.28 
			281.1,281.13 244.59,318.12 244.47,318.24 		"/>
		<polyline fill="none" stroke="#231F20" stroke-width="3" stroke-miterlimit="10" points="244.47,318.24 207.12,281.46 
			170.4,245.28 		"/>
		<polyline fill="none" stroke="#231F20" stroke-width="3" stroke-miterlimit="10" points="170.4,389.13 207.48,353.641 
			244.47,318.24 		"/>
		<polyline fill="none" stroke="#231F20" stroke-width="3" stroke-miterlimit="10" points="244.47,318.24 244.59,318.36 
			281.28,353.61 318.3,389.13 		"/>
		<polyline fill="none" stroke="#231F20" stroke-width="3" stroke-miterlimit="10" points="318.18,243.57 319.86,245.28 
			356.07,281.851 392.129,318.24 		"/>
		<polyline fill="none" stroke="#231F20" stroke-width="3" stroke-miterlimit="10" points="318.18,243.57 354.27,209.01 
			392.129,172.74 		"/>
		<polyline fill="none" stroke="#231F20" stroke-width="3" stroke-miterlimit="10" points="244.59,173.04 281.52,135.51 
			318.39,98.04 		"/>
		<polyline fill="none" stroke="#231F20" stroke-width="3" stroke-miterlimit="10" points="170.64,98.04 207.48,135.42 
			244.59,173.04 		"/>
		<polyline fill="none" stroke="#231F20" stroke-width="3" stroke-miterlimit="10" points="96.84,170.04 134.82,208.89 
			170.4,245.28 		"/>
		<polyline fill="none" stroke="#231F20" stroke-width="3" stroke-miterlimit="10" points="170.4,245.28 133.2,282.181 
			96.84,318.24 		"/>
	</g>
</g>
</svg>
