<?xml version="1.0" encoding="utf-8"?>
<!-- Generator: Adobe Illustrator 15.0.2, SVG Export Plug-In  -->
<!DOCTYPE svg PUBLIC "-//W3C//DTD SVG 1.1//EN" "http://www.w3.org/Graphics/SVG/1.1/DTD/svg11.dtd" [
	<!ENTITY ns_flows "http://ns.adobe.com/Flows/1.0/">
]>
<svg version="1.1"
	 xmlns="http://www.w3.org/2000/svg" xmlns:xlink="http://www.w3.org/1999/xlink" xmlns:a="http://ns.adobe.com/AdobeSVGViewerExtensions/3.0/"
	 x="0px" y="0px" width="498px" height="501px" viewBox="-3.524 -3.743 498 501"
	 overflow="visible" enable-background="new -3.524 -3.743 498 501" xml:space="preserve">
<defs>
</defs>
<g id="XMLID_1_">
	<g>
		<path fill="#253C92" d="M490.261,369.72v87.21c0,20.28-16.32,36.72-36.48,36.72H246.301v-0.479l120.63-61.051v-0.569
			L490.261,369.72z"/>
		<polygon fill="#C59AB2" points="490.261,369.66 490.261,369.72 366.931,431.55 366.872,369.75 		"/>
		<path fill="#253C92" d="M490.171,125.1l-2.61-1.29l-65.82-32.88l-54.869-27.99h-1.171L245.731,3.03V1.5h208.05
			c20.16,0,36.48,16.44,36.48,36.72v191.7L490.171,125.1z"/>
		<polygon fill="#26A9E0" points="487.681,124.56 487.771,244.53 487.591,244.53 439.622,196.56 487.231,124.32 		"/>
		<polygon fill="#A22C24" points="490.261,229.92 490.261,369.6 367.082,309.78 487.771,247.95 487.771,244.53 487.681,124.56 
			487.231,124.32 487.561,123.81 490.171,125.1 		"/>
		<polygon fill="#AE1E36" points="487.231,124.32 439.622,196.56 366.961,123.9 486.211,123.81 		"/>
		<polygon fill="#C59AB2" points="486.211,123.81 366.961,123.9 366.872,123.81 366.872,63.54 421.741,90.93 		"/>
		<polygon fill="#4D53A3" points="439.622,196.56 367.021,306.78 366.872,306.54 366.872,123.93 366.961,123.9 		"/>
		<polygon fill="#59A7DA" points="366.872,369.75 366.931,431.55 247.381,491.49 326.221,369.78 		"/>
		<polygon fill="#88C440" points="366.872,123.93 366.872,306.54 304.741,212.58 366.811,123.93 		"/>
		<polygon fill="#FFF8AD" points="366.872,123.81 366.872,123.93 366.811,123.93 		"/>
		<polygon fill="#ED296E" points="366.872,63.54 366.872,123.81 366.811,123.93 247.651,124.02 366.301,63.24 		"/>
		<polygon fill="#321E60" points="366.872,62.94 366.301,63.24 365.701,62.94 		"/>
		<polygon fill="#ECE962" points="366.811,123.93 304.741,212.58 246.541,124.59 247.651,124.02 		"/>
		<polygon fill="#B9B1D7" points="365.582,309 367.082,309.78 490.261,369.6 490.261,369.66 366.872,369.75 366.811,310.23 
			365.281,309.45 		"/>
		<polygon fill="#ED296E" points="367.082,309.78 365.582,309 367.021,306.78 439.622,196.56 487.591,244.53 487.771,244.53 
			487.771,247.95 		"/>
		<polygon fill="#D0A2CA" points="366.301,63.24 247.651,124.02 246.181,124.02 245.941,62.94 365.701,62.94 		"/>
		<polygon fill="#26A9E0" points="365.701,62.94 245.941,62.94 245.731,3.03 		"/>
		<polygon fill="#006838" points="365.582,309 365.281,309.45 246.691,249.66 247.831,248.94 		"/>
		<polygon fill="#D0CFE7" points="246.451,249.81 246.691,249.66 365.281,309.45 364.771,310.23 246.091,310.32 246.091,310.05 
			246.091,250.02 		"/>
		<polygon fill="#C41789" points="364.771,310.23 327.601,367.65 246.091,311.61 246.091,310.32 		"/>
		<polygon fill="#ED296E" points="327.601,367.65 364.771,310.23 366.811,310.23 366.872,369.75 326.221,369.78 		"/>
		<polygon fill="#BE65A7" points="326.221,369.78 247.381,491.49 246.301,492.03 246.301,369.84 		"/>
		<polygon fill="#E0F2F7" points="304.741,212.58 366.872,306.54 367.021,306.78 365.582,309 247.831,248.94 304.201,213.36 		"/>
		<polygon fill="#D0CFE7" points="246.541,124.59 304.741,212.58 304.201,213.36 247.831,248.94 246.301,248.16 246.181,124.77 		
			"/>
		<polygon fill="#006838" points="246.691,249.66 246.451,249.81 246.091,249.6 246.091,249.36 		"/>
		<polygon fill="#006838" points="246.451,249.81 246.091,250.02 246.091,249.6 		"/>
		<path fill="#253C92" d="M246.301,493.17v0.479H38.071c-20.16,0-36.48-16.439-36.48-36.72V250.8l0.03,0.029l0.09,119.221
			l123.84,61.83v0.449L246.301,493.17z"/>
		<polygon fill="#4C3259" points="246.301,369.84 246.301,492.03 246.151,492.12 245.341,491.7 164.821,369.93 		"/>
		<polygon fill="#604071" points="246.091,311.61 327.601,367.65 326.221,369.78 246.301,369.84 246.301,315.6 246.091,315.6 		"/>
		<polygon fill="#E0F2F7" points="246.181,124.77 246.301,248.16 247.831,248.94 246.691,249.66 246.091,249.36 245.881,249.45 
			189.211,213.66 188.641,212.85 246.181,124.02 		"/>
		<polygon fill="#D0A2CA" points="245.941,62.94 246.181,124.02 126.271,62.94 		"/>
		<polygon fill="#ED296E" points="246.181,124.02 126.241,124.77 126.241,62.97 126.241,62.94 126.271,62.94 		"/>
		<polygon fill="#BE65A7" points="164.761,369.6 245.011,310.83 246.091,311.61 246.091,315.6 246.301,315.6 246.301,369.84 
			164.821,369.93 164.641,369.69 		"/>
		<polygon fill="#4C3259" points="246.091,310.32 246.091,311.61 245.011,310.83 245.701,310.32 		"/>
		<polygon fill="#461D5C" points="246.091,310.05 246.091,310.32 245.701,310.32 		"/>
		<polygon fill="#E0F2F7" points="244.231,310.32 126.241,310.41 126.241,310.02 245.881,249.45 246.091,249.6 246.091,250.02 
			246.091,310.05 245.701,310.32 		"/>
		<polygon fill="#006838" points="246.091,249.36 246.091,249.6 245.881,249.45 		"/>
		<polygon fill="#26A9E0" points="245.731,3.03 245.941,62.94 126.271,62.94 		"/>
		<path fill="#253C92" d="M245.731,1.5v1.53l-119.46,59.91h-0.03v0.03L1.591,125.46V38.22c0-20.28,16.32-36.72,36.48-36.72H245.731z
			"/>
		<polygon fill="#4C3259" points="245.701,310.32 245.011,310.83 244.231,310.32 		"/>
		<polygon fill="#59A7DA" points="245.341,491.7 125.551,431.88 125.491,369.96 164.821,369.93 		"/>
		<polygon fill="#D0CFE7" points="126.241,309.21 188.641,212.85 189.211,213.66 245.881,249.45 126.241,310.02 		"/>
		<polygon fill="#ED296E" points="164.821,369.93 125.491,369.96 125.461,310.41 164.641,369.69 		"/>
		<polygon fill="#88C440" points="126.241,309.21 126.241,306.78 126.241,126.03 126.751,125.52 188.641,212.85 		"/>
		<polygon fill="#ECE962" points="126.241,124.77 246.181,124.02 188.641,212.85 126.751,125.52 		"/>
		<polygon fill="#604071" points="126.241,124.77 126.751,125.52 126.241,126.03 		"/>
		<polygon fill="#ED296E" points="125.551,306.78 126.241,306.78 126.241,309.21 125.461,310.41 1.621,250.83 1.621,250.65 
			52.381,199.89 		"/>
		<polygon fill="#4D53A3" points="126.241,126.03 126.241,306.78 125.551,306.78 52.381,199.89 		"/>
		<polygon fill="#AE1E36" points="126.241,124.77 126.241,126.03 52.381,199.89 1.591,125.64 1.591,125.52 		"/>
		<polygon fill="#C59AB2" points="126.241,62.97 126.241,124.77 1.591,125.52 1.591,125.46 		"/>
		<polygon fill="#C41789" points="126.241,310.41 244.231,310.32 245.011,310.83 164.761,369.6 164.641,369.69 125.461,310.41 		"/>
		<polygon fill="#C59AB2" points="125.491,369.96 125.551,431.88 1.711,370.05 		"/>
		<polygon fill="#B9B1D7" points="125.461,310.41 125.491,369.96 1.711,370.05 		"/>
		<polygon fill="#A22C24" points="125.461,310.41 1.711,370.05 1.621,250.83 		"/>
		<polygon fill="#26A9E0" points="1.591,125.64 52.381,199.89 1.621,250.65 1.591,230.31 		"/>
	</g>
	<g>
		<path fill="none" stroke="#231F20" stroke-width="3" stroke-miterlimit="10" d="M490.261,369.72v87.21
			c0,20.28-16.32,36.72-36.48,36.72H246.301H38.071c-20.16,0-36.48-16.439-36.48-36.72V250.8v-0.12v-20.37V125.64v-0.12v-0.06V38.22
			c0-20.28,16.32-36.72,36.48-36.72h207.66h208.05c20.16,0,36.48,16.44,36.48,36.72v191.7V369.6v0.06V369.72z"/>
		<polyline fill="none" stroke="#231F20" stroke-width="3" stroke-miterlimit="10" points="126.271,62.94 245.731,3.03 
			365.701,62.94 366.301,63.24 366.872,63.54 421.741,90.93 487.561,123.81 490.171,125.1 490.261,229.92 490.381,369.66 
			490.261,369.72 366.931,431.55 247.381,491.49 246.301,492.03 246.151,492.12 245.341,491.7 125.551,431.88 1.711,370.05 
			1.621,250.83 1.621,250.65 1.591,230.31 1.501,125.52 1.591,125.46 126.241,62.97 		"/>
		<polygon fill="none" stroke="#231F20" stroke-width="3" stroke-miterlimit="10" points="487.231,124.32 487.681,124.56 
			487.771,244.53 487.771,247.95 367.082,309.78 365.582,309 247.831,248.94 246.301,248.16 246.181,124.77 246.541,124.59 
			247.651,124.02 366.301,63.24 366.872,62.94 421.741,90.93 486.211,123.81 		"/>
		<polygon fill="none" stroke="#231F20" stroke-width="3" stroke-miterlimit="10" points="366.811,310.23 366.872,369.75 
			366.931,431.55 366.931,432.12 246.301,493.17 125.551,432.33 125.551,431.88 125.491,369.96 125.461,310.41 126.241,310.02 
			245.881,249.45 246.091,249.36 246.691,249.66 365.281,309.45 		"/>
		<polyline fill="none" stroke="#231F20" stroke-width="3" stroke-miterlimit="10" points="246.181,124.02 188.641,212.85 
			126.241,309.21 125.461,310.41 		"/>
		<polyline fill="none" stroke="#231F20" stroke-width="3" stroke-miterlimit="10" points="246.181,124.02 246.541,124.59 
			304.741,212.58 366.872,306.54 367.021,306.78 		"/>
		<polyline fill="none" stroke="#231F20" stroke-width="3" stroke-miterlimit="10" points="125.461,310.41 126.241,310.41 
			244.231,310.32 245.701,310.32 246.091,310.32 364.771,310.23 366.811,310.23 		"/>
		<polyline fill="none" stroke="#231F20" stroke-width="3" stroke-miterlimit="10" points="125.461,310.41 164.641,369.69 
			164.821,369.93 245.341,491.7 246.301,493.17 		"/>
		<polyline fill="none" stroke="#231F20" stroke-width="3" stroke-miterlimit="10" points="246.301,493.17 247.381,491.49 
			326.221,369.78 327.601,367.65 364.771,310.23 365.281,309.45 365.582,309 367.021,306.78 		"/>
		<polyline fill="none" stroke="#231F20" stroke-width="3" stroke-miterlimit="10" points="246.181,124.02 247.651,124.02 
			366.811,123.93 366.872,123.93 366.961,123.9 486.211,123.81 487.561,123.81 		"/>
		<polyline fill="none" stroke="#231F20" stroke-width="3" stroke-miterlimit="10" points="367.021,306.78 439.622,196.56 
			487.231,124.32 487.561,123.81 		"/>
		<polyline fill="none" stroke="#231F20" stroke-width="3" stroke-miterlimit="10" points="1.501,125.52 1.591,125.64 
			52.381,199.89 125.551,306.78 		"/>
		<polyline fill="none" stroke="#231F20" stroke-width="3" stroke-miterlimit="10" points="1.501,125.52 1.591,125.52 
			126.241,124.77 246.181,124.02 		"/>
		<line fill="none" stroke="#231F20" stroke-width="3" stroke-miterlimit="10" x1="246.181" y1="124.02" x2="126.271" y2="62.94"/>
		<polyline fill="none" stroke="#231F20" stroke-width="3" stroke-miterlimit="10" points="125.461,310.41 1.621,250.83 
			1.591,250.8 1.501,250.77 		"/>
		<line fill="none" stroke="#231F20" stroke-width="3" stroke-miterlimit="10" x1="1.711" y1="370.05" x2="125.461" y2="310.41"/>
		<polyline fill="none" stroke="#231F20" stroke-width="3" stroke-miterlimit="10" points="367.082,309.78 490.261,369.6 
			490.381,369.66 		"/>
		<polyline fill="none" stroke="#231F20" stroke-width="3" stroke-miterlimit="10" points="126.241,62.94 126.241,62.97 
			126.241,124.77 		"/>
		<polyline fill="none" stroke="#231F20" stroke-width="3" stroke-miterlimit="10" points="366.872,62.94 366.872,63.54 
			366.872,123.81 		"/>
		<polyline fill="none" stroke="#231F20" stroke-width="3" stroke-miterlimit="10" points="246.181,124.77 246.181,124.02 
			245.941,62.94 245.731,3.03 		"/>
		<polyline fill="none" stroke="#231F20" stroke-width="3" stroke-miterlimit="10" points="1.501,250.77 1.591,250.68 1.621,250.65 
			52.381,199.89 126.241,126.03 126.751,125.52 126.871,125.4 		"/>
		<polyline fill="none" stroke="#231F20" stroke-width="3" stroke-miterlimit="10" points="366.872,123.81 366.961,123.9 
			439.622,196.56 487.591,244.53 		"/>
		<polyline fill="none" stroke="#231F20" stroke-width="3" stroke-miterlimit="10" points="126.241,124.77 126.241,126.03 
			126.241,306.78 126.241,309.21 126.241,310.02 126.241,310.41 		"/>
		<polyline fill="none" stroke="#231F20" stroke-width="3" stroke-miterlimit="10" points="366.872,123.81 366.872,123.93 
			366.872,306.54 366.872,306.78 		"/>
		<polyline fill="none" stroke="#231F20" stroke-width="3" stroke-miterlimit="10" points="246.301,315.6 246.301,369.84 
			246.301,492.03 246.301,493.17 		"/>
		<polyline fill="none" stroke="#231F20" stroke-width="3" stroke-miterlimit="10" points="246.091,249.36 246.091,249.6 
			246.091,250.02 246.091,310.05 246.091,310.32 246.091,311.61 246.091,315.6 		"/>
		<polyline fill="none" stroke="#231F20" stroke-width="3" stroke-miterlimit="10" points="189.211,213.66 245.881,249.45 
			246.091,249.6 246.451,249.81 247.681,250.59 		"/>
		<polyline fill="none" stroke="#231F20" stroke-width="3" stroke-miterlimit="10" points="304.201,213.36 247.831,248.94 
			246.691,249.66 246.451,249.81 246.091,250.02 245.731,250.26 		"/>
		<polyline fill="none" stroke="#231F20" stroke-width="3" stroke-miterlimit="10" points="366.872,123.81 366.811,123.93 
			304.741,212.58 304.201,213.36 		"/>
		<polyline fill="none" stroke="#231F20" stroke-width="3" stroke-miterlimit="10" points="126.241,124.77 126.751,125.52 
			188.641,212.85 189.211,213.66 		"/>
		<polyline fill="none" stroke="#231F20" stroke-width="3" stroke-miterlimit="10" points="1.711,370.05 125.491,369.96 
			164.821,369.93 246.301,369.84 326.221,369.78 366.872,369.75 490.261,369.66 490.381,369.66 		"/>
		<polyline fill="none" stroke="#231F20" stroke-width="3" stroke-miterlimit="10" points="164.761,369.6 245.011,310.83 
			245.701,310.32 246.091,310.05 246.451,309.78 		"/>
		<polyline fill="none" stroke="#231F20" stroke-width="3" stroke-miterlimit="10" points="327.601,367.65 246.091,311.61 
			245.011,310.83 244.231,310.32 243.451,309.78 		"/>
		<polyline fill="none" stroke="#231F20" stroke-width="3" stroke-miterlimit="10" points="126.241,62.94 126.271,62.94 
			245.941,62.94 365.701,62.94 366.872,62.94 		"/>
	</g>
</g>
</svg>
