<?xml version="1.0" encoding="utf-8"?>
<!-- Generator: Adobe Illustrator 15.0.2, SVG Export Plug-In  -->
<!DOCTYPE svg PUBLIC "-//W3C//DTD SVG 1.1//EN" "http://www.w3.org/Graphics/SVG/1.1/DTD/svg11.dtd" [
	<!ENTITY ns_flows "http://ns.adobe.com/Flows/1.0/">
]>
<svg version="1.1"
	 xmlns="http://www.w3.org/2000/svg" xmlns:xlink="http://www.w3.org/1999/xlink" xmlns:a="http://ns.adobe.com/AdobeSVGViewerExtensions/3.0/"
	 x="0px" y="0px" width="498px" height="501px" viewBox="-3.701 -3.613 498 501"
	 overflow="visible" enable-background="new -3.701 -3.613 498 501" xml:space="preserve">
<defs>
</defs>
<g id="XMLID_1_">
	<g>
		<path fill="#231F20" d="M490.17,288.54v168.39c0,20.311-16.35,36.75-36.48,36.75H283.65v-0.149
			c113.22,0,205.02-91.771,205.02-204.99H490.17z"/>
		<path fill="#231F20" d="M490.17,38.25v250.29h-1.5c0-13.8-1.38-27.3-3.99-40.35c2.61-13.05,3.99-26.55,3.99-40.351
			c0-113.22-91.8-205.02-205.02-205.02V1.5h170.04C473.82,1.5,490.17,17.94,490.17,38.25z"/>
		<path fill="#FFFFFF" d="M488.67,207.84c0,13.8-1.38,27.3-3.99,40.351c-11.399-57.18-46.62-105.78-94.859-135.03
			C361.26,58.32,308.55,18,245.82,6.33c12.27-2.31,24.9-3.51,37.83-3.51C396.87,2.82,488.67,94.62,488.67,207.84z"/>
		<path fill="#FFFFFF" d="M484.68,248.19c2.61,13.05,3.99,26.55,3.99,40.35c0,113.22-91.8,204.99-205.02,204.99
			c-12.72,0-25.2-1.17-37.29-3.391C309,478.29,361.53,437.94,390,383.1C438.149,353.85,473.28,305.28,484.68,248.19z"/>
		<path fill="#EC1C24" d="M389.82,113.16c48.239,29.25,83.46,77.85,94.859,135.03C473.28,305.28,438.149,353.85,390,383.1
			c14.7-28.229,22.979-60.329,22.979-94.35c0-13.86-1.38-27.39-4.02-40.47c2.64-13.08,4.02-26.61,4.02-40.44
			C412.979,173.7,404.64,141.48,389.82,113.16z"/>
		<path fill="#00ADEE" d="M412.979,207.84c0,13.83-1.38,27.36-4.02,40.44c-16.35-81.81-81.42-146.01-163.68-161.13
			c12.42-2.37,25.26-3.6,38.37-3.6c38.88,0,75.21,10.83,106.17,29.61C404.64,141.48,412.979,173.7,412.979,207.84z"/>
		<path fill="#00ADEE" d="M408.96,248.28c2.64,13.08,4.02,26.609,4.02,40.47c0,34.021-8.279,66.12-22.979,94.35
			c-30.99,18.87-67.41,29.73-106.35,29.73c-12.93,0-25.56-1.2-37.83-3.51C327.84,394.05,392.64,329.91,408.96,248.28z"/>
		<path fill="#EC1C24" d="M245.82,6.33c62.73,11.67,115.44,51.99,144,106.83c-30.96-18.78-67.291-29.61-106.17-29.61
			c-13.11,0-25.95,1.23-38.37,3.6c-12.09-2.22-24.57-3.39-37.29-3.39c-38.94,0-75.36,10.86-106.35,29.7
			C130.2,58.44,182.97,18.03,245.82,6.33z"/>
		<path fill="#EC1C24" d="M245.28,87.15c82.26,15.12,147.331,79.32,163.68,161.13c-16.32,81.63-81.12,145.77-163.14,161.04
			C163.77,394.05,98.94,329.85,82.65,248.19C98.91,166.68,163.5,102.63,245.28,87.15z M346.05,247.59
			c0-55.35-44.88-100.23-100.23-100.23s-100.23,44.88-100.23,100.23c0,55.351,44.88,100.23,100.23,100.23
			S346.05,302.94,346.05,247.59z"/>
		<path fill="#EC1C24" d="M390,383.1c-28.47,54.841-81,95.19-143.64,107.04c-63-11.58-115.89-51.93-144.57-106.949
			c30.96,18.81,67.32,29.64,106.2,29.64c12.93,0,25.56-1.2,37.83-3.51c12.27,2.31,24.9,3.51,37.83,3.51
			C322.59,412.83,359.01,401.97,390,383.1z"/>
		<path fill="#FFFFFF" d="M245.82,147.36c55.35,0,100.23,44.88,100.23,100.23c0,55.351-44.88,100.23-100.23,100.23
			s-100.23-44.88-100.23-100.23C145.59,192.24,190.47,147.36,245.82,147.36z M294.48,247.62c0-26.73-21.78-48.36-48.66-48.36
			c-26.85,0-48.63,21.63-48.63,48.36c0,26.7,21.78,48.33,48.63,48.33C272.7,295.95,294.48,274.32,294.48,247.62z"/>
		<path fill="#FFF100" d="M245.82,199.26c26.88,0,48.66,21.63,48.66,48.36c0,26.7-21.78,48.33-48.66,48.33
			c-26.85,0-48.63-21.63-48.63-48.33C197.19,220.89,218.97,199.26,245.82,199.26z"/>
		<path fill="#FFFFFF" d="M246.36,490.14c-10.74,2.04-21.81,3.24-33.09,3.54h-10.56C91.92,490.86,3,400.2,3,288.75
			c0-13.86,1.38-27.39,4.02-40.47c11.4,57.12,46.56,105.66,94.77,134.91C130.47,438.21,183.36,478.56,246.36,490.14z"/>
		<path fill="#FFFFFF" d="M207.99,2.82c12.93,0,25.56,1.2,37.83,3.51c-62.85,11.7-115.62,52.11-144.18,107.13
			c-48.12,29.25-83.22,77.76-94.62,134.82C4.38,235.2,3,221.67,3,207.84C3,94.62,94.77,2.82,207.99,2.82z"/>
		<path fill="#00ADEE" d="M207.99,83.76c12.72,0,25.2,1.17,37.29,3.39C163.5,102.63,98.91,166.68,82.65,248.19
			c-2.61-13.05-3.99-26.55-3.99-40.351c0-34.02,8.28-66.15,22.98-94.38C132.63,94.62,169.05,83.76,207.99,83.76z"/>
		<path fill="#00ADEE" d="M245.82,409.32c-12.27,2.31-24.9,3.51-37.83,3.51c-38.88,0-75.24-10.83-106.2-29.64
			C87,354.87,78.66,322.68,78.66,288.54c0-13.8,1.38-27.3,3.99-40.35C98.94,329.85,163.77,394.05,245.82,409.32z"/>
		<path fill="#231F20" d="M202.71,493.68H37.95c-20.13,0-36.45-16.439-36.45-36.75V288.75H3C3,400.2,91.92,490.86,202.71,493.68z"/>
		<path fill="#EC1C24" d="M101.64,113.46c-14.7,28.23-22.98,60.36-22.98,94.38c0,13.8,1.38,27.3,3.99,40.351
			c-2.61,13.05-3.99,26.55-3.99,40.35c0,34.14,8.34,66.33,23.13,94.65C53.58,353.94,18.42,305.4,7.02,248.28
			C18.42,191.22,53.52,142.71,101.64,113.46z"/>
		<path fill="#231F20" d="M207.99,2.82C94.77,2.82,3,94.62,3,207.84c0,13.83,1.38,27.36,4.02,40.44C4.38,261.36,3,274.89,3,288.75
			H1.5V38.25C1.5,17.94,17.82,1.5,37.95,1.5h245.7v1.32c-12.93,0-25.56,1.2-37.83,3.51C233.55,4.02,220.92,2.82,207.99,2.82z"/>
	</g>
	<g>
		<path fill="none" stroke="#231F20" stroke-width="3" stroke-miterlimit="10" d="M490.17,288.54v168.39
			c0,20.311-16.35,36.75-36.48,36.75H283.65h-70.38h-10.56H37.95c-20.13,0-36.45-16.439-36.45-36.75V288.75V38.25
			C1.5,17.94,17.82,1.5,37.95,1.5h245.7h170.04c20.131,0,36.48,16.44,36.48,36.75V288.54z"/>
		<path fill="none" stroke="#231F20" stroke-width="3" stroke-miterlimit="10" d="M389.82,113.16
			c14.819,28.32,23.159,60.54,23.159,94.68c0,13.83-1.38,27.36-4.02,40.44c-16.32,81.63-81.12,145.77-163.14,161.04
			c-12.27,2.31-24.9,3.51-37.83,3.51c-38.88,0-75.24-10.83-106.2-29.64C53.58,353.94,18.42,305.4,7.02,248.28
			C4.38,235.2,3,221.67,3,207.84C3,94.62,94.77,2.82,207.99,2.82c12.93,0,25.56,1.2,37.83,3.51
			C308.55,18,361.26,58.32,389.82,113.16z"/>
		<path fill="none" stroke="#231F20" stroke-width="3" stroke-miterlimit="10" d="M346.05,247.59
			c0,55.351-44.88,100.23-100.23,100.23s-100.23-44.88-100.23-100.23c0-55.35,44.88-100.23,100.23-100.23
			S346.05,192.24,346.05,247.59z"/>
		<path fill="none" stroke="#231F20" stroke-width="3" stroke-miterlimit="10" d="M488.67,288.54
			c0,113.22-91.8,204.99-205.02,204.99c-12.72,0-25.2-1.17-37.29-3.391c-63-11.58-115.89-51.93-144.57-106.949
			C87,354.87,78.66,322.68,78.66,288.54c0-13.8,1.38-27.3,3.99-40.35C98.91,166.68,163.5,102.63,245.28,87.15
			c12.42-2.37,25.26-3.6,38.37-3.6c38.88,0,75.21,10.83,106.17,29.61c48.239,29.25,83.46,77.85,94.859,135.03
			C487.29,261.24,488.67,274.74,488.67,288.54z"/>
		<path fill="none" stroke="#231F20" stroke-width="3" stroke-miterlimit="10" d="M283.65,2.82c113.22,0,205.02,91.8,205.02,205.02
			c0,13.8-1.38,27.3-3.99,40.351C473.28,305.28,438.149,353.85,390,383.1c-30.99,18.87-67.41,29.73-106.35,29.73
			c-12.93,0-25.56-1.2-37.83-3.51C163.77,394.05,98.94,329.85,82.65,248.19c-2.61-13.05-3.99-26.55-3.99-40.351
			c0-34.02,8.28-66.15,22.98-94.38C130.2,58.44,182.97,18.03,245.82,6.33C258.09,4.02,270.72,2.82,283.65,2.82z"/>
		<path fill="none" stroke="#231F20" stroke-width="3" stroke-miterlimit="10" d="M408.96,248.28c2.64,13.08,4.02,26.609,4.02,40.47
			c0,34.021-8.279,66.12-22.979,94.35c-28.47,54.841-81,95.19-143.64,107.04c-10.74,2.04-21.81,3.24-33.09,3.54
			c-1.74,0.03-3.51,0.061-5.28,0.061s-3.54-0.03-5.28-0.061C91.92,490.86,3,400.2,3,288.75c0-13.86,1.38-27.39,4.02-40.47
			c11.4-57.06,46.5-105.57,94.62-134.82c30.99-18.84,67.41-29.7,106.35-29.7c12.72,0,25.2,1.17,37.29,3.39
			C327.54,102.27,392.61,166.47,408.96,248.28z"/>
		<path fill="none" stroke="#231F20" stroke-width="3" stroke-miterlimit="10" d="M294.48,247.62c0,26.7-21.78,48.33-48.66,48.33
			c-26.85,0-48.63-21.63-48.63-48.33c0-26.73,21.78-48.36,48.63-48.36C272.7,199.26,294.48,220.89,294.48,247.62z"/>
	</g>
</g>
</svg>
