<?xml version="1.0" encoding="utf-8"?>
<!-- Generator: Adobe Illustrator 15.0.2, SVG Export Plug-In  -->
<!DOCTYPE svg PUBLIC "-//W3C//DTD SVG 1.1//EN" "http://www.w3.org/Graphics/SVG/1.1/DTD/svg11.dtd" [
	<!ENTITY ns_flows "http://ns.adobe.com/Flows/1.0/">
]>
<svg version="1.1"
	 xmlns="http://www.w3.org/2000/svg" xmlns:xlink="http://www.w3.org/1999/xlink" xmlns:a="http://ns.adobe.com/AdobeSVGViewerExtensions/3.0/"
	 x="0px" y="0px" width="498px" height="501px" viewBox="-1.705 -1.232 498 501"
	 overflow="visible" enable-background="new -1.705 -1.232 498 501" xml:space="preserve">
<defs>
</defs>
<g id="XMLID_1_">
	<g>
		<polygon fill="#EC1C24" points="389.725,249.206 250.34,388.59 250.34,249.206 		"/>
		<polygon fill="#EC1C24" points="250.34,249.206 110.954,249.206 250.34,109.82 		"/>
		<polygon fill="#FFE200" points="214.852,73.794 250.877,109.82 250.608,110.088 250.34,109.82 110.954,249.206 110.775,249.026 
			110.954,248.817 75.675,213.568 74.392,212.285 213.867,72.81 		"/>
		<path fill="#310E31" d="M462.94,249.952c-0.389,117.119-94.884,212.092-211.854,213.227l-0.03-1.82l36.055-36.025l139.564-139.564
			l35.816-35.816H462.94z"/>
		<polygon fill="#FFE200" points="250.34,388.59 389.725,249.206 389.934,249.026 425.75,284.842 426.675,285.768 287.111,425.333 
			285.619,423.839 		"/>
		<polygon fill="#FFE200" points="389.725,248.817 389.934,249.026 389.725,249.206 250.608,110.088 250.877,109.82 286.126,74.541 
			286.604,74.063 425.542,213.001 424.974,213.568 		"/>
		<polygon fill="#37B34A" points="213.867,72.81 249.593,37.053 286.604,74.063 286.126,74.541 250.877,109.82 214.852,73.794 		"/>
		<polygon fill="#FFE200" points="110.954,249.206 250.34,388.59 214.314,424.616 74.75,285.022 74.929,284.842 110.775,249.026 		
			"/>
		<polygon fill="#37B34A" points="250.34,388.59 285.619,423.839 287.111,425.333 251.056,461.358 214.314,424.616 		"/>
		<path fill="#310E31" d="M34.964,248.429c0.418-117.806,96.078-213.197,213.973-213.197c0.239,0,0.448,0,0.687,0l-0.03,1.821
			L213.867,72.81L74.392,212.285l-36.204,36.175L34.964,248.429z"/>
		<polygon fill="#37B34A" points="74.75,285.022 38.188,248.459 74.392,212.285 75.675,213.568 110.954,248.817 110.775,249.026 
			74.929,284.842 		"/>
		<polygon fill="#AE1116" points="250.34,249.206 250.34,109.82 250.608,110.088 389.725,249.206 		"/>
		<path fill="#310E31" d="M38.188,248.459l36.562,36.562l139.564,139.594l36.742,36.742l0.03,1.82
			c-0.716,0.029-1.433,0.029-2.149,0.029c-118.164,0-213.973-95.809-213.973-214.002c0-0.269,0-0.508,0-0.776L38.188,248.459z"/>
		<polygon fill="#37B34A" points="389.725,248.817 424.974,213.568 425.542,213.001 462.492,249.952 426.675,285.768 
			425.75,284.842 389.934,249.026 		"/>
		<polygon fill="#AE1116" points="250.34,388.59 110.954,249.206 250.34,249.206 		"/>
		<path fill="#753762" d="M490.548,40.933v416.574c0,20.177-16.237,36.532-36.294,36.532H40.635
			c-20.027,0-36.264-16.355-36.264-36.532V40.933c0-20.177,16.237-36.562,36.264-36.562h413.62
			C474.311,4.371,490.548,20.756,490.548,40.933z M34.964,249.206c0,118.193,95.809,214.002,213.973,214.002
			c0.716,0,1.433,0,2.149-0.029c116.97-1.135,211.465-96.107,211.854-213.227c0-0.239,0-0.508,0-0.746
			c0-117.926-95.451-213.615-213.316-213.973c-0.239,0-0.448,0-0.687,0c-117.896,0-213.555,95.391-213.973,213.197
			C34.964,248.698,34.964,248.937,34.964,249.206z"/>
		<path fill="#310E31" d="M462.492,249.952l-36.95-36.951L286.604,74.063l-37.01-37.01l0.03-1.821
			C367.489,35.59,462.94,131.28,462.94,249.206c0,0.238,0,0.507,0,0.746H462.492z"/>
	</g>
	<g>
		<path fill="none" stroke="#231F20" stroke-width="8.741" stroke-miterlimit="10" d="M490.548,457.507
			c0,20.177-16.237,36.532-36.294,36.532H40.635c-20.027,0-36.264-16.355-36.264-36.532V40.933
			c0-20.177,16.237-36.562,36.264-36.562h413.62c20.057,0,36.294,16.386,36.294,36.562V457.507z"/>
		<path fill="none" stroke="#231F20" stroke-width="2.9137" stroke-miterlimit="10" d="M249.624,35.232
			C367.489,35.59,462.94,131.28,462.94,249.206c0,0.238,0,0.507,0,0.746c-0.389,117.119-94.884,212.092-211.854,213.227
			c-0.716,0.029-1.433,0.029-2.149,0.029c-118.164,0-213.973-95.809-213.973-214.002c0-0.269,0-0.508,0-0.776
			c0.418-117.806,96.078-213.197,213.973-213.197C249.176,35.232,249.385,35.232,249.624,35.232z"/>
		<polygon fill="none" stroke="#231F20" stroke-width="2.9137" stroke-miterlimit="10" points="462.492,249.952 426.675,285.768 
			287.111,425.333 251.056,461.358 214.314,424.616 74.75,285.022 38.188,248.459 74.392,212.285 213.867,72.81 249.593,37.053 
			286.604,74.063 425.542,213.001 		"/>
		<polygon fill="none" stroke="#231F20" stroke-width="2.9137" stroke-miterlimit="10" points="389.725,249.206 250.34,388.59 
			110.954,249.206 250.34,109.82 250.608,110.088 		"/>
		<polyline fill="none" stroke="#231F20" stroke-width="2.9137" stroke-miterlimit="10" points="250.34,109.82 250.34,249.206 
			250.34,388.59 		"/>
		<polyline fill="none" stroke="#231F20" stroke-width="2.9137" stroke-miterlimit="10" points="110.954,249.206 250.34,249.206 
			389.725,249.206 		"/>
		
			<line fill="none" stroke="#231F20" stroke-width="2.9137" stroke-miterlimit="10" x1="250.34" y1="388.59" x2="214.314" y2="424.616"/>
		
			<line fill="none" stroke="#231F20" stroke-width="2.9137" stroke-miterlimit="10" x1="250.34" y1="388.59" x2="285.619" y2="423.839"/>
		
			<line fill="none" stroke="#231F20" stroke-width="2.9137" stroke-miterlimit="10" x1="250.877" y1="109.82" x2="214.852" y2="73.794"/>
		
			<line fill="none" stroke="#231F20" stroke-width="2.9137" stroke-miterlimit="10" x1="250.877" y1="109.82" x2="286.126" y2="74.541"/>
		<polyline fill="none" stroke="#231F20" stroke-width="2.9137" stroke-miterlimit="10" points="110.954,248.817 110.775,249.026 
			74.929,284.842 		"/>
		
			<line fill="none" stroke="#231F20" stroke-width="2.9137" stroke-miterlimit="10" x1="110.954" y1="248.817" x2="75.675" y2="213.568"/>
		<polyline fill="none" stroke="#231F20" stroke-width="2.9137" stroke-miterlimit="10" points="389.725,248.817 389.934,249.026 
			425.75,284.842 		"/>
		
			<line fill="none" stroke="#231F20" stroke-width="2.9137" stroke-miterlimit="10" x1="389.725" y1="248.817" x2="424.974" y2="213.568"/>
	</g>
</g>
<path opacity="0.88" fill="#FDF0F5" d="M239.623,145.561v91.446h-77.697C161.925,237.007,225.054,226.172,239.623,145.561z"/>
<path opacity="0.88" fill="#76030E" d="M261.962,145.561v91.446h77.697C339.66,237.007,276.531,226.172,261.962,145.561z"/>
<path opacity="0.88" fill="#76030E" d="M148.178,260.239h91.444v77.699C239.623,337.938,228.788,274.807,148.178,260.239z"/>
<path opacity="0.88" fill="#FDF0F5" d="M261.962,351.683v-91.444h77.697C339.66,260.239,276.531,271.074,261.962,351.683z"/>
<rect x="231.869" y="55.335" transform="matrix(0.7071 -0.7071 0.7071 0.7071 21.1423 198.6172)" fill="#9CCD6D" width="36.908" height="36.906"/>
<rect x="56.468" y="230.36" transform="matrix(0.7071 -0.7071 0.7071 0.7071 -153.9927 125.8528)" fill="#9CCD6D" width="36.908" height="36.905"/>
<rect x="406.521" y="230.359" transform="matrix(0.7071 -0.7071 0.7071 0.7071 -51.4645 373.3777)" fill="#9CCD6D" width="36.908" height="36.907"/>
<rect x="232.399" y="406.136" transform="matrix(0.7071 -0.7071 0.7071 0.7071 -226.7544 301.7306)" fill="#9CCD6D" width="36.908" height="36.906"/>
<rect x="335.289" y="67.546" transform="matrix(0.7072 -0.7071 0.7071 0.7072 -14.2926 287.271)" fill="#FFF9BB" width="8.74" height="186.689"/>
<rect x="157.556" y="67.549" transform="matrix(0.7071 0.7072 -0.7072 0.7071 161.2137 -67.3747)" fill="#FFF9BB" width="8.74" height="186.688"/>
<rect x="335.289" y="244.594" transform="matrix(0.7071 0.7071 -0.7071 0.7071 338.4418 -141.1957)" fill="#FFF9BB" width="8.741" height="186.687"/>
<rect x="157.557" y="244.592" transform="matrix(0.7071 -0.7071 0.7071 0.7071 -191.5291 213.4781)" fill="#FFF9BB" width="8.739" height="186.686"/>
<rect x="236.597" y="60.066" transform="matrix(0.7071 -0.7071 0.7071 0.7071 21.1342 198.6052)" fill="#D3E067" width="27.45" height="27.447"/>
<rect x="61.196" y="235.09" transform="matrix(0.7071 -0.7071 0.7071 0.7071 -153.9879 125.8418)" fill="#D3E067" width="27.45" height="27.447"/>
<rect x="411.25" y="235.09" transform="matrix(0.7071 -0.7071 0.7071 0.7071 -51.4658 373.3784)" fill="#D3E067" width="27.449" height="27.448"/>
<rect x="237.127" y="410.87" transform="matrix(0.7071 -0.7071 0.7071 0.7071 -226.7537 301.7157)" fill="#D3E067" width="27.45" height="27.447"/>
</svg>
