<?xml version="1.0" encoding="utf-8"?>
<!-- Generator: Adobe Illustrator 15.0.2, SVG Export Plug-In  -->
<!DOCTYPE svg PUBLIC "-//W3C//DTD SVG 1.1//EN" "http://www.w3.org/Graphics/SVG/1.1/DTD/svg11.dtd" [
	<!ENTITY ns_flows "http://ns.adobe.com/Flows/1.0/">
]>
<svg version="1.1"
	 xmlns="http://www.w3.org/2000/svg" xmlns:xlink="http://www.w3.org/1999/xlink" xmlns:a="http://ns.adobe.com/AdobeSVGViewerExtensions/3.0/"
	 x="0px" y="0px" width="498px" height="501px" viewBox="-3.649 -0.5 498 501"
	 overflow="visible" enable-background="new -3.649 -0.5 498 501" xml:space="preserve">
<defs>
</defs>
<g id="XMLID_1_">
	<g>
		<path fill="#FFCA32" d="M320.52,162.745c0,0,0.03-6,1.62-15.18c-1.11,7.83-1.32,13.29-1.38,14.97L320.52,162.745z"/>
		<path fill="#A0CC3A" d="M346.26,92.695c17.55-21.54,47.101-39.72,96.84-39.72l-70.5,63.15L346.26,92.695z"/>
		<path fill="#694A9D" d="M411.75,139.585c35.85-19.41,68.55-54.93,69.09-119.85l0.601-0.51c5.52,6.42,8.85,14.82,8.85,23.97v145.86
			h-1.35L411.75,139.585z"/>
		<path fill="#006838" d="M342.06,88.975c20.37-35.37,60.27-70.23,138.36-70.89c0.15,0.15,0.3,0.3,0.45,0.48
			c0,0.39,0,0.78-0.03,1.17l-37.74,33.81c0-0.18,0-0.39,0-0.57c-49.739,0-79.29,18.18-96.84,39.72L342.06,88.975z"/>
		<path fill="#006838" d="M480.87,18.085c0,0.15,0,0.33,0,0.48c-0.15-0.18-0.3-0.33-0.45-0.48
			C480.57,18.055,480.72,18.055,480.87,18.085z"/>
		<path fill="#006838" d="M372.9,116.395l-51.75,46.35c-0.15,0-0.27,0-0.39,0c0-0.06,0-0.15,0-0.21l51.84-46.41L372.9,116.395z"/>
		<path fill="#006838" d="M321.03,163.045l0.36-0.3c6.66-0.12,50.79-1.77,84.03-27.21l6.33,4.05
			C373.11,160.525,330.78,162.805,321.03,163.045z"/>
		<path fill="#006838" d="M321.15,162.745l-0.36,0.3h-0.03c0-0.06,0-0.15,0-0.3C320.88,162.745,321,162.745,321.15,162.745z"/>
		<path fill="#3F2562" d="M480.42,18.085c-78.09,0.66-117.99,35.52-138.36,70.89l-92.76-82.5h204.51
			C464.31,6.475,473.76,10.945,480.42,18.085z"/>
		<path fill="#FFCA32" d="M320.73,163.315l-0.09-0.27c0.03,0,0.09,0,0.12,0c0,0.03,0,0.03,0,0.03l0.03-0.03c0.09,0,0.15,0,0.24,0
			L320.73,163.315z"/>
		<path fill="#1DB14B" d="M443.1,53.545l37.74-33.81c-0.54,64.92-33.24,100.44-69.09,119.85l-6.33-4.05
			c20.88-15.99,37.47-41.4,37.68-81.78C443.1,53.695,443.1,53.635,443.1,53.545z"/>
		<path fill="#00ADE4" d="M488.94,189.055h1.35v2.4h-0.51l-0.66-0.45l-167.55-25.92l-0.84-1.77l0.3-0.27
			c9.75-0.24,52.081-2.52,90.72-23.46L488.94,189.055z"/>
		<path fill="#1DB14B" d="M322.47,145.585c2.22-14.31,7.44-35.55,19.59-56.61l4.2,3.72
			C331.41,110.875,325.14,131.455,322.47,145.585z"/>
		<path fill="#0091D3" d="M171.84,164.245l0.15,0.24l-0.27,0.6L4.14,191.005l79.08-50.64c11.31,5.61,22.8,9.69,33.57,12.69
			C142.2,163.105,166.41,164.155,171.84,164.245z"/>
		<path fill="#FFCA32" d="M320.79,163.045l0.36-0.3c0.06,0,0.15,0,0.24,0l-0.36,0.3C320.94,163.045,320.88,163.045,320.79,163.045z"
			/>
		<path fill="#006838" d="M443.1,53.755l-70.08,62.73l-0.119-0.09l70.199-62.85C443.1,53.635,443.1,53.695,443.1,53.755z"/>
		<path fill="#006838" d="M405.42,135.535c-33.24,25.44-77.37,27.09-84.03,27.21l51.629-46.26l1.591,1.44l1.199-1.35L405.42,135.535
			z"/>
		<path fill="#006838" d="M443.1,53.545l-70.199,62.85l-0.301-0.27l70.5-63.15C443.1,53.155,443.1,53.365,443.1,53.545z"/>
		<path fill="#0091D3" d="M171.72,164.095l0.12,0.15c-5.43-0.09-29.64-1.14-55.05-11.19c24.18,6.69,44.73,7.83,51.54,7.98
			L171.72,164.095z"/>
		<polygon fill="#FFCA32" points="320.64,163.045 320.73,163.315 318.75,165.085 246.63,264.535 246.63,263.544 246.63,6.475 
			248.01,6.475 		"/>
		<path fill="#00B2EA" d="M321.15,162.745l51.75-46.35l0.119,0.09l-51.629,46.26C321.3,162.745,321.21,162.745,321.15,162.745z"/>
		<path fill="#00A78D" d="M405.42,135.535l-29.61-18.96l-1.199,1.35l-1.591-1.44l70.08-62.73
			C442.89,94.135,426.3,119.545,405.42,135.535z"/>
		<path fill="#00B2EA" d="M320.76,162.745c0,0.15,0,0.24,0,0.3c-0.03,0-0.09,0-0.12,0L248.01,6.475h1.29l92.76,82.5
			c-12.15,21.06-17.37,42.3-19.59,56.61c-0.12,0.66-0.21,1.32-0.33,1.98c-1.59,9.18-1.62,15.18-1.62,15.18
			S320.61,162.745,320.76,162.745z"/>
		<path fill="#00A551" d="M346.26,92.695l26.34,23.43l-51.84,46.41c0.06-1.68,0.27-7.14,1.38-14.97c0.12-0.66,0.21-1.32,0.33-1.98
			C325.14,131.455,331.41,110.875,346.26,92.695z"/>
		<path fill="#FFCA32" d="M320.52,162.745l0.24-0.21c0,0.06,0,0.15,0,0.21C320.61,162.745,320.52,162.745,320.52,162.745z"/>
		<path fill="#00A551" d="M171.69,163.105l-2.28-2.04l-49.8-44.58l26.52-23.61c10.35,12.24,16.71,25.68,20.58,37.56v0.03
			C170.91,146.935,171.6,159.595,171.69,163.105z"/>
		<path fill="#694A9D" d="M8.85,21.235c1.74,65.85,37.11,100.68,74.37,119.13l-79.08,50.64H1.62V43.195
			C1.62,34.975,4.29,27.385,8.85,21.235z"/>
		<path fill="#00B2EA" d="M172.11,164.245c-0.09,0.03-0.18,0.03-0.27,0l-0.12-0.15c0,0,0-0.33-0.03-0.99l0.66,0.6L172.11,164.245z"
			/>
		<path fill="#006838" d="M116.79,153.055c-10.77-3-22.26-7.08-33.57-12.69l4.98-3.21C97.26,144.055,107.1,149.215,116.79,153.055z"
			/>
		<path fill="#00B2EA" d="M171.69,163.105c-0.09-3.51-0.78-16.17-4.98-32.64c4.95,15,6,27.51,6.21,32.01l-0.57,1.23L171.69,163.105z
			"/>
		<path fill="#006838" d="M168.33,161.035c-6.81-0.15-27.36-1.29-51.54-7.98c-9.69-3.84-19.53-9-28.59-15.9l29.1-18.63l1.77-1.56
			L168.33,161.035z"/>
		<path fill="#006838" d="M50.43,55.495l-40.2-36c0.12-0.15,0.24-0.3,0.36-0.42c78.6,0.24,118.86,34.92,139.47,70.32l-3.93,3.48
			c-17.7-20.97-47.04-38.37-95.73-38.37C50.4,54.835,50.4,55.165,50.43,55.495z"/>
		<path fill="#1DB14B" d="M50.43,55.495v0.03c0.24,40.29,16.86,65.67,37.77,81.63l-4.98,3.21c-37.26-18.45-72.63-53.28-74.37-119.13
			c0,0,0,0,0-0.03c0.45-0.57,0.9-1.14,1.38-1.71L50.43,55.495z"/>
		<path fill="#00B2EA" d="M245.25,6.475l-72.33,156c-0.21-4.5-1.26-17.01-6.21-32.01v-0.03c-3.18-12.3-8.31-26.73-16.65-41.04
			l93.21-82.92H245.25z"/>
		<path fill="#FFF100" d="M171.99,164.485l0.12-0.24c0.45,0.03,0.75,0.03,0.84,0.03c0.03,0,0.03,0,0.03,0s0-0.63-0.06-1.8l72.33-156
			h1.38v257.069L171.99,164.485z"/>
		<path fill="#0091D3" d="M169.41,161.065l2.28,2.04c0.03,0.66,0.03,0.99,0.03,0.99l-3.39-3.06
			C168.75,161.065,169.08,161.065,169.41,161.065z"/>
		<path fill="#00A78D" d="M50.4,54.505l69.21,61.98l-0.54,0.48l-68.64-61.44v-0.03C50.4,55.165,50.4,54.835,50.4,54.505z"/>
		<path fill="#FFCA32" d="M172.35,163.705l0.6,0.57c-0.09,0-0.39,0-0.84-0.03L172.35,163.705z"/>
		<path fill="#1DB14B" d="M166.71,130.435c-3.87-11.88-10.23-25.32-20.58-37.56l3.93-3.48
			C158.4,103.705,163.53,118.135,166.71,130.435z"/>
		<polygon fill="#FFCA32" points="4.14,191.005 171.72,165.085 171.99,164.485 246.63,263.544 246.63,264.535 		"/>
		<path fill="#00A78D" d="M117.3,118.525l-29.1,18.63c-20.91-15.96-37.53-41.34-37.77-81.63l68.64,61.44L117.3,118.525z"/>
		<path fill="#A0CC3A" d="M119.61,116.485L50.4,54.505c48.69,0,78.03,17.4,95.73,38.37L119.61,116.485z"/>
		<path fill="#00B2EA" d="M172.11,164.245l-0.12,0.24l-0.15-0.24C171.93,164.275,172.02,164.275,172.11,164.245z"/>
		<path fill="#006838" d="M119.61,116.485l49.8,44.58c-0.33,0-0.66,0-1.08-0.03l-49.26-44.07L119.61,116.485z"/>
		<path fill="#00A551" d="M172.95,164.275l-0.6-0.57l0.57-1.23c0.06,1.17,0.06,1.8,0.06,1.8S172.98,164.275,172.95,164.275z"/>
		<path fill="#694A9D" d="M490.29,375.175v86.729c0,20.28-16.35,36.75-36.48,36.75h-57.3v-4.229l25.23-151.351l0.39-0.87
			l67.95,32.971H490.29z"/>
		<polygon fill="#3F2562" points="490.29,191.455 490.29,375.175 490.08,375.175 422.13,342.205 489.78,191.455 		"/>
		<polygon fill="#00B2EA" points="489.78,191.455 422.13,342.205 368.49,316.165 489.12,191.005 		"/>
		<polygon fill="#FFCA32" points="368.49,316.165 367.89,316.794 246.63,264.535 489.12,191.005 		"/>
		<polygon fill="#FFF100" points="489.12,191.005 246.63,264.535 318.75,165.085 320.73,163.315 321.57,165.085 		"/>
		<polygon fill="#0091D3" points="422.13,342.205 421.74,343.075 396.51,494.425 367.89,316.794 368.49,316.165 		"/>
		<polygon fill="#3F2562" points="396.51,494.425 396.51,498.655 246.63,498.655 246.63,496.915 246.63,460.855 393.33,494.425 
			394.08,493.075 		"/>
		<polygon fill="#FFF100" points="367.89,316.794 396.51,494.425 246.63,264.535 		"/>
		<polygon fill="#FFCA32" points="246.63,264.535 396.51,494.425 394.08,493.075 246.63,410.575 		"/>
		<polygon fill="#00B2EA" points="246.63,410.575 394.08,493.075 393.33,494.425 246.63,460.855 		"/>
		<polygon fill="#3F2562" points="246.63,496.915 246.63,498.655 96.78,498.655 96.78,494.425 245.07,460.495 246.63,460.855 		"/>
		<polygon fill="#00B2EA" points="245.07,460.495 96.78,494.425 246.63,410.575 246.63,460.855 		"/>
		<polygon fill="#FFF100" points="246.63,264.535 246.63,410.575 96.78,494.425 		"/>
		<polygon fill="#FFCA32" points="246.63,264.535 96.78,494.425 125.4,316.794 		"/>
		<polygon fill="#FFF100" points="246.63,264.535 125.4,316.794 4.14,191.005 		"/>
		<path fill="#3F2562" d="M243.27,6.475l-93.21,82.92c-20.61-35.4-60.87-70.08-139.47-70.32c6.69-7.71,16.5-12.6,27.48-12.6H243.27z
			"/>
		<polygon fill="#00B2EA" points="4.14,191.005 125.4,316.794 72.21,342.595 		"/>
		<polygon fill="#0091D3" points="125.4,316.794 96.78,494.425 72.21,342.625 72.21,342.595 		"/>
		<path fill="#694A9D" d="M96.78,494.425v4.229H38.07c-20.13,0-36.45-16.47-36.45-36.75v-85.05l70.59-34.26v0.029L96.78,494.425z"/>
		<polygon fill="#3F2562" points="72.21,342.595 1.62,376.855 1.62,191.005 4.14,191.005 		"/>
	</g>
	<g>
		<path fill="none" stroke="#231F20" stroke-width="3" stroke-miterlimit="10" d="M8.85,21.205c0.45-0.57,0.9-1.14,1.38-1.71
			c0.12-0.15,0.24-0.3,0.36-0.42c6.69-7.71,16.5-12.6,27.48-12.6h205.2h1.98h1.38h1.38h1.29h204.51c10.5,0,19.95,4.47,26.61,11.61
			c0.15,0.15,0.3,0.3,0.45,0.48c0.18,0.21,0.39,0.45,0.57,0.66c5.52,6.42,8.85,14.82,8.85,23.97v145.86v2.4v183.72v86.729
			c0,20.28-16.35,36.75-36.48,36.75h-57.3H246.63H96.78H38.07c-20.13,0-36.45-16.47-36.45-36.75v-85.05v-185.85V43.195
			c0-8.22,2.67-15.81,7.23-21.96"/>
		<polygon fill="none" stroke="#231F20" stroke-width="3" stroke-miterlimit="10" points="246.63,3.475 247.11,4.525 248.01,6.475 
			320.64,163.045 320.73,163.315 321.57,165.085 489.12,191.005 368.49,316.165 367.89,316.794 396.51,494.425 394.08,493.075 
			246.63,410.575 96.78,494.425 125.4,316.794 4.14,191.005 171.72,165.085 171.99,164.485 172.11,164.245 172.35,163.705 
			172.92,162.475 245.25,6.475 246.42,3.895 		"/>
		<polyline fill="none" stroke="#231F20" stroke-width="3" stroke-miterlimit="10" points="246.63,410.575 246.63,460.855 
			246.63,496.915 		"/>
		<polyline fill="none" stroke="#231F20" stroke-width="3" stroke-miterlimit="10" points="318.75,165.085 320.73,163.315 
			321.03,163.045 321.39,162.745 373.02,116.485 443.1,53.755 480.72,20.065 		"/>
		<line fill="none" stroke="#231F20" stroke-width="3" stroke-miterlimit="10" x1="168.33" y1="161.035" x2="171.72" y2="164.095"/>
		
			<line fill="none" stroke="#231F20" stroke-width="3" stroke-linecap="round" stroke-linejoin="round" x1="119.07" y1="116.965" x2="168.33" y2="161.035"/>
		<line fill="none" stroke="#231F20" stroke-width="3" stroke-miterlimit="10" x1="50.43" y1="55.525" x2="119.07" y2="116.965"/>
		<path fill="none" stroke="#231F20" stroke-width="3" stroke-miterlimit="10" d="M166.71,130.435
			c-3.18-12.3-8.31-26.73-16.65-41.04c-20.61-35.4-60.87-70.08-139.47-70.32c-0.27,0-0.57,0-0.84,0l0.48,0.42l40.2,36"/>
		<path fill="none" stroke="#231F20" stroke-width="3" stroke-miterlimit="10" d="M246.63,263.544l-74.64-99.06l-0.15-0.24
			l-0.12-0.15c0,0,0-0.33-0.03-0.99c-0.09-3.51-0.78-16.17-4.98-32.64"/>
		<line fill="none" stroke="#231F20" stroke-width="3" stroke-miterlimit="10" x1="246.63" y1="264.535" x2="318.75" y2="165.085"/>
		<line fill="none" stroke="#231F20" stroke-width="3" stroke-miterlimit="10" x1="246.63" y1="264.535" x2="125.4" y2="316.794"/>
		<line fill="none" stroke="#231F20" stroke-width="3" stroke-miterlimit="10" x1="246.63" y1="264.535" x2="246.63" y2="410.575"/>
		<line fill="none" stroke="#231F20" stroke-width="3" stroke-miterlimit="10" x1="246.63" y1="264.535" x2="367.89" y2="316.794"/>
		<line fill="none" stroke="#231F20" stroke-width="3" stroke-miterlimit="10" x1="246.63" y1="264.535" x2="489.12" y2="191.005"/>
		<polyline fill="none" stroke="#231F20" stroke-width="3" stroke-miterlimit="10" points="246.63,264.535 246.63,263.544 
			246.63,6.475 246.63,4.075 246.63,3.475 		"/>
		<line fill="none" stroke="#231F20" stroke-width="3" stroke-miterlimit="10" x1="4.14" y1="191.005" x2="246.63" y2="264.535"/>
		<line fill="none" stroke="#231F20" stroke-width="3" stroke-miterlimit="10" x1="246.63" y1="264.535" x2="96.78" y2="494.425"/>
		<line fill="none" stroke="#231F20" stroke-width="3" stroke-miterlimit="10" x1="246.63" y1="264.535" x2="396.51" y2="494.425"/>
		<polyline fill="none" stroke="#231F20" stroke-width="3" stroke-miterlimit="10" points="4.14,191.005 83.22,140.365 
			88.2,137.155 117.3,118.525 		"/>
		<polyline fill="none" stroke="#231F20" stroke-width="3" stroke-miterlimit="10" points="488.94,189.055 411.75,139.585 
			405.42,135.535 375.81,116.575 		"/>
		<polyline fill="none" stroke="#231F20" stroke-width="3" stroke-miterlimit="10" points="117.3,118.525 119.07,116.965 
			119.61,116.485 146.13,92.875 150.06,89.395 243.27,6.475 246.3,3.775 246.63,3.475 		"/>
		<polyline fill="none" stroke="#231F20" stroke-width="3" stroke-miterlimit="10" points="375.3,118.525 374.61,117.925 
			373.02,116.485 372.9,116.395 372.6,116.125 346.26,92.695 342.06,88.975 249.3,6.475 247.11,4.525 246.63,4.075 246.42,3.895 
			246.3,3.775 245.94,3.475 		"/>
		<polyline fill="none" stroke="#231F20" stroke-width="3" stroke-miterlimit="10" points="125.4,316.794 72.21,342.595 
			1.62,376.855 0.75,377.275 		"/>
		<polyline fill="none" stroke="#231F20" stroke-width="3" stroke-miterlimit="10" points="365.43,314.695 368.49,316.165 
			422.13,342.205 490.08,375.175 		"/>
		<polyline fill="none" stroke="#231F20" stroke-width="3" stroke-miterlimit="10" points="4.14,191.005 72.21,342.595 
			72.21,342.625 		"/>
		<polyline fill="none" stroke="#231F20" stroke-width="3" stroke-miterlimit="10" points="489.78,191.455 422.13,342.205 
			421.74,343.075 		"/>
		<line fill="none" stroke="#231F20" stroke-width="3" stroke-miterlimit="10" x1="72.21" y1="342.625" x2="96.78" y2="494.425"/>
		<line fill="none" stroke="#231F20" stroke-width="3" stroke-miterlimit="10" x1="421.74" y1="343.075" x2="396.51" y2="494.425"/>
		<polyline fill="none" stroke="#231F20" stroke-width="3" stroke-miterlimit="10" points="96.78,494.425 245.07,460.495 
			245.94,460.285 		"/>
		<polyline fill="none" stroke="#231F20" stroke-width="3" stroke-miterlimit="10" points="393.33,494.425 246.63,460.855 
			245.07,460.495 244.17,460.285 		"/>
		<polyline fill="none" stroke="#231F20" stroke-width="3" stroke-linecap="round" stroke-linejoin="round" points="443.1,53.545 
			372.9,116.395 321.15,162.745 320.79,163.045 320.76,163.075 		"/>
		<path fill="none" stroke="#231F20" stroke-width="3" stroke-miterlimit="10" d="M322.47,145.585
			c2.22-14.31,7.44-35.55,19.59-56.61c20.37-35.37,60.27-70.23,138.36-70.89c0.15-0.03,0.3-0.03,0.45,0
			c0.63-0.03,1.229-0.03,1.859-0.03l-1.289,1.17l-0.601,0.51l-37.74,33.81"/>
		<path fill="none" stroke="#231F20" stroke-width="3" stroke-linecap="round" stroke-linejoin="round" d="M320.76,162.535
			c0.06-1.68,0.27-7.14,1.38-14.97"/>
		<path fill="none" stroke="#231F20" stroke-width="3" stroke-miterlimit="10" d="M320.76,163.075c0,0,0,0,0-0.03
			c0-0.06,0-0.15,0-0.3c0-0.06,0-0.15,0-0.21"/>
		<path fill="none" stroke="#231F20" stroke-width="3" stroke-miterlimit="10" d="M170.73,161.095c0,0-0.45,0-1.32-0.03
			c-0.33,0-0.66,0-1.08-0.03c-6.81-0.15-27.36-1.29-51.54-7.98c-10.77-3-22.26-7.08-33.57-12.69
			c-37.26-18.45-72.63-53.28-74.37-119.13c0,0,0,0,0-0.03c-0.06-1.68-0.09-3.39-0.09-5.13"/>
		<path fill="none" stroke="#231F20" stroke-width="3" stroke-miterlimit="10" d="M318.93,163.075c0,0,0.6,0,1.71-0.03
			c0.03,0,0.09,0,0.12,0h0.03c0.09,0,0.15,0,0.24,0c9.75-0.24,52.081-2.52,90.72-23.46c35.85-19.41,68.55-54.93,69.09-119.85
			c0.03-0.39,0.03-0.78,0.03-1.17c0-0.15,0-0.33,0-0.48v-0.03"/>
		<path fill="none" stroke="#231F20" stroke-width="3" stroke-linecap="round" stroke-linejoin="round" d="M172.98,164.275
			c0,0,0-0.63-0.06-1.8c-0.21-4.5-1.26-17.01-6.21-32.01v-0.03c-3.87-11.88-10.23-25.32-20.58-37.56
			c-17.7-20.97-47.04-38.37-95.73-38.37l69.21,61.98l49.8,44.58l2.28,2.04l0.66,0.6l0.6,0.57"/>
		<path fill="none" stroke="#231F20" stroke-width="3" stroke-linecap="round" stroke-linejoin="round" d="M172.98,164.275
			c0,0,0,0-0.03,0c-0.09,0-0.39,0-0.84-0.03c-0.09,0.03-0.18,0.03-0.27,0c-5.43-0.09-29.64-1.14-55.05-11.19
			c-9.69-3.84-19.53-9-28.59-15.9c-20.91-15.96-37.53-41.34-37.77-81.63v-0.03c-0.03-0.33-0.03-0.66-0.03-0.99"/>
		<path fill="none" stroke="#231F20" stroke-width="3" stroke-linecap="round" stroke-linejoin="round" d="M320.52,162.745
			c0,0,0.03-6,1.62-15.18c0.12-0.66,0.21-1.32,0.33-1.98c2.67-14.13,8.94-34.71,23.79-52.89c17.55-21.54,47.101-39.72,96.84-39.72
			l-70.5,63.15l-51.84,46.41L320.52,162.745"/>
		<path fill="none" stroke="#231F20" stroke-width="3" stroke-linecap="round" stroke-linejoin="round" d="M320.52,162.745
			c0,0,0.09,0,0.24,0c0.12,0,0.24,0,0.39,0c0.06,0,0.15,0,0.24,0c6.66-0.12,50.79-1.77,84.03-27.21
			c20.88-15.99,37.47-41.4,37.68-81.78c0-0.06,0-0.12,0-0.21c0-0.18,0-0.39,0-0.57"/>
	</g>
</g>
</svg>
