<?xml version="1.0" encoding="utf-8"?>
<!-- Generator: Adobe Illustrator 15.0.2, SVG Export Plug-In  -->
<!DOCTYPE svg PUBLIC "-//W3C//DTD SVG 1.1//EN" "http://www.w3.org/Graphics/SVG/1.1/DTD/svg11.dtd" [
	<!ENTITY ns_flows "http://ns.adobe.com/Flows/1.0/">
]>
<svg version="1.1"
	 xmlns="http://www.w3.org/2000/svg" xmlns:xlink="http://www.w3.org/1999/xlink" xmlns:a="http://ns.adobe.com/AdobeSVGViewerExtensions/3.0/"
	 x="0px" y="0px" width="131px" height="563px" viewBox="-4.083 -3.455 131 563"
	 overflow="visible" enable-background="new -4.083 -3.455 131 563" xml:space="preserve">
<defs>
</defs>
<g id="XMLID_1_">
	<g>
		<path fill="#FFFFFF" d="M10.443,518.577c11.75,9.71,48.46,11.42,50.64,11.52c-14.03-0.359-23.06,11.46-23.06,11.46
			C28.893,536.407,15.303,523.377,10.443,518.577z"/>
		<path fill="#FFC640" d="M61.083,530.097c-2.18-0.1-38.89-1.81-50.64-11.52c-0.97-0.95-1.59-1.58-1.77-1.76
			c0.49,0.62,1.09,1.2,1.77,1.76c4.86,4.8,18.45,17.83,27.58,22.979C38.023,541.557,47.053,529.737,61.083,530.097z
			 M122.543,509.268c0,0-61.11,103.979-122.22,0l0.2-0.73h0.38h34.66h51.74h35.24V509.268z M43.983,541.997
			c0,4.31,6.69,7.79,14.95,7.79c8.25,0,14.94-3.48,14.94-7.79c0-4.3-6.69-7.79-14.94-7.79
			C50.673,534.207,43.983,537.697,43.983,541.997z"/>
		<polygon fill="#0071BC" points="122.733,508.537 97.633,276.777 122.433,47.577 122.733,47.577 		"/>
		<path fill="#FFFFFF" d="M59.743,19.327c-10.09,0-18.26-3.22-18.26-7.19c0-3.98,8.17-7.19,18.26-7.19
			c10.08,0,18.25,3.21,18.25,7.19C77.993,16.107,69.823,19.327,59.743,19.327z"/>
		<polygon fill="#29ABE2" points="25.623,508.268 35.563,508.268 35.563,508.537 0.903,508.537 0.903,508.327 25.623,280.087 		"/>
		<path fill="#FFC640" d="M110.503,35.767c-4.85-4.41-18.46-16.46-27.61-21.22c0,0-9.06,10.96-23.15,10.57
			C59.743,25.117,98.413,26.517,110.503,35.767z M0.613,46.097c61.01-103.16,121.93,0.49,121.93,0.49l-0.11,0.99h-24.8v-0.09h-72.01
			v0.09h-24.4l-0.13-1.2L0.613,46.097z M110.553,35.817c0.93,0.84,1.52,1.4,1.7,1.56C111.773,36.827,111.203,36.307,110.553,35.817z
			 M41.483,12.137c0,3.97,8.17,7.19,18.26,7.19c10.08,0,18.25-3.22,18.25-7.19c0-3.98-8.17-7.19-18.25-7.19
			C49.653,4.947,41.483,8.157,41.483,12.137z"/>
		<polygon fill="#29ABE2" points="122.543,508.537 87.303,508.537 87.303,508.268 97.633,508.268 97.633,276.777 122.733,508.537 		
			"/>
		<polygon fill="#FBB03B" points="25.623,273.067 25.623,47.577 87.303,47.577 87.303,47.747 35.563,47.747 35.563,508.268 
			25.623,508.268 25.623,280.087 26.003,276.577 		"/>
		<polygon fill="#29ABE2" points="97.633,276.777 97.633,47.577 122.433,47.577 		"/>
		<polygon fill="#0071BC" points="0.903,508.327 0.903,508.537 0.523,508.537 0.523,47.577 1.223,47.577 25.623,273.067 
			25.623,280.087 		"/>
		<polygon fill="#FBB03B" points="87.303,47.747 87.303,47.577 97.633,47.577 97.633,276.777 97.633,508.268 87.303,508.268 		"/>
		<path fill="#FFFFFF" d="M58.933,549.787c-8.26,0-14.95-3.48-14.95-7.79c0-4.3,6.69-7.79,14.95-7.79c8.25,0,14.94,3.49,14.94,7.79
			C73.873,546.307,67.183,549.787,58.933,549.787z"/>
		<path fill="#FFFFFF" d="M59.743,25.117c14.09,0.39,23.15-10.57,23.15-10.57c9.15,4.76,22.76,16.81,27.61,21.22
			C98.413,26.517,59.743,25.117,59.743,25.117z"/>
		<polygon fill="#29ABE2" points="25.623,273.067 1.223,47.577 25.623,47.577 		"/>
	</g>
	<g>
		<polyline fill="none" stroke="#231F20" stroke-width="0.75" stroke-miterlimit="10" points="35.563,508.537 0.903,508.537 
			0.523,508.537 0.523,47.577 1.223,47.577 25.623,47.577 87.303,47.577 97.633,47.577 122.433,47.577 122.733,47.577 
			122.733,508.537 122.543,508.537 87.303,508.537 		"/>
		<polygon fill="none" stroke="#231F20" stroke-width="0.75" stroke-miterlimit="10" points="25.623,47.577 25.623,47.487 
			97.633,47.487 97.633,47.577 97.633,276.777 97.633,508.268 87.303,508.268 35.563,508.268 25.623,508.268 25.623,280.087 
			25.623,273.067 		"/>
		<path fill="none" stroke="#231F20" stroke-width="0.75" stroke-miterlimit="10" d="M122.543,509.268c0,0-61.11,103.979-122.22,0"
			/>
		<path fill="none" stroke="#231F20" stroke-width="0.75" stroke-miterlimit="10" d="M122.543,46.587c0,0-60.92-103.65-121.93-0.49
			c-0.1,0.16-0.19,0.33-0.29,0.49"/>
		<polyline fill="none" stroke="#231F20" stroke-width="0.75" stroke-miterlimit="10" points="35.563,508.537 35.563,508.268 
			35.563,47.747 87.303,47.747 87.303,508.268 87.303,508.537 		"/>
		
			<line fill="none" stroke="#231F20" stroke-width="0.75" stroke-miterlimit="10" x1="122.733" y1="508.537" x2="97.633" y2="276.777"/>
		<polyline fill="none" stroke="#231F20" stroke-width="0.75" stroke-miterlimit="10" points="97.633,276.777 122.433,47.577 
			122.543,46.587 		"/>
		<polyline fill="none" stroke="#231F20" stroke-width="0.75" stroke-miterlimit="10" points="0.903,508.327 25.623,280.087 
			26.003,276.577 		"/>
		<polyline fill="none" stroke="#231F20" stroke-width="0.75" stroke-miterlimit="10" points="26.003,276.577 25.623,273.067 
			1.223,47.577 1.093,46.377 		"/>
	</g>
</g>
</svg>
