<?xml version="1.0" encoding="utf-8"?>
<!-- Generator: Adobe Illustrator 15.0.2, SVG Export Plug-In  -->
<!DOCTYPE svg PUBLIC "-//W3C//DTD SVG 1.1//EN" "http://www.w3.org/Graphics/SVG/1.1/DTD/svg11.dtd" [
	<!ENTITY ns_flows "http://ns.adobe.com/Flows/1.0/">
]>
<svg version="1.1"
	 xmlns="http://www.w3.org/2000/svg" xmlns:xlink="http://www.w3.org/1999/xlink" xmlns:a="http://ns.adobe.com/AdobeSVGViewerExtensions/3.0/"
	 x="0px" y="0px" width="498px" height="501px" viewBox="-4.929 -5.602 498 501"
	 overflow="visible" enable-background="new -4.929 -5.602 498 501" xml:space="preserve">
<defs>
</defs>
<g id="XMLID_1_">
	<g>
		<path fill="#FFF100" d="M485.691,365.931v94.529c0,7.62-3.03,14.551-7.95,19.62L363.891,365.96v-0.029h0.03H485.691z"/>
		<polygon fill="#B7DACB" points="485.691,244.701 485.691,365.931 363.921,365.931 484.461,244.701 		"/>
		<polygon fill="#FFF584" points="485.691,123.861 485.691,244.701 484.461,244.701 363.891,123.411 363.861,123.381 
			484.461,123.861 		"/>
		<polygon fill="#FFFBD4" points="363.891,123.411 484.461,244.701 411.621,206.271 		"/>
		<polygon fill="#ABD161" points="484.461,244.701 363.921,365.931 363.891,365.931 411.621,284.841 		"/>
		<polygon fill="#71BDA2" points="484.461,244.701 411.621,284.841 328.701,330.531 327.501,329.301 411.621,244.701 		"/>
		<polygon fill="#B7DACB" points="484.461,244.701 411.621,244.701 331.341,163.941 411.621,206.271 		"/>
		<path fill="#FAAF40" d="M477.741,480.081c-5.04,5.221-12.12,8.46-19.92,8.46h-93.96v-1.29l0.029-121.29L477.741,480.081z"/>
		<path fill="#FAAF40" d="M476.871,10.371l0.03-0.03c5.399,5.13,8.79,12.42,8.79,20.49v93.03h-1.23l-120.6-0.48L476.871,10.371z"/>
		<path fill="#FFF100" d="M476.901,10.341l-0.03,0.03l-113.01,113.01V2.751h93.96C465.201,2.751,471.921,5.661,476.901,10.341z"/>
		<polygon fill="#008059" points="363.891,123.411 411.621,206.271 331.341,163.941 327.441,160.011 363.861,123.381 		"/>
		<polygon fill="#D3E5AD" points="331.341,163.941 411.621,244.701 370.761,244.701 307.011,180.561 326.211,161.241 		"/>
		<polygon fill="#D4CB58" points="411.621,244.701 327.501,329.301 307.071,308.75 370.761,244.701 		"/>
		<polygon fill="#FFF100" points="411.621,284.841 363.891,365.931 328.701,330.531 		"/>
		<polygon fill="#97C93C" points="307.011,180.561 370.761,244.701 305.991,244.701 305.991,181.581 		"/>
		<polygon fill="#FFF100" points="370.761,244.701 307.071,308.75 307.011,308.721 305.991,307.701 305.991,244.701 		"/>
		<polygon fill="#008059" points="328.701,330.531 363.891,365.931 281.721,413.991 		"/>
		<polygon fill="#FFF584" points="243.291,487.25 363.891,365.96 363.861,487.25 363.861,488.541 243.291,488.541 		"/>
		<polygon fill="#B7DACB" points="363.861,2.751 363.861,123.381 363.831,123.351 243.921,2.751 		"/>
		<polygon fill="#FFF100" points="363.861,123.381 327.441,160.011 323.511,156.081 282.741,77.781 363.831,123.351 		"/>
		<polygon fill="#ABD161" points="363.831,123.351 282.741,77.781 243.621,2.751 243.921,2.751 		"/>
		<polygon fill="#B7DACB" points="243.291,413.991 327.501,329.301 328.701,330.531 281.721,413.991 244.521,480.081 
			243.291,480.081 		"/>
		<polygon fill="#D3E5AD" points="327.501,329.301 243.291,413.991 243.291,372.891 307.071,308.75 		"/>
		<polygon fill="#FFF100" points="327.441,160.011 331.341,163.941 326.211,161.241 		"/>
		<polygon fill="#FFF100" points="327.441,160.011 326.211,161.241 323.511,156.081 		"/>
		<polygon fill="#FFDC89" points="323.511,156.081 326.211,161.241 307.011,180.561 243.291,116.481 243.291,75.381 		"/>
		<polygon fill="#97C93C" points="307.011,308.721 307.071,308.75 243.291,372.891 243.291,308.721 305.991,308.721 		"/>
		<polygon fill="#FFF100" points="305.991,307.701 307.011,308.721 305.991,308.721 		"/>
		<polygon fill="#FFF100" points="307.011,180.561 305.991,181.581 305.991,181.281 243.291,180.921 243.291,116.481 		"/>
		<polygon fill="#FFCA32" points="305.991,307.701 305.991,308.721 243.291,308.721 243.291,244.701 243.351,244.701 		"/>
		<polygon fill="#FFFBD4" points="305.991,244.701 305.991,307.701 243.351,244.701 		"/>
		<polygon fill="#FFCA32" points="305.991,181.581 305.991,244.701 243.351,244.701 243.291,244.641 		"/>
		<polygon fill="#FFFBD4" points="305.991,181.281 305.991,181.581 243.291,244.641 243.291,180.921 		"/>
		<polygon fill="#71BDA2" points="282.741,77.781 323.511,156.081 243.291,75.381 243.291,2.751 243.621,2.751 		"/>
		<polygon fill="#FFFBD4" points="244.521,480.081 281.721,413.991 363.891,365.931 363.891,365.96 243.291,487.25 243.291,480.081 
					"/>
		<polygon fill="#FFF100" points="243.921,2.751 243.621,2.751 243.291,2.121 		"/>
		<polygon fill="#FFF100" points="243.291,2.121 243.621,2.751 243.291,2.751 		"/>
		<polygon fill="#FFF100" points="243.291,244.641 243.351,244.701 243.291,244.701 		"/>
		<polygon fill="#B7DACB" points="243.291,487.25 243.291,488.541 122.691,488.541 122.691,487.25 122.691,365.96 		"/>
		<polygon fill="#FFDC89" points="243.291,372.891 243.291,413.991 159.111,329.331 179.541,308.781 		"/>
		<polygon fill="#FFFBD4" points="243.291,244.701 243.291,308.721 179.601,308.721 243.231,244.701 		"/>
		<polygon fill="#FFF100" points="243.291,244.641 243.291,244.701 243.231,244.701 		"/>
		<polygon fill="#FFCA32" points="243.291,180.921 243.291,244.641 179.601,180.591 179.601,180.561 		"/>
		<polygon fill="#97C93C" points="243.291,116.481 243.291,180.921 179.601,180.561 		"/>
		<polygon fill="#D3E5AD" points="243.291,75.381 243.291,116.481 179.601,180.561 160.371,161.241 163.041,156.111 		"/>
		<polygon fill="#B7DACB" points="243.291,2.751 243.291,75.381 163.041,156.111 205.101,75.381 242.961,2.751 		"/>
		<polygon fill="#FFF100" points="243.291,2.121 243.291,2.751 242.961,2.751 		"/>
		<polygon fill="#FFF100" points="243.291,2.121 242.961,2.751 242.661,2.751 		"/>
		<polygon fill="#FFFBD4" points="179.601,180.591 243.291,244.641 243.231,244.701 179.601,244.701 		"/>
		<polygon fill="#ABD161" points="203.391,413.991 243.291,487.25 122.691,365.96 122.691,365.931 203.361,413.991 		"/>
		<polygon fill="#FFCA32" points="243.231,244.701 179.601,308.721 179.601,244.701 		"/>
		<polygon fill="#FFFBD4" points="242.961,2.751 205.101,75.381 123.231,123.861 123.231,122.871 242.661,2.751 		"/>
		<polygon fill="#FFF584" points="242.661,2.751 123.231,122.871 123.231,2.751 		"/>
		<polygon fill="#008059" points="205.101,75.381 163.041,156.111 159.171,160.011 123.231,123.861 		"/>
		<polygon fill="#FFF100" points="203.361,413.991 122.691,365.931 157.911,330.531 		"/>
		<polygon fill="#97C93C" points="179.601,244.701 179.601,308.721 179.541,308.781 115.851,244.701 		"/>
		<polygon fill="#FFF100" points="179.601,180.591 179.601,244.701 115.851,244.701 179.601,180.561 		"/>
		<polygon fill="#FFF100" points="179.601,308.721 243.291,308.721 243.291,372.891 179.541,308.781 		"/>
		<polygon fill="#D4CB58" points="179.601,180.561 115.851,244.701 74.991,244.701 155.271,163.941 160.371,161.241 		"/>
		<polygon fill="#D3E5AD" points="115.851,244.701 179.541,308.781 159.111,329.331 74.991,244.701 		"/>
		<polygon fill="#FFF100" points="163.041,156.111 160.371,161.241 159.171,160.011 		"/>
		<polygon fill="#FFF100" points="160.371,161.241 155.271,163.941 159.171,160.011 		"/>
		<polygon fill="#FFF100" points="159.171,160.011 155.271,163.941 80.031,203.601 123.231,123.861 		"/>
		<polygon fill="#B7DACB" points="74.991,244.701 159.111,329.331 157.911,330.531 73.251,283.881 3.381,245.391 3.381,244.701 		
			"/>
		<polygon fill="#71BDA2" points="157.911,330.531 159.111,329.331 243.291,413.991 243.291,480.081 243.291,487.25 
			203.391,413.991 203.361,413.991 		"/>
		<polygon fill="#008059" points="157.911,330.531 122.691,365.931 73.251,283.881 		"/>
		<polygon fill="#71BDA2" points="155.271,163.941 74.991,244.701 3.381,244.701 3.381,244.041 80.031,203.601 		"/>
		<polygon fill="#FFF100" points="123.231,122.871 123.231,123.861 122.751,123.381 		"/>
		<polygon fill="#ABD161" points="123.231,123.861 80.031,203.601 3.381,244.041 3.381,243.441 122.271,123.861 		"/>
		<polygon fill="#FFF100" points="122.751,123.381 123.231,123.861 122.271,123.861 		"/>
		<path fill="#FFF100" d="M122.751,123.381l-0.48,0.48H3.381v-93.03c0-7.47,2.88-14.25,7.56-19.26l0.09,0.09L122.751,123.381z"/>
		<path fill="#FFF100" d="M122.691,487.25v1.29h-91.44c-7.56,0-14.46-3.06-19.47-8.01l110.91-114.57V487.25z"/>
		<polygon fill="#FFFBD4" points="73.251,283.881 122.691,365.931 122.661,365.931 3.381,245.96 3.381,245.391 		"/>
		<path fill="#FAAF40" d="M122.691,365.931v0.029l-110.91,114.57c-5.19-5.07-8.4-12.18-8.4-20.07v-94.529h119.28H122.691z"/>
		<polygon fill="#FFF584" points="3.381,245.96 122.661,365.931 3.381,365.931 		"/>
		<polygon fill="#B7DACB" points="122.271,123.861 3.381,243.441 3.381,123.861 		"/>
		<path fill="#FAAF40" d="M10.941,11.571c5.1-5.43,12.3-8.82,20.31-8.82h91.98v120.12l-0.48,0.51L11.031,11.661L10.941,11.571z"/>
		<polygon fill="#FFF100" points="3.381,245.391 3.381,245.96 2.121,244.701 		"/>
		<polygon fill="#FFF100" points="3.381,244.701 3.381,245.391 2.121,244.701 		"/>
		<polygon fill="#FFF100" points="3.381,244.041 3.381,244.701 2.121,244.701 		"/>
		<polygon fill="#FFF100" points="3.381,243.441 3.381,244.041 2.121,244.701 		"/>
	</g>
	<g>
		<polyline fill="none" stroke="#231F20" stroke-width="3" stroke-miterlimit="10" points="363.891,123.411 484.461,244.701 
			363.921,365.931 		"/>
		<polyline fill="none" stroke="#231F20" stroke-width="3" stroke-miterlimit="10" points="122.661,365.931 3.381,245.96 
			2.121,244.701 3.381,243.441 122.271,123.861 122.751,123.381 123.231,122.871 242.661,2.751 243.291,2.121 243.921,2.751 
			363.831,123.351 		"/>
		<polyline fill="none" stroke="#231F20" stroke-width="3" stroke-miterlimit="10" points="363.891,365.96 243.291,487.25 
			122.691,365.96 		"/>
		<polygon fill="none" stroke="#231F20" stroke-width="3" stroke-miterlimit="10" points="411.621,244.701 327.501,329.301 
			243.291,413.991 159.111,329.331 74.991,244.701 155.271,163.941 159.171,160.011 163.041,156.111 243.291,75.381 
			323.511,156.081 327.441,160.011 331.341,163.941 		"/>
		<polygon fill="none" stroke="#231F20" stroke-width="3" stroke-miterlimit="10" points="370.761,244.701 307.071,308.75 
			243.291,372.891 179.541,308.781 115.851,244.701 179.601,180.561 243.291,116.481 307.011,180.561 		"/>
		<polyline fill="none" stroke="#231F20" stroke-width="3" stroke-miterlimit="10" points="484.461,244.701 411.621,244.701 
			370.761,244.701 305.991,244.701 243.351,244.701 243.291,244.701 243.231,244.701 179.601,244.701 115.851,244.701 
			74.991,244.701 3.381,244.701 2.121,244.701 		"/>
		<polyline fill="none" stroke="#231F20" stroke-width="3" stroke-miterlimit="10" points="243.291,2.121 243.291,2.751 
			243.291,75.381 243.291,116.481 243.291,180.921 243.291,244.641 243.291,244.701 243.291,308.721 243.291,372.891 
			243.291,413.991 243.291,480.081 243.291,487.25 		"/>
		<polyline fill="none" stroke="#231F20" stroke-width="3" stroke-miterlimit="10" points="326.211,161.241 307.011,180.561 
			305.991,181.581 243.291,244.641 243.231,244.701 179.601,308.721 179.541,308.781 159.111,329.331 157.911,330.531 		"/>
		<polyline fill="none" stroke="#231F20" stroke-width="3" stroke-miterlimit="10" points="179.601,180.591 243.291,244.641 
			243.351,244.701 305.991,307.701 307.011,308.721 307.071,308.75 327.501,329.301 328.701,330.531 		"/>
		
			<line fill="none" stroke="#231F20" stroke-width="3" stroke-miterlimit="10" x1="160.371" y1="161.241" x2="179.601" y2="180.561"/>
		<polyline fill="none" stroke="#231F20" stroke-width="3" stroke-miterlimit="10" points="160.371,161.241 163.041,156.111 
			205.101,75.381 242.961,2.751 243.291,2.121 		"/>
		<polyline fill="none" stroke="#231F20" stroke-width="3" stroke-miterlimit="10" points="160.371,161.241 155.271,163.941 
			80.031,203.601 3.381,244.041 2.121,244.701 		"/>
		<polyline fill="none" stroke="#231F20" stroke-width="3" stroke-miterlimit="10" points="326.211,161.241 323.511,156.081 
			282.741,77.781 243.621,2.751 243.291,2.121 		"/>
		<polyline fill="none" stroke="#231F20" stroke-width="3" stroke-miterlimit="10" points="326.211,161.241 331.341,163.941 
			411.621,206.271 484.461,244.701 		"/>
		<polyline fill="none" stroke="#231F20" stroke-width="3" stroke-miterlimit="10" points="2.121,244.701 3.381,245.391 
			73.251,283.881 157.911,330.531 		"/>
		
			<line fill="none" stroke="#231F20" stroke-width="3" stroke-miterlimit="10" x1="203.391" y1="413.991" x2="243.291" y2="487.25"/>
		
			<line fill="none" stroke="#231F20" stroke-width="3" stroke-miterlimit="10" x1="157.911" y1="330.531" x2="203.361" y2="413.991"/>
		<polyline fill="none" stroke="#231F20" stroke-width="3" stroke-miterlimit="10" points="328.701,330.531 281.721,413.991 
			244.521,480.081 		"/>
		<polyline fill="none" stroke="#231F20" stroke-width="3" stroke-miterlimit="10" points="328.701,330.531 411.621,284.841 
			484.461,244.701 		"/>
		<polyline fill="none" stroke="#231F20" stroke-width="3" stroke-miterlimit="10" points="326.211,161.241 327.441,160.011 
			363.861,123.381 		"/>
		
			<line fill="none" stroke="#231F20" stroke-width="3" stroke-miterlimit="10" x1="328.701" y1="330.531" x2="363.891" y2="365.931"/>
		<polyline fill="none" stroke="#231F20" stroke-width="3" stroke-miterlimit="10" points="160.371,161.241 159.171,160.011 
			123.231,123.861 		"/>
		
			<line fill="none" stroke="#231F20" stroke-width="3" stroke-miterlimit="10" x1="157.911" y1="330.531" x2="122.691" y2="365.931"/>
		
			<line fill="none" stroke="#231F20" stroke-width="3" stroke-miterlimit="10" x1="122.691" y1="365.931" x2="73.251" y2="283.881"/>
		<polyline fill="none" stroke="#231F20" stroke-width="3" stroke-miterlimit="10" points="122.691,365.931 203.361,413.991 
			203.391,413.991 		"/>
		
			<line fill="none" stroke="#231F20" stroke-width="3" stroke-miterlimit="10" x1="281.721" y1="413.991" x2="363.891" y2="365.931"/>
		
			<line fill="none" stroke="#231F20" stroke-width="3" stroke-miterlimit="10" x1="363.891" y1="365.931" x2="411.621" y2="284.841"/>
		<polyline fill="none" stroke="#231F20" stroke-width="3" stroke-miterlimit="10" points="363.861,123.381 363.831,123.351 
			282.741,77.781 		"/>
		<polyline fill="none" stroke="#231F20" stroke-width="3" stroke-miterlimit="10" points="363.861,123.381 363.891,123.411 
			411.621,206.271 		"/>
		
			<line fill="none" stroke="#231F20" stroke-width="3" stroke-miterlimit="10" x1="123.231" y1="123.861" x2="205.101" y2="75.381"/>
		
			<line fill="none" stroke="#231F20" stroke-width="3" stroke-miterlimit="10" x1="123.231" y1="123.861" x2="80.031" y2="203.601"/>
		<polyline fill="none" stroke="#231F20" stroke-width="3" stroke-miterlimit="10" points="179.601,180.561 179.601,180.591 
			179.601,244.701 179.601,308.721 		"/>
		<polyline fill="none" stroke="#231F20" stroke-width="3" stroke-miterlimit="10" points="179.601,308.721 243.291,308.721 
			305.991,308.721 307.011,308.721 		"/>
		<polyline fill="none" stroke="#231F20" stroke-width="3" stroke-miterlimit="10" points="305.991,308.721 305.991,307.701 
			305.991,244.701 305.991,181.581 305.991,181.281 		"/>
		<polyline fill="none" stroke="#231F20" stroke-width="3" stroke-miterlimit="10" points="305.991,181.281 243.291,180.921 
			179.601,180.561 		"/>
		<path fill="none" stroke="#231F20" stroke-width="3" stroke-miterlimit="10" d="M485.691,365.931v94.529
			c0,7.62-3.03,14.551-7.95,19.62c-5.04,5.221-12.12,8.46-19.92,8.46h-93.96h-120.57h-120.6h-91.44c-7.56,0-14.46-3.06-19.47-8.01
			c-5.19-5.07-8.4-12.18-8.4-20.07v-94.529V245.96v-0.569v-0.69v-0.66v-0.6v-119.58v-93.03c0-7.47,2.88-14.25,7.56-19.26
			c5.1-5.43,12.3-8.82,20.31-8.82h91.98h119.43h0.3h0.33h0.33h0.3h119.94h93.96c7.38,0,14.1,2.91,19.08,7.59
			c5.399,5.13,8.79,12.42,8.79,20.49v93.03v120.84V365.931z"/>
		<polyline fill="none" stroke="#231F20" stroke-width="3" stroke-miterlimit="10" points="123.231,123.861 122.751,123.381 
			11.031,11.661 		"/>
		
			<line fill="none" stroke="#231F20" stroke-width="3" stroke-miterlimit="10" x1="363.861" y1="123.381" x2="476.871" y2="10.371"/>
		
			<line fill="none" stroke="#231F20" stroke-width="3" stroke-miterlimit="10" x1="363.891" y1="365.96" x2="477.741" y2="480.081"/>
		<polyline fill="none" stroke="#231F20" stroke-width="3" stroke-miterlimit="10" points="122.691,365.96 11.781,480.531 
			11.031,481.311 		"/>
		<polyline fill="none" stroke="#231F20" stroke-width="3" stroke-miterlimit="10" points="123.231,123.861 122.271,123.861 
			3.381,123.861 2.121,123.861 		"/>
		<polyline fill="none" stroke="#231F20" stroke-width="3" stroke-miterlimit="10" points="123.231,123.861 123.231,122.871 
			123.231,2.751 123.231,2.121 		"/>
		<polyline fill="none" stroke="#231F20" stroke-width="3" stroke-miterlimit="10" points="363.861,123.381 363.861,2.751 
			363.861,2.121 		"/>
		
			<line fill="none" stroke="#231F20" stroke-width="3" stroke-miterlimit="10" x1="363.861" y1="123.381" x2="484.461" y2="123.861"/>
		<polyline fill="none" stroke="#231F20" stroke-width="3" stroke-miterlimit="10" points="363.891,365.931 363.921,365.931 
			485.691,365.931 		"/>
		<polyline fill="none" stroke="#231F20" stroke-width="3" stroke-miterlimit="10" points="363.891,365.931 363.891,365.96 
			363.861,487.25 		"/>
		<polyline fill="none" stroke="#231F20" stroke-width="3" stroke-miterlimit="10" points="122.691,365.931 122.691,365.96 
			122.691,487.25 		"/>
		<polyline fill="none" stroke="#231F20" stroke-width="3" stroke-miterlimit="10" points="122.691,365.931 122.661,365.931 
			3.381,365.931 2.121,365.931 		"/>
	</g>
</g>
</svg>
